<svg width="72" height="72" viewBox="0 0 72 72" fill="none" xmlns="http://www.w3.org/2000/svg">
<path fill-rule="evenodd" clip-rule="evenodd" d="M41.4404 33.3C46.1624 33.3 49.9904 29.472 49.9904 24.75C49.9904 20.028 46.1624 16.2 41.4404 16.2C36.7184 16.2 32.8904 20.028 32.8904 24.75C32.8904 29.472 36.7184 33.3 41.4404 33.3ZM41.4404 34.2C46.6595 34.2 50.8904 29.9691 50.8904 24.75C50.8904 19.5309 46.6595 15.3 41.4404 15.3C36.2213 15.3 31.9904 19.5309 31.9904 24.75C31.9904 29.9691 36.2213 34.2 41.4404 34.2Z" fill="#414042"/>
<path fill-rule="evenodd" clip-rule="evenodd" d="M26.59 18.45C22.3651 18.45 18.94 21.8751 18.94 26.1C18.94 30.325 22.3651 33.75 26.59 33.75C26.8386 33.75 27.04 33.9516 27.04 34.2C27.04 34.4485 26.8386 34.65 26.59 34.65C21.868 34.65 18.04 30.8221 18.04 26.1C18.04 21.378 21.868 17.55 26.59 17.55C27.5532 17.55 29.851 17.9246 31.4083 19.4818C31.584 19.6576 31.584 19.9425 31.4083 20.1183C31.2325 20.294 30.9476 20.294 30.7719 20.1183C29.4491 18.7955 27.4269 18.45 26.59 18.45Z" fill="#414042"/>
<path fill-rule="evenodd" clip-rule="evenodd" d="M34.6891 38.2251C34.703 38.4732 34.513 38.6855 34.2648 38.6993C33.029 38.768 31.1155 39.4154 29.5097 41.1747C27.9645 42.8676 26.6776 45.6205 26.5942 49.95H36.0398C36.2883 49.95 36.4898 50.1515 36.4898 50.4C36.4898 50.6486 36.2883 50.85 36.0398 50.85H25.6898V50.4C25.6898 45.6299 27.0681 42.5146 28.845 40.5679C30.6142 38.6297 32.7507 37.8821 34.2149 37.8008C34.463 37.787 34.6754 37.977 34.6891 38.2251ZM17.3682 40.0813C20.2482 38.3392 23.7969 38.0212 26.1832 38.2521C26.4305 38.276 26.6117 38.496 26.5878 38.7434C26.5638 38.9907 26.3439 39.1719 26.0965 39.148C23.8329 38.9289 20.4966 39.2408 17.834 40.8513C16.5099 41.6522 15.3554 42.7719 14.5721 44.3087C13.8323 45.7603 13.4119 47.6074 13.5151 49.95H22.5398C22.7883 49.95 22.9898 50.1515 22.9898 50.4C22.9898 50.6486 22.7883 50.85 22.5398 50.85H13.0898C12.8533 50.85 12.6572 50.667 12.6409 50.431C12.4562 47.7538 12.9009 45.6056 13.7703 43.9C14.6399 42.1938 15.921 40.9566 17.3682 40.0813Z" fill="#414042"/>
<path d="M50.9836 47.8375C50.9942 47.8661 51.0038 47.8947 51.0143 47.9232C51.1975 48.427 51.3341 49.1953 51.7225 49.5853C52.1766 50.0413 52.9101 49.6178 52.5776 48.9932C52.2908 48.4547 51.6447 48.0844 50.9836 47.8375Z" fill="#F05023"/>
<path d="M58.1349 44.4593L55.6835 44.0389C55.5284 44.0121 55.3994 43.9044 55.3453 43.7568L54.6851 41.9495C54.6324 41.8054 54.6587 41.6442 54.7545 41.5242L56.2835 39.6127C56.4228 39.4387 56.4096 39.1875 56.2528 39.0293L54.5318 37.2914C54.3719 37.1301 54.1154 37.117 53.9405 37.2615L52.0953 38.7824C51.9662 38.8892 51.7874 38.9125 51.635 38.8436L49.7743 38.0009C49.6417 37.9407 49.5472 37.8186 49.5226 37.6749L49.1426 35.4651C49.1066 35.2547 48.9235 35.1001 48.7096 35.1001H46.5642C46.3477 35.1001 46.1637 35.2578 46.1303 35.4718L45.7873 37.6683C45.7644 37.8155 45.6677 37.9411 45.5316 38.0018L43.6169 38.8532C43.4733 38.9173 43.3064 38.8993 43.1794 38.8067L41.4136 37.5159C41.2376 37.3872 40.9933 37.407 40.8404 37.5634L39.3883 39.0478C39.2412 39.1985 39.2213 39.4317 39.3408 39.6049L40.6573 41.5106C40.7456 41.6384 40.7596 41.8037 40.6946 41.9447L39.8434 43.789C39.7836 43.9185 39.6646 44.0107 39.5244 44.0366L37.2597 44.4549C37.0515 44.4931 36.9004 44.675 36.9004 44.8868V46.9445C36.9004 47.1633 37.0611 47.3487 37.2777 47.3794L39.7252 47.7292C39.8759 47.7507 40.0046 47.8487 40.0656 47.9879L40.7834 49.6283C40.8474 49.775 40.8268 49.946 40.7284 50.0729L39.1885 52.0682C39.0567 52.2392 39.0685 52.4804 39.2161 52.6377L40.7662 54.2873C40.9121 54.4428 41.1487 54.4705 41.3271 54.3536L43.3644 53.0186C43.4865 52.9386 43.6407 52.9245 43.775 52.9812L45.539 53.7224C45.6713 53.7777 45.7684 53.8945 45.7982 54.0347L46.2889 56.3121C46.3324 56.5142 46.5111 56.6591 46.7184 56.6591H48.7966C49.0109 56.6591 49.194 56.5045 49.2297 56.2932L49.61 54.0448C49.6346 53.8986 49.7312 53.7751 49.867 53.7158L51.5234 52.9908C51.6653 52.9289 51.8296 52.946 51.9556 53.0366L53.7833 54.347C53.9529 54.4687 54.1848 54.4542 54.3376 54.3124L56.1588 52.6258C56.32 52.4764 56.3463 52.2312 56.2199 52.0511L54.8309 50.0716C54.7422 49.9451 54.7263 49.7812 54.7896 49.6402L55.5118 48.0235C55.572 47.8891 55.6954 47.7937 55.8408 47.7691L58.1332 47.3869C58.345 47.3513 58.5004 47.1681 58.5004 46.9538V44.892C58.5004 44.6781 58.3457 44.4956 58.1349 44.4593ZM53.2342 49.8067C52.8121 50.6748 51.6248 50.5869 51.1087 49.8713C50.7591 49.3867 50.6138 48.7445 50.4125 48.1901C50.3409 47.9923 50.2694 47.7946 50.1974 47.5965C50.0716 47.5657 49.9513 47.5389 49.8389 47.5165C47.3484 47.021 44.7722 47.9893 43.501 50.2631C43.3213 50.5847 42.771 50.3637 42.8987 50.0092C43.1988 49.1784 43.4978 48.3477 43.7939 47.5157C44.4295 45.7303 45.0642 43.9435 45.7174 42.1643C45.9265 41.5949 46.1163 41.0063 46.3701 40.4541C46.787 39.5482 47.8939 39.5657 48.3265 40.4549C48.3344 40.4712 48.3336 40.4861 48.3389 40.5019C48.345 40.5133 48.3547 40.5208 48.3599 40.5336C48.837 41.7004 49.2244 42.9103 49.6452 44.0982C49.9952 45.0867 50.3502 46.0733 50.7059 47.0597C51.0837 47.18 51.4501 47.3315 51.7975 47.5183C52.5561 47.9264 53.7289 48.7887 53.2342 49.8054V49.8067Z" fill="#F05023"/>
<path d="M49.1255 44.6013C48.674 43.3269 48.2588 42.0286 47.7498 40.7749C47.1984 39.6691 46.6824 41.4509 46.5326 41.8539C46.1741 42.8195 45.8249 43.7886 45.4771 44.7582C45.0471 45.9566 44.6184 47.1556 44.1896 48.3544C45.076 47.5501 46.1825 47.0097 47.4032 46.8159C48.2338 46.6842 49.0987 46.7035 49.9319 46.867C49.8973 46.7712 49.8621 46.6753 49.8278 46.5796C49.5911 45.9211 49.3591 45.2612 49.1255 44.6013Z" fill="#F05023"/>
</svg>
