<svg width="163" height="33" viewBox="0 0 163 33" fill="none" xmlns="http://www.w3.org/2000/svg">
<g clip-path="url(#clip0_454_1722)">
<path d="M80.3241 9.24083C81.4462 9.23114 82.5286 8.81981 83.382 8.07889L84.8847 10.5235C83.611 11.7197 81.9345 12.3739 80.2015 12.3518C76.6229 12.3518 73.9253 9.69479 73.9253 6.19653C73.9253 2.69829 76.6229 0.0454668 80.2015 0.0454668C81.9345 0.0233095 83.611 0.677556 84.8847 1.87371L83.382 4.31831C82.5286 3.57863 81.4455 3.16871 80.3241 3.16056C79.93 3.14757 79.5367 3.21758 79.1703 3.36619C78.8038 3.51482 78.4711 3.73885 78.1936 4.02426C77.9161 4.30967 77.6999 4.6503 77.5578 5.02481C77.4157 5.39932 77.351 5.79965 77.3685 6.20069C77.351 6.60174 77.4157 7.00206 77.5578 7.37654C77.6999 7.75109 77.9161 8.09174 78.1936 8.37713C78.4711 8.66251 78.8038 8.88656 79.1703 9.0352C79.5367 9.18384 79.93 9.25383 80.3241 9.24083Z" fill="#747474"/>
<path d="M88.123 12.1774V0.220947H97.699V3.15696H91.2874V4.7395H96.4381V7.50062H91.2874V9.23724H97.699V12.1774H88.123Z" fill="#747474"/>
<path d="M101.486 0.220947H107.434C110.009 0.220947 111.806 1.53695 111.806 4.23142C111.809 5.0123 111.566 5.77356 111.112 6.40327C110.658 7.03298 110.018 7.49787 109.285 7.72962L112.809 12.1774H109.043L105.727 8.01287H104.806V12.1774H101.486V0.220947ZM104.806 3.13614V5.58074H107.123C107.286 5.59489 107.451 5.5738 107.605 5.51887C107.76 5.46394 107.901 5.3764 108.02 5.26199C108.139 5.14757 108.233 5.00886 108.296 4.85495C108.359 4.70103 108.388 4.53539 108.384 4.36886C108.393 4.19942 108.367 4.02991 108.306 3.87177C108.245 3.71363 108.152 3.57053 108.033 3.45212C107.913 3.33372 107.771 3.24276 107.614 3.18537C107.457 3.12799 107.289 3.10552 107.123 3.11948L104.806 3.13614Z" fill="#747474"/>
<path d="M120.388 0.0456159C121.19 0.0250316 121.988 0.170602 122.733 0.473482C123.479 0.776365 124.156 1.23023 124.723 1.80749C125.291 2.38476 125.736 3.07337 126.034 3.83149C126.332 4.5896 126.475 5.40138 126.455 6.2175C126.455 7.84994 125.817 9.41558 124.683 10.5699C123.548 11.7242 122.009 12.3727 120.404 12.3727C118.799 12.3727 117.26 11.7242 116.125 10.5699C114.991 9.41558 114.353 7.84994 114.353 6.2175C114.331 5.40378 114.473 4.59403 114.768 3.83739C115.063 3.08075 115.506 2.39299 116.07 1.81583C116.634 1.23867 117.308 0.784155 118.05 0.479858C118.792 0.175561 119.588 0.0278256 120.388 0.0456159ZM120.388 9.20768C120.766 9.21036 121.141 9.13453 121.49 8.98466C121.839 8.83485 122.154 8.61423 122.416 8.33627C122.678 8.05839 122.882 7.72894 123.015 7.36821C123.147 7.00747 123.207 6.62302 123.188 6.23833C123.188 4.55168 122.05 3.24817 120.388 3.24817C118.725 3.24817 117.587 4.54751 117.587 6.23833C117.57 6.62273 117.63 7.00672 117.763 7.3669C117.896 7.72708 118.1 8.05598 118.362 8.33366C118.624 8.61134 118.938 8.83203 119.286 8.98225C119.635 9.13247 120.009 9.20919 120.388 9.20768Z" fill="#747474"/>
<path d="M129.914 8.36215C130.995 9.11503 132.268 9.53042 133.578 9.55737C134.544 9.55737 135.118 9.25755 135.118 8.61205C135.118 8.19557 134.773 7.9249 134.045 7.71246L132.178 7.16693C130.193 6.58388 129.19 5.56772 129.19 3.83527C129.19 1.728 130.827 0.0871582 133.959 0.0871582C135.432 0.0979657 136.886 0.421368 138.229 1.03668L137.295 3.8311C136.226 3.24385 135.035 2.91872 133.82 2.88158C132.923 2.88158 132.543 3.18143 132.543 3.67285C132.543 4.06015 132.788 4.25172 133.406 4.44745L135.429 5.04715C137.623 5.71348 138.503 6.8046 138.503 8.42464C138.503 10.7443 136.55 12.3809 133.525 12.3809C132.005 12.3635 130.508 12.0097 129.136 11.344L129.914 8.36215Z" fill="#747474"/>
<path d="M72.4636 12.1774L68.103 0.220947H64.1976L59.772 12.1774H62.8875C63.4649 11.289 64.2956 10.6015 65.2681 10.207C66.2406 9.81247 67.3084 9.72984 68.3287 9.97019L69.1019 12.1774H72.4636ZM67.1821 7.38402C66.2584 7.39 65.3438 7.5693 64.4842 7.91291L66.089 3.56093L67.4402 7.40897H67.1903" fill="#747474"/>
<path d="M113.592 30.3055C112.482 30.3129 111.39 30.0258 110.423 29.4726C111.334 28.9345 112.086 28.1567 112.6 27.2209C113.113 26.2851 113.37 25.2259 113.342 24.1545C113.342 22.522 112.704 20.9564 111.57 19.8021C110.435 18.6477 108.896 17.9993 107.291 17.9993C105.687 17.9993 104.148 18.6477 103.013 19.8021C101.878 20.9564 101.241 22.522 101.241 24.1545C101.22 24.9576 101.359 25.7567 101.649 26.5041C101.938 27.2514 102.373 27.9317 102.928 28.5042C103.481 29.0767 104.144 29.5299 104.874 29.8365C105.604 30.1431 106.387 30.297 107.177 30.2889C108.018 31.1461 109.017 31.826 110.117 32.2898C111.218 32.7536 112.397 32.9921 113.587 32.9916H113.997V30.293H113.587L113.592 30.3055ZM104.495 24.1545C104.495 22.4886 105.654 21.1643 107.275 21.1643C108.896 21.1643 110.075 22.4886 110.075 24.1545C110.075 25.8203 108.953 27.128 107.275 27.128C106.898 27.1267 106.525 27.0478 106.179 26.8961C105.833 26.7443 105.52 26.5229 105.261 26.245C105.001 25.9672 104.799 25.6387 104.668 25.2794C104.536 24.9201 104.477 24.5375 104.495 24.1545Z" fill="#747474"/>
<path d="M75.0554 18.1658H80.9995C83.5745 18.1658 85.3722 19.4817 85.3722 22.1762C85.3749 22.9571 85.1318 23.7184 84.6778 24.348C84.2238 24.9778 83.5833 25.4427 82.8498 25.6744L86.3832 30.1222H82.6127L79.2968 25.9576H78.3794V30.1222H75.0595L75.0554 18.1658ZM78.3754 21.0809V23.5255H80.6924C80.8561 23.5353 81.0204 23.5109 81.174 23.4538C81.3282 23.3968 81.4697 23.3083 81.5889 23.1939C81.7081 23.0794 81.8031 22.9414 81.8677 22.7882C81.9331 22.6351 81.9661 22.47 81.9661 22.3032C81.9661 22.1364 81.9331 21.9714 81.8677 21.8183C81.8031 21.6651 81.7081 21.527 81.5889 21.4126C81.4697 21.2982 81.3282 21.2097 81.174 21.1526C81.0204 21.0956 80.8561 21.0712 80.6924 21.0809H78.3754Z" fill="#747474"/>
<path d="M89.0728 30.1222V18.1658H98.6487V21.1017H92.2378V22.6843H97.3878V25.4454H92.2378V27.1862H98.6487V30.1222H89.0728Z" fill="#747474"/>
<path d="M119.635 24.7041C119.635 26.2658 120.413 27.2028 121.882 27.2028C123.352 27.2028 124.162 26.2367 124.162 24.7041V18.1658H127.483V24.9332C127.483 27.815 125.476 30.2929 121.882 30.2929C118.288 30.2929 116.318 28.0441 116.318 24.9332V18.1658H119.635V24.7041Z" fill="#747474"/>
<path d="M134.663 18.1658H131.347V30.1222H134.663V18.1658Z" fill="#747474"/>
<path d="M138.688 18.1658H144.739C147.105 18.1658 149.111 19.59 149.111 22.651C149.111 25.4287 147.105 27.0613 144.739 27.0613H142.008V30.1222H138.688V18.1658ZM142.008 21.0809V24.1544H144.203C144.588 24.1339 144.951 23.9637 145.216 23.679C145.482 23.3942 145.63 23.0166 145.63 22.6239C145.63 22.2313 145.482 21.8536 145.216 21.5688C144.951 21.2841 144.588 21.1139 144.203 21.0934L142.008 21.0809Z" fill="#747474"/>
<path d="M72.4636 30.1222L68.103 18.1658H64.1976L59.772 30.1222H62.8875C63.4639 29.228 64.2966 28.5355 65.2726 28.1385C66.2487 27.7415 67.3212 27.6591 68.3448 27.9025L69.1187 30.1097L72.4636 30.1222ZM67.1821 25.3288C66.2553 25.3279 65.3365 25.5016 64.4719 25.841L66.0767 21.4849L67.4274 25.333H67.178" fill="#747474"/>
<path d="M162.388 30.1222L158.028 18.1658H154.122L149.701 30.1222H152.816C153.392 29.2312 154.222 28.5407 155.194 28.1439C156.167 27.747 157.236 27.6628 158.257 27.9025L159.035 30.1097L162.388 30.1222ZM157.106 25.3288C156.18 25.3281 155.261 25.5018 154.397 25.841L156.001 21.4849L157.352 25.333H157.102" fill="#747474"/>
<path d="M19.2417 29.5684C19.2401 29.6406 19.2525 29.7124 19.2782 29.7798C19.3038 29.8471 19.3422 29.9086 19.3913 29.9608C19.4404 30.013 19.499 30.0549 19.564 30.084C19.629 30.1132 19.6989 30.129 19.7699 30.1306H24.699V24.3585C22.8665 24.3864 21.0401 24.5816 19.2417 24.9416V29.5684ZM50.4911 29.2727L30.4797 0.216561C30.4295 0.148999 30.3645 0.0942563 30.2899 0.0566684C30.2153 0.0190807 30.1331 -0.000319591 30.0499 3.98204e-06H25.8617V16.7624C27.6946 16.7843 29.5236 16.9375 31.3354 17.2205V10.9361L37.5132 19.9024C29.5826 17.1401 20.974 17.1401 13.0435 19.9024L19.2417 10.9445V17.2205C21.0535 16.937 22.8825 16.7839 24.7154 16.7624V3.98204e-06H20.5109C20.431 0.002232 20.3526 0.0228803 20.2817 0.0603926C20.2108 0.0979048 20.1492 0.151303 20.1015 0.216561L0.0860317 29.2769C0.0285212 29.3627 -0.00150668 29.4645 5.81971e-05 29.5684C4.2265e-05 29.7161 0.0571463 29.8578 0.159031 29.963C0.260916 30.0682 0.399399 30.1285 0.544557 30.1306H5.69478C5.85899 30.1351 6.01867 30.0755 6.14102 29.9641C11.6178 25.6306 18.3583 23.2779 25.2967 23.2779C32.2352 23.2779 38.9757 25.6306 44.4525 29.9641C44.5668 30.0658 44.7104 30.1271 44.8618 30.139H50.008C50.0814 30.1395 50.1542 30.1251 50.2221 30.0965C50.2899 30.0679 50.3514 30.0258 50.403 29.9726C50.4546 29.9194 50.495 29.8562 50.5221 29.7868C50.5492 29.7173 50.5623 29.6431 50.5607 29.5684C50.5654 29.4634 50.5367 29.3598 50.4788 29.2727H50.4911ZM25.8617 30.139H30.8032C30.875 30.1373 30.9459 30.1212 31.0116 30.0917C31.0773 30.062 31.1366 30.0195 31.1861 29.9665C31.2356 29.9134 31.2742 29.8509 31.2998 29.7826C31.3255 29.7143 31.3376 29.6415 31.3354 29.5684V24.9457C29.5321 24.5818 27.7 24.3852 25.8617 24.3585V30.139Z" fill="#747474"/>
</g>
<defs>
<clipPath id="clip0_454_1722">
<rect width="163" height="33" fill="white"/>
</clipPath>
</defs>
</svg>
