<svg width="48" height="48" viewBox="0 0 48 48" fill="none" xmlns="http://www.w3.org/2000/svg">
<path d="M37.2724 31.3399L40.7044 21.0399C43.7044 12.0439 45.2044 7.54588 42.8284 5.17188C40.4544 2.79788 35.9564 4.29588 26.9584 7.29588L16.6604 10.7279C9.40043 13.1479 5.77043 14.3599 4.74043 16.1339C4.25866 16.963 4.00488 17.9049 4.00488 18.8639C4.00488 19.8228 4.25866 20.7647 4.74043 21.5939C5.77043 23.3699 9.40043 24.5799 16.6604 27.0019C17.8284 27.3899 18.4104 27.5839 18.8984 27.9099C19.3704 28.2259 19.7764 28.6319 20.0924 29.1039C20.4184 29.5919 20.6124 30.1739 21.0004 31.3399C23.4204 38.5999 24.6324 42.2319 26.4064 43.2639C27.236 43.7454 28.1782 43.9991 29.1374 43.9991C30.0967 43.9991 31.0388 43.7454 31.8684 43.2639C33.6424 42.2319 34.8504 38.6019 37.2724 31.3399Z" stroke="#B8A2D6" stroke-width="2"/>
<path opacity="0.5" d="M32.4248 17.696C32.6999 17.4145 32.8534 17.0363 32.8522 16.6428C32.8509 16.2493 32.6951 15.872 32.4183 15.5923C32.1415 15.3126 31.7659 15.1529 31.3724 15.1476C30.9789 15.1423 30.5991 15.2918 30.3148 15.564L32.4248 17.696ZM21.3248 28.672L32.4248 17.696L30.3148 15.564L19.2148 26.54L21.3248 28.672Z" fill="#B8A2D6"/>
</svg>
