<svg width="72" height="72" viewBox="0 0 72 72" fill="none" xmlns="http://www.w3.org/2000/svg">
<mask id="mask0_65_367" style="mask-type:luminance" maskUnits="userSpaceOnUse" x="10" y="10" width="52" height="52">
<path d="M61.2 10.8H10.8V61.2H61.2V10.8Z" fill="white"/>
</mask>
<g mask="url(#mask0_65_367)">
<path d="M46.1931 37.8065L44.296 36.7248C44.3357 36.2549 44.33 35.7905 44.2903 35.3205L46.1818 34.2218C46.5102 34.0292 46.6687 33.6442 46.5725 33.2818C46.3177 32.3077 45.927 31.379 45.4116 30.5126C45.219 30.1898 44.834 30.0313 44.4659 30.1276L42.3536 30.7052C42.0478 30.3484 41.7194 30.0143 41.3569 29.7141L41.9176 27.6019C42.0139 27.2338 41.8553 26.8487 41.5269 26.6618C41.0795 26.4013 40.6264 26.1804 40.1734 25.9936C39.7261 25.8124 39.2446 25.6538 38.7463 25.5236C38.3782 25.4273 37.9932 25.5916 37.8063 25.92L36.7246 27.8171C36.2547 27.7774 35.7846 27.7831 35.3146 27.8228L34.216 25.9313C34.0235 25.6029 33.6384 25.4443 33.2759 25.5405C32.8342 25.6595 32.3926 25.8068 31.9509 25.9823L31.7357 26.0729C31.311 26.2541 30.8975 26.4692 30.5068 26.7014C30.1783 26.894 30.0254 27.2791 30.1217 27.6472L30.6993 29.7595C30.3369 30.0653 30.0085 30.3994 29.7027 30.7618L27.5904 30.2012C27.2279 30.1049 26.8372 30.2635 26.6503 30.5919C26.4295 30.977 26.2256 31.379 26.0444 31.8094L25.9311 32.0925C25.767 32.5117 25.631 32.942 25.5178 33.3724C25.4215 33.7404 25.5857 34.1255 25.9142 34.3125L27.8112 35.3941C27.7716 35.8641 27.7773 36.3341 27.8169 36.8041L25.9255 37.9028C25.597 38.0953 25.4385 38.4804 25.5348 38.8428C25.6537 39.2844 25.8009 39.7262 25.9765 40.1622L26.067 40.3717C26.254 40.8021 26.4635 41.2156 26.6957 41.6119C26.8882 41.9348 27.279 42.0932 27.6414 41.9914L29.7536 41.4137C30.0594 41.7705 30.3935 42.1046 30.7559 42.4047L30.1953 44.517C30.099 44.8851 30.2576 45.2702 30.5861 45.4571C31.0277 45.7119 31.4808 45.9384 31.9339 46.1197C32.3869 46.3065 32.8739 46.4651 33.3666 46.5896C33.4345 46.6067 33.5081 46.618 33.5761 46.618C33.8706 46.618 34.1537 46.4594 34.3066 46.1933L35.3882 44.2962C35.8582 44.3358 36.3283 44.3301 36.7926 44.2905L37.8912 46.1819C38.0782 46.5104 38.4632 46.6689 38.8313 46.5726C39.8053 46.3122 40.7341 45.9214 41.6005 45.4117C41.9232 45.2192 42.0818 44.8341 41.9855 44.4661L41.4079 42.3538C41.7646 42.048 42.0931 41.7196 42.3933 41.3571L44.5055 41.9177C44.8736 42.014 45.2587 41.8555 45.4456 41.527C45.7004 41.0852 45.927 40.6323 46.1138 40.1792C46.3006 39.7262 46.4592 39.2448 46.5838 38.7465C46.6801 38.3784 46.5158 37.999 46.1874 37.8065H46.1931ZM36.0565 39.3977C34.2103 39.3977 32.7153 37.9028 32.7153 36.0566C32.7153 34.2105 34.2103 32.7155 36.0565 32.7155C37.9026 32.7155 39.3976 34.2105 39.3976 36.0566C39.3976 37.9028 37.9026 39.3977 36.0565 39.3977Z" fill="#F05023"/>
<path d="M60.3501 36.0002C60.3501 41.4252 58.1925 46.7144 54.3871 50.5822C50.5816 54.45 45.2924 56.7322 39.839 56.8058C34.3856 56.8794 28.6831 56.8058 23.1107 56.8058H14.7636C14.2143 56.8058 14.2143 57.6552 14.7636 57.6552H33.1058C35.2407 57.6552 37.3813 57.6609 39.5163 57.6552C44.8677 57.6325 50.0663 55.6675 54.0473 52.0772C58.572 47.9999 61.1995 42.0821 61.1995 35.9945C61.1995 35.4452 60.3501 35.4452 60.3501 35.9945V36.0002Z" fill="#414042"/>
<path d="M11.6494 36.0003C11.6494 30.5753 13.807 25.2861 17.6124 21.4184C21.418 17.5506 26.7071 15.2684 32.1605 15.1948C37.614 15.1212 43.3164 15.1948 48.8888 15.1948H57.2359C57.7852 15.1948 57.7852 14.3454 57.2359 14.3454H38.8938C36.7588 14.3454 34.6182 14.3397 32.4833 14.3454C27.1318 14.368 21.9333 16.3331 17.9523 19.9234C13.4276 23.995 10.8 29.9127 10.8 36.0003C10.8 36.5497 11.6494 36.5497 11.6494 36.0003Z" fill="#414042"/>
<path d="M53.9969 18.6038L57.5362 15.0646C57.7005 14.9003 57.7005 14.6285 57.5362 14.4643L53.9969 10.9249C53.6118 10.5398 53.0116 11.1401 53.3966 11.5252L56.9359 15.0646V14.4643L53.3966 18.0036C53.0116 18.3886 53.6118 18.9889 53.9969 18.6038Z" fill="#414042"/>
<path d="M18.0036 53.3962C16.8257 54.5741 15.6422 55.7577 14.4642 56.9356C14.3001 57.0998 14.3001 57.3716 14.4642 57.5359C15.6422 58.7138 16.8257 59.8973 18.0036 61.0752C18.3887 61.4602 18.9889 60.86 18.6039 60.4749C17.426 59.297 16.2425 58.1135 15.0645 56.9356V57.5359C16.2425 56.3579 17.426 55.1744 18.6039 53.9965C18.9889 53.6114 18.3887 53.0112 18.0036 53.3962Z" fill="#414042"/>
</g>
</svg>
