<svg width="33" height="32" viewBox="0 0 33 32" fill="none" xmlns="http://www.w3.org/2000/svg">
<path d="M22.4997 5.66667C24.0026 5.66667 25.4439 6.26369 26.5066 7.3264C27.5693 8.38911 28.1663 9.83044 28.1663 11.3333C28.1663 12.8362 27.5693 14.2776 26.5066 15.3403C25.4439 16.403 24.0026 17 22.4997 17H10.4997C9.52721 17 8.59458 17.3863 7.90695 18.0739C7.21932 18.7616 6.83301 19.6942 6.83301 20.6667C6.83301 21.6391 7.21932 22.5718 7.90695 23.2594C8.59458 23.947 9.52721 24.3333 10.4997 24.3333H24.753L23.793 23.3733C23.6948 23.2818 23.616 23.1714 23.5613 23.0487C23.5066 22.9261 23.4773 22.7936 23.4749 22.6594C23.4725 22.5251 23.4972 22.3917 23.5475 22.2672C23.5978 22.1427 23.6727 22.0296 23.7676 21.9346C23.8626 21.8397 23.9757 21.7648 24.1002 21.7145C24.2247 21.6642 24.3581 21.6395 24.4924 21.6419C24.6266 21.6443 24.7591 21.6736 24.8817 21.7283C25.0044 21.783 25.1148 21.8618 25.2063 21.96L27.873 24.6267C28.0603 24.8142 28.1655 25.0683 28.1655 25.3333C28.1655 25.5983 28.0603 25.8525 27.873 26.04L25.2063 28.7067C25.1148 28.8049 25.0044 28.8837 24.8817 28.9384C24.7591 28.993 24.6266 29.0224 24.4924 29.0248C24.3581 29.0272 24.2247 29.0025 24.1002 28.9522C23.9757 28.9019 23.8626 28.827 23.7676 28.7321C23.6727 28.6371 23.5978 28.524 23.5475 28.3995C23.4972 28.275 23.4725 28.1416 23.4749 28.0073C23.4773 27.873 23.5066 27.7406 23.5613 27.618C23.616 27.4953 23.6948 27.3849 23.793 27.2933L24.753 26.3333H10.4997C8.99678 26.3333 7.55544 25.7363 6.49274 24.6736C5.43003 23.6109 4.83301 22.1696 4.83301 20.6667C4.83301 19.1638 5.43003 17.7224 6.49274 16.6597C7.55544 15.597 8.99678 15 10.4997 15H22.4997C23.4721 15 24.4048 14.6137 25.0924 13.9261C25.78 13.2384 26.1663 12.3058 26.1663 11.3333C26.1663 10.3609 25.78 9.42825 25.0924 8.74061C24.4048 8.05298 23.4721 7.66667 22.4997 7.66667H10.973C10.7409 8.24036 10.3166 8.71547 9.77262 9.01059C9.22867 9.3057 8.59902 9.40245 7.99156 9.28424C7.38411 9.16603 6.83668 8.84022 6.4431 8.36266C6.04951 7.8851 5.83428 7.28552 5.83428 6.66667C5.83428 6.04782 6.04951 5.44824 6.4431 4.97068C6.83668 4.49312 7.38411 4.16732 7.99156 4.04911C8.59902 3.9309 9.22867 4.02764 9.77262 4.32275C10.3166 4.61787 10.7409 5.09298 10.973 5.66667H22.4997Z" fill="#B8A2D6"/>
</svg>
