<svg width="76" height="29" viewBox="0 0 76 29" fill="none" xmlns="http://www.w3.org/2000/svg">
<mask id="mask0_690_2297" style="mask-type:luminance" maskUnits="userSpaceOnUse" x="0" y="0" width="76" height="29">
<path d="M75.4201 0.209473H0.745117V28.8845H75.4201V0.209473Z" fill="white"/>
</mask>
<g mask="url(#mask0_690_2297)">
<path d="M59.6996 3.44189L57.8447 5.25372L59.6731 7.06555L61.5345 5.19752L59.6996 3.44189Z" fill="#8C8C8C"/>
<path d="M13.5216 0.616145L7.86463 4.52083C7.79583 4.60055 7.72301 4.67669 7.64641 4.74896C7.46298 4.99818 7.38141 5.30794 7.41828 5.61519V12.9484C7.41828 13.6097 7.41828 13.5105 7.32571 13.7386C7.20008 14.0461 6.76695 14.4561 6.76695 14.5487V14.8099L10.9461 11.9599C11.0615 11.8754 11.1574 11.767 11.227 11.642C11.2967 11.517 11.3383 11.3785 11.3494 11.2359V3.80668C11.3776 3.58253 11.4535 3.36706 11.5721 3.17483C11.6908 2.9826 11.8494 2.8181 12.0371 2.69247C12.4372 2.36185 12.8373 2.84456 13.105 3.22477L14.9069 5.80035C15.0139 6.08401 15.073 6.38342 15.0821 6.68642C15.0756 6.8953 15.0171 7.09924 14.9121 7.27989C14.8071 7.46055 14.6587 7.61223 14.4804 7.72128L13.0489 8.71316V9.39755C13.3331 9.72817 13.7101 9.84059 14.0011 10.1448C14.2192 10.3563 14.4341 10.4754 14.4341 10.7829V16.6184C14.4376 16.6642 14.4306 16.7103 14.4141 16.7532C14.3975 16.796 14.3716 16.8347 14.3382 16.8663C14.2788 16.9126 14.087 16.8035 13.9812 16.7374L12.6686 15.9802C11.7415 15.4252 10.6841 15.1252 9.60372 15.1108C7.20008 15.1108 6.10901 15.5405 4.79642 16.1952C3.65173 16.7204 2.63603 17.4901 1.8208 18.4501C2.8111 17.8905 3.91085 17.5521 5.0444 17.4582C6.44038 17.2642 7.86281 17.4386 9.1706 17.964C10.036 18.2321 10.8458 18.6544 11.561 19.2105L17.8991 14.9124C18.0234 14.8173 18.1346 14.7061 18.2298 14.5817C18.3388 14.4395 18.3388 13.3915 18.3388 12.5683C18.3388 11.8839 18.1239 10.1613 16.8378 9.64221C16.1978 9.41189 15.5313 9.26304 14.854 9.19918C14.6953 9.19918 14.5234 9.24876 14.3878 9.13966C14.2986 9.13966 14.2225 9.09006 14.2027 9.0041C14.1829 8.91814 14.2523 8.83218 14.3382 8.77266L17.3469 6.73271C17.5939 6.56132 17.7941 6.33087 17.9292 6.06235C18.0643 5.79382 18.1301 5.49575 18.1206 5.1953C18.1206 4.98039 18.1206 4.41833 17.4594 3.47275L15.6905 0.986442C15.3929 0.566549 15.1384 0.209473 14.6326 0.209473C14.2276 0.218921 13.837 0.361883 13.5216 0.616145Z" fill="#8C8C8C"/>
<path d="M6.64678 4.30592L11.6557 0.850884L11.4508 0.632677L10.9945 0.850884C10.449 1.10878 10.1382 0.850884 9.45379 0.649209C8.61382 0.394713 7.74516 0.246975 6.86829 0.209473C6.21696 0.209473 4.10426 0.467361 2.72887 1.42618C2.72887 1.42618 1.86924 2.0213 0.745117 2.80157L0.88398 2.98342L1.18816 2.80157C1.84941 2.40482 3.57858 2.24943 4.24313 2.35853C5.56563 2.58997 6.43187 3.01979 6.64678 3.22808C6.86168 3.43637 6.59057 3.55871 6.43187 3.67112L3.08595 5.98549C2.9463 6.07116 2.83835 6.19999 2.77846 6.35249C2.7331 6.5699 2.71203 6.79168 2.71564 7.01374V13.1634C2.74194 13.4394 2.69992 13.7175 2.59331 13.9734C2.47098 14.304 2.06762 14.6711 2.06762 14.7801V15.0082L5.87642 12.4161C5.97664 12.3616 6.06155 12.2827 6.12336 12.1869C6.18518 12.091 6.22191 11.9811 6.23019 11.8674V5.16885C6.21085 5.04948 6.22027 4.92723 6.25764 4.81222C6.29501 4.69723 6.35928 4.59279 6.4451 4.50761C6.6038 4.35552 6.56081 4.36543 6.66 4.2927" fill="#8C8C8C"/>
<path d="M12.5938 2.36377L13.2251 2.92914V16.7526L12.5938 16.326V2.36377Z" fill="#8C8C8C"/>
<path d="M31.0452 7.75098L28.7573 9.98269L29.8319 11.0142V17.845L31.442 19.3758L33.2175 17.6201L32.3116 16.7572V11.4341L33.5546 10.148L34.768 11.3746V17.6797L36.5468 19.4617L38.2925 17.6797L37.3073 16.701V9.90004L35.1351 7.75098L33.0753 9.75787L31.0452 7.75098Z" fill="#8C8C8C"/>
<path d="M48.4891 9.51038L46.7633 10.6808C46.6927 10.726 46.6141 10.7574 46.5319 10.7734C46.4549 10.7752 46.3782 10.7663 46.3038 10.7469L43.4967 9.45087C43.4967 9.45087 43.3016 9.36821 43.2653 9.39135C43.2423 9.48315 43.2334 9.57791 43.2388 9.67239V15.9543C43.2325 16.0302 43.2415 16.1066 43.2653 16.1791C43.2981 16.2389 43.3381 16.2944 43.3843 16.3444L46.1186 17.5743C46.1857 17.6162 46.2646 17.6347 46.3434 17.6272C46.4328 17.6162 46.5192 17.5881 46.598 17.5446L47.4973 16.9891C47.5831 16.918 47.6871 16.8723 47.7974 16.8572C47.9079 16.842 48.0203 16.8579 48.1222 16.9031C48.1486 16.9329 48.1222 16.9891 48.1222 17.042L45.2094 19.039C45.076 19.1062 44.9334 19.153 44.7862 19.1779C44.6193 19.1832 44.4538 19.1445 44.3067 19.0655L40.8616 17.5313C40.813 17.5163 40.7682 17.4911 40.73 17.4575C40.6918 17.424 40.6612 17.3826 40.6401 17.3363C40.6123 17.2764 40.601 17.2102 40.6071 17.1445V9.67569C40.6015 9.60031 40.6128 9.52464 40.6401 9.45417C40.671 9.39311 40.71 9.33642 40.7558 9.28555L44.0257 7.8341C44.1471 7.77525 44.281 7.74688 44.4159 7.75145C44.5439 7.75051 44.6706 7.77878 44.7862 7.8341L48.4891 9.51038Z" fill="#8C8C8C"/>
<path d="M24.7269 17.9541V17.9871L21.6819 16.5919L21.5529 16.496L21.4637 16.4299C21.4637 16.4299 21.4009 16.3936 21.4009 16.3736C21.3377 16.2629 21.2984 16.1402 21.2852 16.0133V12.9947V12.9715L24.3071 14.3371C24.4333 14.3834 24.5411 14.4692 24.6146 14.5817C24.6905 14.6747 24.7294 14.7924 24.7236 14.9123V15.0149L24.7269 17.9541ZM28.4828 17.8747L26.9289 16.3373V9.70167C26.9387 9.62786 26.9296 9.55278 26.9025 9.48346C26.8603 9.40561 26.8017 9.3379 26.7305 9.28508L23.5731 7.83364C23.4957 7.78701 23.4086 7.75873 23.3186 7.75098C23.2194 7.75496 23.1229 7.78336 23.0375 7.83364L19.9594 9.25533C19.9594 9.25533 19.7081 9.39418 19.7378 9.4537C19.8238 9.67522 20.1577 9.48346 20.3032 9.39418C20.6107 9.34129 20.819 9.16937 21.034 9.14622C21.1146 9.11851 21.2002 9.10836 21.2852 9.11646C21.3916 9.11242 21.4977 9.1316 21.5959 9.17267L24.4194 10.4423C24.5142 10.4789 24.5927 10.5481 24.641 10.6373C24.6942 10.7005 24.7244 10.7797 24.7269 10.8622V12.4261L23.0111 11.6126C22.9114 11.5725 22.8069 11.5458 22.7002 11.5334C22.5874 11.5473 22.4765 11.5739 22.3696 11.6126L19.2254 13.0211C19.1493 13.0575 19.1493 13.1369 19.1163 13.2162C19.0814 13.285 19.0622 13.3607 19.0601 13.4377L19.0865 17.2895C19.0811 17.3888 19.1103 17.4871 19.1691 17.5672C19.2023 17.6406 19.2611 17.6994 19.3345 17.7325L22.3927 19.1277C22.5131 19.1851 22.6479 19.2047 22.7796 19.184C22.8684 19.1828 22.9562 19.1636 23.0375 19.1277L25.5171 17.9838L26.9289 19.4088L28.4828 17.8747Z" fill="#8C8C8C"/>
<path d="M51.8493 3.44189L49.2275 6.03069V18.1614L50.9699 19.8839L52.8214 18.0721L51.9552 17.219C51.9275 17.1813 51.9073 17.1387 51.8956 17.0934C51.8654 17.0223 51.8496 16.9458 51.8493 16.8686V11.9093C51.8438 11.8317 51.8551 11.7539 51.8824 11.681C51.8996 11.6116 51.9362 11.5485 51.9882 11.4992L52.9107 10.5834L53.6181 11.2976C53.6705 11.3409 53.7143 11.3936 53.7471 11.4529C53.7831 11.5298 53.8034 11.6129 53.8066 11.6977V22.2446L56.4516 19.6492V10.4512C56.4674 10.3553 56.4617 10.257 56.4351 10.1635C56.4197 10.1057 56.3889 10.0531 56.3459 10.0114L54.4745 8.19629L52.0411 10.6396C52.0048 10.6759 51.9617 10.7355 51.9056 10.7124C51.8493 10.6892 51.8593 10.633 51.8593 10.5735L51.8493 3.44189Z" fill="#8C8C8C"/>
<path d="M59.6996 7.75098L57.8447 9.58925L58.5688 10.2505C58.6349 10.3001 58.6151 10.3662 58.6349 10.4423C58.6433 10.5446 58.6433 10.6475 58.6349 10.7498V17.6797L60.4038 19.4089L62.2685 17.6201L61.3957 16.701C61.356 16.6613 61.3593 16.6183 61.3395 16.5622C61.3058 16.4918 61.2867 16.4153 61.2833 16.3373V9.28507L59.6996 7.75098Z" fill="#8C8C8C"/>
<path d="M65.8462 3.44189L63.231 6.0373V17.8869L64.9833 19.6128L66.7521 17.8142L65.9553 16.981C65.9052 16.9362 65.8677 16.8793 65.8462 16.8156C65.8313 16.7314 65.8313 16.6453 65.8462 16.5611V3.44189Z" fill="#8C8C8C"/>
<path d="M70.7899 9.62243V14.0132C70.7808 14.078 70.7961 14.144 70.8329 14.1983C70.8825 14.2446 70.9585 14.1983 71.018 14.1487L73.3622 12.565C73.3836 12.5499 73.4007 12.5295 73.4118 12.5057C73.4228 12.4819 73.4274 12.4555 73.425 12.4294C73.425 12.3468 73.382 12.3038 73.3324 12.2442L70.9254 9.5001C70.9143 9.48205 70.8987 9.46712 70.8802 9.45672C70.8617 9.44631 70.8409 9.44076 70.8197 9.44059C70.8034 9.5 70.7934 9.56095 70.7899 9.62243ZM68.7367 9.35132L72.119 7.79407C72.2034 7.74981 72.3015 7.73918 72.3934 7.76432C72.4589 7.7741 72.5186 7.80693 72.562 7.85689L75.7725 11.5599L70.9585 14.7702C70.9046 14.8026 70.861 14.8496 70.8329 14.9058C70.7988 14.9721 70.7839 15.0465 70.7899 15.1207V16.0531C70.7789 16.1269 70.7954 16.2022 70.8362 16.2647C70.8858 16.311 70.8858 16.3341 70.9288 16.3539L73.7358 17.6367C73.8217 17.6765 73.8713 17.7195 73.9639 17.7095C74.0328 17.7055 74.0987 17.6801 74.1524 17.6367L75.3261 16.9326C75.3558 16.9326 75.6766 16.6614 75.8187 16.8565C75.7876 16.9786 75.7166 17.0869 75.617 17.164L72.691 19.1312C72.5591 19.1935 72.4166 19.2306 72.2711 19.2404C72.0928 19.2307 71.9163 19.1996 71.7454 19.1478L68.8491 17.8252C68.7772 17.7926 68.7163 17.7398 68.6739 17.6732C68.644 17.6153 68.6251 17.5526 68.6177 17.488V9.62243C68.6184 9.57349 68.6346 9.52603 68.664 9.48688C68.6904 9.43067 68.6938 9.37446 68.7532 9.35132" fill="#8C8C8C"/>
<path d="M1.8208 22.834H2.89864V28.4116H1.8208V22.834Z" fill="#8C8C8C"/>
<path d="M10.7468 22.834V28.4116H9.65581L7.20918 24.54V28.4116H6.13135V22.834H7.22572L9.66903 26.7089V22.834H10.7468Z" fill="#8C8C8C"/>
<path d="M17.9119 22.834H19.0592L17.0127 28.4116H15.7132L13.6733 22.834H14.8205L16.3679 27.3139L17.9119 22.834Z" fill="#8C8C8C"/>
<path d="M26.2129 23.7367H23.3695V25.155H25.4954V26.0213H23.3695V27.5124H26.2129V28.4116H22.2949V22.834H26.2129V23.7367Z" fill="#8C8C8C"/>
<path d="M31.0519 22.8354C31.4389 22.8223 31.8234 22.9029 32.1727 23.0701C32.4496 23.2122 32.6793 23.4315 32.8339 23.7016C32.9793 23.9635 33.0545 24.2584 33.0521 24.5579C33.0518 24.7691 33.0137 24.9784 32.9397 25.1762C32.8631 25.3839 32.7438 25.5732 32.5893 25.7316C32.4152 25.9097 32.2041 26.0474 31.971 26.135C31.6772 26.2442 31.3652 26.2959 31.0519 26.2871H29.8319V28.413H28.7573V22.8354H31.0519ZM31.9511 24.5579C31.9564 24.4482 31.9392 24.3384 31.9006 24.2355C31.8619 24.1326 31.8026 24.0387 31.7264 23.9595C31.5279 23.797 31.2744 23.7176 31.0188 23.738H29.8319V25.3911H31.0188C31.1992 25.3979 31.3789 25.364 31.5444 25.2919C31.675 25.233 31.7829 25.1331 31.8519 25.0076C31.9217 24.8682 31.9557 24.7137 31.9511 24.5579ZM31.6569 25.9135L33.1645 28.3998H31.9611L30.5163 25.9135H31.6569Z" fill="#8C8C8C"/>
<path d="M37.3033 26.8874C37.3279 27.0302 37.3881 27.1645 37.4786 27.2775C37.5729 27.3928 37.6945 27.4826 37.8324 27.5387C37.9962 27.5987 38.1705 27.6257 38.3449 27.6181C38.5969 27.6395 38.8477 27.5638 39.0458 27.4065C39.1196 27.3433 39.1787 27.2646 39.2186 27.176C39.2587 27.0875 39.2786 26.9912 39.2772 26.894C39.2818 26.7476 39.2312 26.6046 39.1351 26.494C39.0208 26.3766 38.8835 26.2843 38.7317 26.2229C38.535 26.1408 38.3341 26.0691 38.13 26.008C37.9183 25.9452 37.7067 25.8756 37.4985 25.803C37.2981 25.7328 37.1072 25.6384 36.9297 25.522C36.7642 25.412 36.628 25.2633 36.533 25.0888C36.4291 24.8842 36.3778 24.6569 36.3843 24.4276C36.3763 24.1198 36.4641 23.8171 36.6355 23.5613C36.808 23.3171 37.0482 23.1286 37.3265 23.0191C37.9322 22.7893 38.5982 22.773 39.2143 22.9728C39.4615 23.0591 39.6872 23.1978 39.8756 23.3794C40.0569 23.5658 40.1918 23.7925 40.2691 24.0407L39.2772 24.3118C39.2509 24.196 39.1897 24.0911 39.102 24.0109C39.0061 23.922 38.8938 23.8523 38.7713 23.806C38.6405 23.7559 38.5015 23.7302 38.3614 23.7299C38.2114 23.7241 38.0618 23.7488 37.9217 23.8026C37.7919 23.8474 37.6774 23.9276 37.591 24.0341C37.512 24.1336 37.4698 24.2575 37.472 24.3845C37.4683 24.4495 37.4782 24.5145 37.501 24.5753C37.5237 24.6362 37.5589 24.6917 37.6042 24.7383C37.7094 24.8348 37.8317 24.9111 37.9646 24.9632C38.1135 25.0227 38.2953 25.0821 38.4671 25.1417C38.6391 25.2012 38.907 25.2772 39.1284 25.36C39.3463 25.4381 39.554 25.5424 39.7467 25.6707C39.9296 25.7945 40.0832 25.9571 40.1963 26.1468C40.3193 26.3677 40.3788 26.6182 40.3683 26.8709C40.3711 27.1641 40.2957 27.4528 40.15 27.7073C39.9912 27.9658 39.7617 28.1734 39.4888 28.3057C39.1442 28.4647 38.7671 28.5406 38.3878 28.5273C38.0506 28.5321 37.7149 28.4785 37.3959 28.3686C37.1196 28.2739 36.8701 28.114 36.6685 27.9025C36.4768 27.6995 36.3472 27.446 36.2949 27.1717L37.3033 26.8874Z" fill="#8C8C8C"/>
<path d="M43.8408 22.834H44.9154V28.4116H43.8408V22.834Z" fill="#8C8C8C"/>
<path d="M50.9875 28.5405C50.6098 28.5426 50.235 28.473 49.8831 28.3356C49.5441 28.2019 49.2357 28.0014 48.976 27.7457C48.7164 27.4901 48.5111 27.1846 48.3722 26.8478C48.0725 26.1054 48.0725 25.2758 48.3722 24.5334C48.5117 24.1952 48.7174 23.8883 48.9773 23.6308C49.2365 23.3755 49.5447 23.1753 49.8831 23.0423C50.5966 22.7646 51.3883 22.7646 52.1016 23.0423C52.4405 23.1776 52.749 23.3792 53.009 23.6353C53.2691 23.8913 53.4753 24.1966 53.616 24.5334C53.9112 25.2766 53.9112 26.1045 53.616 26.8478C53.4749 27.1858 53.2668 27.4917 53.0043 27.747C52.7451 28.0008 52.4384 28.2008 52.1016 28.3356C51.7466 28.4739 51.3685 28.5434 50.9875 28.5405ZM50.9875 27.6248C51.3031 27.6314 51.6139 27.5477 51.8835 27.3834C52.1459 27.2223 52.3606 26.994 52.505 26.7221C52.6553 26.406 52.7331 26.0604 52.7331 25.7104C52.7331 25.3604 52.6553 25.0148 52.505 24.6987C52.3615 24.4261 52.1466 24.1976 51.8835 24.0374C51.6139 23.8727 51.3032 23.788 50.9875 23.7928C50.6663 23.7863 50.3499 23.8711 50.0749 24.0374C49.8119 24.1967 49.5979 24.4256 49.4567 24.6987C49.3017 25.0129 49.2257 25.3602 49.2351 25.7104C49.2279 26.0604 49.3038 26.4072 49.4567 26.7221C49.5972 26.9957 49.8114 27.2248 50.0749 27.3834C50.3522 27.5536 50.672 27.6419 50.9974 27.6379L50.9875 27.6248Z" fill="#8C8C8C"/>
<path d="M61.3845 22.834V28.4116H60.2902L57.8436 24.54V28.4116H56.769V22.834H57.8601L60.3068 26.7089V22.834H61.3845Z" fill="#8C8C8C"/>
<path d="M68.2278 23.7367H65.3812V25.155H67.5005V26.0213H65.3712V27.5124H68.2179V28.4116H64.3066V22.834H68.2278V23.7367Z" fill="#8C8C8C"/>
<path d="M71.8078 26.8775C71.8323 27.0202 71.8926 27.1545 71.983 27.2676C72.0786 27.383 72.2013 27.4727 72.3401 27.5288C72.5013 27.5914 72.6731 27.6217 72.8461 27.6181C73.0979 27.6379 73.348 27.5624 73.5469 27.4065C73.6208 27.3434 73.6798 27.2646 73.7198 27.1761C73.7599 27.0875 73.7798 26.9912 73.7784 26.894C73.7818 26.7471 73.7299 26.6043 73.6329 26.494C73.5193 26.3759 73.3818 26.2834 73.2295 26.2229C73.033 26.1404 72.8321 26.0686 72.6278 26.008C72.4162 25.9452 72.2046 25.8757 71.9963 25.803C71.7967 25.7335 71.6067 25.6391 71.4309 25.522C71.2637 25.4131 71.1261 25.2642 71.0308 25.0888C70.9296 24.8834 70.8797 24.6566 70.8853 24.4276C70.8759 24.1196 70.9639 23.8165 71.1367 23.5613C71.3079 23.3172 71.5471 23.1287 71.8243 23.0191C72.43 22.7893 73.096 22.773 73.7122 22.9728C73.9594 23.0591 74.185 23.1978 74.3735 23.3795C74.5561 23.565 74.6911 23.7918 74.7669 24.0407L73.7585 24.3019C73.7322 24.1861 73.6711 24.0811 73.5833 24.0011C73.4884 23.9107 73.3758 23.8409 73.2527 23.7961C73.1218 23.7457 72.9829 23.72 72.8427 23.72C72.6927 23.7148 72.5433 23.7395 72.4029 23.7928C72.2733 23.8375 72.1587 23.9177 72.0724 24.0242C71.9933 24.1237 71.9512 24.2476 71.9533 24.3747C71.9501 24.4398 71.9605 24.505 71.9838 24.5658C72.0071 24.6268 72.0429 24.6822 72.0889 24.7285C72.1924 24.8256 72.3136 24.9019 72.446 24.9532C72.5947 25.0128 72.7765 25.0723 72.9485 25.1318C73.1205 25.1913 73.3882 25.2674 73.6098 25.35C73.828 25.4275 74.0357 25.5318 74.228 25.6608C74.4117 25.7837 74.5655 25.9465 74.6777 26.137C74.8006 26.3578 74.8601 26.6084 74.8496 26.8609C74.8523 27.1542 74.777 27.4429 74.6314 27.6975C74.4734 27.9567 74.2437 28.1645 73.9701 28.2959C73.6257 28.4554 73.2485 28.5313 72.8691 28.5175C72.5318 28.5229 72.1961 28.4691 71.8773 28.3587C71.5999 28.2642 71.3493 28.1042 71.1466 27.8925C70.9561 27.6888 70.8265 27.4356 70.7729 27.1619L71.8078 26.8775Z" fill="#8C8C8C"/>
</g>
</svg>
