<svg width="32" height="33" viewBox="0 0 32 33" fill="none" xmlns="http://www.w3.org/2000/svg">
<path d="M16.0001 3.16675V5.83341M24.0001 3.16675V5.83341M12.0001 3.16675V7.16675M20.0001 3.16675V7.16675M2.66675 16.5001H5.33341M2.66675 24.5001H5.33341M2.66675 20.5001H6.66675M2.66675 12.5001H6.66675M2.66675 8.50008V25.1667C2.66675 27.0387 2.66675 27.9761 3.11608 28.6481C3.31069 28.9394 3.56079 29.1895 3.85208 29.3841C4.52408 29.8334 5.46141 29.8334 7.33341 29.8334C9.20541 29.8334 10.1427 29.8334 10.8147 29.3841C11.106 29.1895 11.3561 28.9394 11.5507 28.6481C12.0001 27.9761 12.0001 27.0387 12.0001 25.1667V15.1667C12.0001 13.9094 12.0001 13.2814 12.3907 12.8907C12.7814 12.5001 13.4094 12.5001 14.6667 12.5001H24.6667C26.5387 12.5001 27.4761 12.5001 28.1481 12.0507C28.4394 11.8561 28.6895 11.606 28.8841 11.3147C29.3334 10.6427 29.3334 9.70541 29.3334 7.83341C29.3334 5.96141 29.3334 5.02408 28.8841 4.35208C28.6895 4.06079 28.4394 3.81069 28.1481 3.61608C27.4761 3.16675 26.5387 3.16675 24.6667 3.16675H8.00008C5.48541 3.16675 4.22941 3.16675 3.44808 3.94808C2.66675 4.72941 2.66675 5.98541 2.66675 8.50008Z" stroke="white" stroke-width="2" stroke-linecap="round"/>
</svg>
