<svg width="33" height="32" viewBox="0 0 33 32" fill="none" xmlns="http://www.w3.org/2000/svg">
<path d="M3.16699 16.0002C3.16699 10.9722 3.16699 8.4575 4.72966 6.89616C6.29099 5.3335 8.80566 5.3335 13.8337 5.3335H19.167C24.195 5.3335 26.7097 5.3335 28.271 6.89616C29.8337 8.4575 29.8337 10.9722 29.8337 16.0002V18.6668C29.8337 23.6948 29.8337 26.2095 28.271 27.7708C26.7097 29.3335 24.195 29.3335 19.167 29.3335H13.8337C8.80566 29.3335 6.29099 29.3335 4.72966 27.7708C3.16699 26.2095 3.16699 23.6948 3.16699 18.6668V16.0002Z" stroke="#B8A2D6" stroke-width="2"/>
<path d="M9.83398 5.3335V3.3335M23.1673 5.3335V3.3335M3.83398 12.0002H29.1673" stroke="#B8A2D6" stroke-width="2" stroke-linecap="round"/>
<path d="M24.5 22.6667C24.5 23.0203 24.3595 23.3594 24.1095 23.6095C23.8594 23.8595 23.5203 24 23.1667 24C22.813 24 22.4739 23.8595 22.2239 23.6095C21.9738 23.3594 21.8333 23.0203 21.8333 22.6667C21.8333 22.313 21.9738 21.9739 22.2239 21.7239C22.4739 21.4738 22.813 21.3333 23.1667 21.3333C23.5203 21.3333 23.8594 21.4738 24.1095 21.7239C24.3595 21.9739 24.5 22.313 24.5 22.6667ZM24.5 17.3333C24.5 17.687 24.3595 18.0261 24.1095 18.2761C23.8594 18.5262 23.5203 18.6667 23.1667 18.6667C22.813 18.6667 22.4739 18.5262 22.2239 18.2761C21.9738 18.0261 21.8333 17.687 21.8333 17.3333C21.8333 16.9797 21.9738 16.6406 22.2239 16.3905C22.4739 16.1405 22.813 16 23.1667 16C23.5203 16 23.8594 16.1405 24.1095 16.3905C24.3595 16.6406 24.5 16.9797 24.5 17.3333ZM17.8333 22.6667C17.8333 23.0203 17.6929 23.3594 17.4428 23.6095C17.1928 23.8595 16.8536 24 16.5 24C16.1464 24 15.8072 23.8595 15.5572 23.6095C15.3071 23.3594 15.1667 23.0203 15.1667 22.6667C15.1667 22.313 15.3071 21.9739 15.5572 21.7239C15.8072 21.4738 16.1464 21.3333 16.5 21.3333C16.8536 21.3333 17.1928 21.4738 17.4428 21.7239C17.6929 21.9739 17.8333 22.313 17.8333 22.6667ZM17.8333 17.3333C17.8333 17.687 17.6929 18.0261 17.4428 18.2761C17.1928 18.5262 16.8536 18.6667 16.5 18.6667C16.1464 18.6667 15.8072 18.5262 15.5572 18.2761C15.3071 18.0261 15.1667 17.687 15.1667 17.3333C15.1667 16.9797 15.3071 16.6406 15.5572 16.3905C15.8072 16.1405 16.1464 16 16.5 16C16.8536 16 17.1928 16.1405 17.4428 16.3905C17.6929 16.6406 17.8333 16.9797 17.8333 17.3333ZM11.1667 22.6667C11.1667 23.0203 11.0262 23.3594 10.7761 23.6095C10.5261 23.8595 10.187 24 9.83333 24C9.47971 24 9.14057 23.8595 8.89052 23.6095C8.64048 23.3594 8.5 23.0203 8.5 22.6667C8.5 22.313 8.64048 21.9739 8.89052 21.7239C9.14057 21.4738 9.47971 21.3333 9.83333 21.3333C10.187 21.3333 10.5261 21.4738 10.7761 21.7239C11.0262 21.9739 11.1667 22.313 11.1667 22.6667ZM11.1667 17.3333C11.1667 17.687 11.0262 18.0261 10.7761 18.2761C10.5261 18.5262 10.187 18.6667 9.83333 18.6667C9.47971 18.6667 9.14057 18.5262 8.89052 18.2761C8.64048 18.0261 8.5 17.687 8.5 17.3333C8.5 16.9797 8.64048 16.6406 8.89052 16.3905C9.14057 16.1405 9.47971 16 9.83333 16C10.187 16 10.5261 16.1405 10.7761 16.3905C11.0262 16.6406 11.1667 16.9797 11.1667 17.3333Z" fill="#B8A2D6"/>
</svg>
