<svg width="56" height="56" viewBox="0 0 56 56" fill="none" xmlns="http://www.w3.org/2000/svg">
<path opacity="0.5" d="M28.0001 51.3334C17.0007 51.3334 11.5011 51.3334 8.08275 47.9151C4.66675 44.5014 4.66675 38.9994 4.66675 28.0001C4.66675 17.0007 4.66675 11.5011 8.08275 8.08275C11.5034 4.66675 17.0007 4.66675 28.0001 4.66675C38.9994 4.66675 44.4991 4.66675 47.9151 8.08275C51.3334 11.5034 51.3334 17.0007 51.3334 28.0001C51.3334 38.9994 51.3334 44.4991 47.9151 47.9151C44.5014 51.3334 38.9994 51.3334 28.0001 51.3334Z" fill="#5820E7"/>
<path d="M16.3333 33.25C16.7974 33.25 17.2425 33.4344 17.5707 33.7626C17.8989 34.0908 18.0833 34.5359 18.0833 35V42C18.0833 42.4641 17.8989 42.9092 17.5707 43.2374C17.2425 43.5656 16.7974 43.75 16.3333 43.75C15.8691 43.75 15.424 43.5656 15.0958 43.2374C14.7676 42.9092 14.5833 42.4641 14.5833 42V35C14.5833 34.5359 14.7676 34.0908 15.0958 33.7626C15.424 33.4344 15.8691 33.25 16.3333 33.25ZM27.9999 26.25C28.464 26.25 28.9092 26.4344 29.2374 26.7626C29.5655 27.0908 29.7499 27.5359 29.7499 28V42C29.7499 42.4641 29.5655 42.9092 29.2374 43.2374C28.9092 43.5656 28.464 43.75 27.9999 43.75C27.5358 43.75 27.0907 43.5656 26.7625 43.2374C26.4343 42.9092 26.2499 42.4641 26.2499 42V28C26.2499 27.5359 26.4343 27.0908 26.7625 26.7626C27.0907 26.4344 27.5358 26.25 27.9999 26.25ZM39.6666 19.25C40.1307 19.25 40.5758 19.4344 40.904 19.7626C41.2322 20.0908 41.4166 20.5359 41.4166 21V42C41.4166 42.4641 41.2322 42.9092 40.904 43.2374C40.5758 43.5656 40.1307 43.75 39.6666 43.75C39.2025 43.75 38.7573 43.5656 38.4291 43.2374C38.101 42.9092 37.9166 42.4641 37.9166 42V21C37.9166 20.5359 38.101 20.0908 38.4291 19.7626C38.7573 19.4344 39.2025 19.25 39.6666 19.25Z" fill="#5820E7"/>
</svg>
