<svg width="32" height="33" viewBox="0 0 32 33" fill="none" xmlns="http://www.w3.org/2000/svg">
<path d="M21.3333 5.83301C24.2333 5.84901 25.804 5.97834 26.828 7.00234C28 8.17434 28 10.0597 28 13.8303V21.8303C28 25.6023 28 27.4877 26.828 28.6597C25.6573 29.8303 23.7707 29.8303 20 29.8303H12C8.22933 29.8303 6.34267 29.8303 5.172 28.6597C4 27.4863 4 25.6023 4 21.8303V13.8303C4 10.0597 4 8.17434 5.172 7.00234C6.196 5.97834 7.76667 5.84901 10.6667 5.83301" stroke="#372B47" stroke-width="2"/>
<path d="M12 18.3665L14.2853 20.4998L20 15.1665" stroke="#372B47" stroke-width="2" stroke-linecap="round" stroke-linejoin="round"/>
<path d="M10.667 5.1665C10.667 4.63607 10.8777 4.12736 11.2528 3.75229C11.6279 3.37722 12.1366 3.1665 12.667 3.1665H19.3337C19.8641 3.1665 20.3728 3.37722 20.7479 3.75229C21.1229 4.12736 21.3337 4.63607 21.3337 5.1665V6.49984C21.3337 7.03027 21.1229 7.53898 20.7479 7.91405C20.3728 8.28912 19.8641 8.49984 19.3337 8.49984H12.667C12.1366 8.49984 11.6279 8.28912 11.2528 7.91405C10.8777 7.53898 10.667 7.03027 10.667 6.49984V5.1665Z" stroke="#372B47" stroke-width="2"/>
</svg>
