<svg width="48" height="48" viewBox="0 0 48 48" fill="none" xmlns="http://www.w3.org/2000/svg">
<path opacity="0.5" d="M32 8.00391C36.35 8.02791 38.706 8.22191 40.242 9.75791C42 11.5159 42 14.3439 42 19.9999V31.9999C42 37.6579 42 40.4859 40.242 42.2439C38.486 43.9999 35.656 43.9999 30 43.9999H18C12.344 43.9999 9.514 43.9999 7.758 42.2439C6 40.4839 6 37.6579 6 31.9999V19.9999C6 14.3439 6 11.5159 7.758 9.75791C9.294 8.22191 11.65 8.02791 16 8.00391" stroke="#B8A2D6" stroke-width="2"/>
<path d="M16 28H32M14 21H34M18 35H30" stroke="#B8A2D6" stroke-width="2" stroke-linecap="round"/>
<path d="M16 7C16 6.20435 16.3161 5.44129 16.8787 4.87868C17.4413 4.31607 18.2044 4 19 4H29C29.7956 4 30.5587 4.31607 31.1213 4.87868C31.6839 5.44129 32 6.20435 32 7V9C32 9.79565 31.6839 10.5587 31.1213 11.1213C30.5587 11.6839 29.7956 12 29 12H19C18.2044 12 17.4413 11.6839 16.8787 11.1213C16.3161 10.5587 16 9.79565 16 9V7Z" stroke="#B8A2D6" stroke-width="2"/>
</svg>
