<svg width="32" height="32" viewBox="0 0 32 32" fill="none" xmlns="http://www.w3.org/2000/svg">
<path d="M27.625 17.333C27.625 18.9089 27.3243 20.4693 26.7401 21.9252C26.1559 23.3811 25.2996 24.704 24.2201 25.8183C23.1406 26.9326 21.8591 27.8165 20.4487 28.4196C19.0383 29.0226 17.5266 29.333 16 29.333C14.4734 29.333 12.9617 29.0226 11.5513 28.4196C10.1409 27.8165 8.85936 26.9326 7.77988 25.8183C6.7004 24.704 5.84411 23.3811 5.2599 21.9252C4.67569 20.4693 4.375 18.9089 4.375 17.333C4.375 14.1504 5.59977 11.0982 7.77988 8.84773C9.95999 6.59729 12.9169 5.33301 16 5.33301C19.0831 5.33301 22.04 6.59729 24.2201 8.84773C26.4002 11.0982 27.625 14.1504 27.625 17.333Z" stroke="#B8A2D6" stroke-width="2"/>
<path d="M16 17.3333V12" stroke="#B8A2D6" stroke-width="2" stroke-linecap="round" stroke-linejoin="round"/>
<path d="M13.417 2.6665H18.5837" stroke="#B8A2D6" stroke-width="2" stroke-linecap="round"/>
</svg>
