<svg width="80" height="80" viewBox="0 0 80 80" fill="none" xmlns="http://www.w3.org/2000/svg">
<path d="M36.1685 33.542L36.7065 30.0936C36.7617 29.7556 37.0513 29.5073 37.3893 29.5073H40.755C41.0929 29.5073 41.3757 29.7487 41.4378 30.0798L42.0309 33.5489C42.0723 33.7765 42.2171 33.9628 42.4241 34.0593L45.3484 35.3835C45.5898 35.4939 45.8656 35.4525 46.0725 35.287L48.9693 32.9006C49.2451 32.673 49.6452 32.6937 49.9003 32.9489L52.6039 35.6801C52.8522 35.9284 52.8729 36.3215 52.6522 36.5974L50.2521 39.5976C50.1004 39.7838 50.059 40.039 50.1417 40.2666L51.1763 43.1012C51.259 43.3357 51.4659 43.5012 51.7073 43.5426L55.5558 44.2047C55.8869 44.2599 56.1283 44.5496 56.1283 44.8875V48.1222C56.1283 48.4601 55.8869 48.7498 55.5489 48.805L51.9487 49.405C51.7211 49.4464 51.528 49.5912 51.4315 49.805L50.3004 52.3431C50.2038 52.5638 50.2245 52.819 50.3624 53.019L52.5419 56.1295C52.7419 56.4123 52.7005 56.7985 52.4453 57.033L49.5831 59.6815C49.3417 59.9022 48.9762 59.9297 48.7141 59.7366L45.8449 57.6813C45.6449 57.5365 45.3897 57.5158 45.169 57.6124L42.5689 58.7504C42.3551 58.8469 42.2034 59.04 42.162 59.2676L41.5619 62.7989C41.5068 63.1299 41.2171 63.3713 40.8791 63.3713H37.6169C37.2927 63.3713 37.01 63.1437 36.941 62.8265L36.1685 59.2538C36.1202 59.0331 35.9685 58.8538 35.7616 58.7642L32.989 57.5986C32.7752 57.5089 32.5338 57.5296 32.3407 57.6607L29.1405 59.7573C28.8578 59.9435 28.4922 59.8953 28.2577 59.6539L25.8231 57.0675C25.5886 56.8192 25.5748 56.4399 25.7817 56.1709L28.2026 53.0397C28.3543 52.8397 28.3888 52.5707 28.2853 52.3431L27.1611 49.7705C27.0646 49.5498 26.8645 49.3981 26.63 49.3636L22.7884 48.8119C22.4505 48.7636 22.1953 48.4739 22.1953 48.1291V44.9013C22.1953 44.5703 22.4298 44.2806 22.7609 44.2254L26.3197 43.5702C26.5404 43.5288 26.7266 43.384 26.8232 43.184L28.1612 40.2872C28.2646 40.0665 28.2439 39.8045 28.0991 39.6045L26.03 36.6112C25.8438 36.3422 25.8714 35.9698 26.1059 35.7353L28.3888 33.4041C28.6302 33.1558 29.0095 33.1282 29.2854 33.3282L32.0579 35.3559C32.258 35.5008 32.52 35.5284 32.7476 35.4318L35.7547 34.0938C35.9685 33.9972 36.1202 33.8041 36.1547 33.5696L36.1685 33.542Z" fill="#F05023"/>
<path d="M45.6104 49.0049C45.0656 48.7083 44.4931 48.4738 43.9 48.2876C43.3413 46.7358 42.7827 45.1909 42.2378 43.639C41.5757 41.7769 40.9688 39.8733 40.217 38.0456C40.2101 38.0249 40.1963 38.0111 40.1825 37.9973C40.1756 37.9697 40.1756 37.9491 40.1618 37.9215C39.479 36.5283 37.741 36.5007 37.0927 37.9215C36.6927 38.7905 36.3961 39.7147 36.0651 40.6044C35.0374 43.3976 34.0443 46.2047 33.0442 49.0049C32.5821 50.3084 32.1131 51.6188 31.6372 52.9223C31.4372 53.481 32.2993 53.8258 32.5821 53.3223C34.5753 49.7497 38.6238 48.2324 42.5344 49.0118C42.7137 49.0462 42.8999 49.0876 43.0999 49.1359C43.2103 49.4463 43.3275 49.7566 43.4379 50.067C43.7552 50.936 43.9828 51.943 44.5276 52.7085C45.3414 53.8327 47.2036 53.9707 47.8657 52.6051C48.6451 51.0119 46.8036 49.6532 45.6104 49.0118V49.0049ZM38.7135 47.9014C36.7961 48.2048 35.0581 49.0531 33.6649 50.3153C34.3408 48.4324 35.0098 46.5495 35.6857 44.6667C36.2306 43.1425 36.7823 41.6251 37.341 40.1078C37.5755 39.4733 38.3893 36.68 39.2514 38.4112C40.0515 40.3768 40.6998 42.4183 41.4102 44.4184C41.7757 45.4529 42.1413 46.4875 42.5137 47.522C42.5689 47.6737 42.6241 47.8255 42.6792 47.9703C41.3688 47.7151 40.0101 47.6806 38.7066 47.8876L38.7135 47.9014ZM45.4932 52.2533C44.8862 51.6395 44.6655 50.4325 44.3828 49.6463C44.369 49.6049 44.3483 49.5566 44.3345 49.5083C45.3759 49.8946 46.3898 50.4808 46.8381 51.3222C47.3623 52.3016 46.2105 52.9706 45.4932 52.2533Z" fill="white"/>
<path d="M24.5546 51.9429C21.989 52.4257 18.7957 52.2119 16.2162 51.2946C12.1539 49.8532 9.49862 45.9564 9.40206 41.6941C9.34688 39.2526 10.34 36.9145 11.9953 35.142C12.5816 34.5144 13.2368 33.9488 13.9402 33.4522C14.4644 33.0798 15.4852 32.7625 15.6438 32.0935C15.7128 31.8039 15.699 31.4797 15.7404 31.1831C16.5197 26.238 19.7544 22.0654 24.2305 19.8721C29.7274 17.1754 36.8174 18.6859 41.1901 22.7964C41.3211 22.9206 41.5142 22.9827 41.6936 22.9275C44.4592 22.0516 47.8732 22.1619 50.3906 23.6517C51.5148 24.3138 52.2873 25.0311 53.2321 26.0311C54.646 27.5277 55.8392 29.3899 55.9633 31.4935C55.984 31.8383 56.2806 32.0728 56.6185 31.9901C60.4877 31.0866 65.4259 31.9556 67.8399 35.411C69.4193 37.6663 70.1159 40.9147 69.7779 43.639C69.5641 45.3701 68.6813 47.3151 67.3985 48.6807C64.1914 52.1085 59.0325 52.4257 54.646 52.0257C53.9839 51.9636 53.9839 52.9982 54.646 53.0602C58.9704 53.4534 63.819 53.1154 67.2881 50.2049C69.0744 48.7083 70.3021 46.5564 70.7159 44.2597C71.1987 41.563 70.6331 38.4525 69.4055 36.0317C67.9571 33.1694 65.2052 31.3969 62.0809 30.8797C60.2119 30.5693 58.191 30.5624 56.3358 30.9969L56.991 31.4935C56.791 27.9692 54.0184 24.7207 51.1148 22.8861C48.3422 21.1412 44.5006 20.955 41.4108 21.9274L41.9143 22.0585C37.7554 18.1548 31.5964 16.5685 26.0375 18.0444C21.0786 19.3618 17.0094 23.6241 15.3817 28.3968C14.9817 29.5761 14.6575 30.8521 14.6161 32.1073L14.8713 31.659C11.8505 33.3764 9.28481 36.011 8.57443 39.5146C8.22268 41.2665 8.39511 42.9976 8.8641 44.708C9.63656 47.5082 11.3677 49.929 13.9127 51.3774C15.9748 52.5499 18.3543 53.0671 20.713 53.1706C22.0786 53.2327 23.4856 53.1913 24.8305 52.9361C25.4857 52.812 25.2099 51.8188 24.5546 51.936V51.9429Z" fill="#333333"/>
</svg>
