<svg width="80" height="80" viewBox="0 0 80 80" fill="none" xmlns="http://www.w3.org/2000/svg">
<path d="M37.8916 14.406C35.8519 15.3495 34.3864 17.1362 33.3962 19.1371C32.4062 21.1379 31.6932 23.3931 31.6866 25.6281C31.68 27.542 32.0035 29.4893 32.1883 31.3897C32.5052 34.6419 32.8154 37.8941 33.1323 41.1464C33.3236 43.1204 33.4425 45.1213 33.7065 47.0887C33.898 48.4805 35.0532 48.4604 36.1423 48.4604H43.5223C44.5917 48.4604 45.7073 48.4538 45.8921 47.0887C46.1562 45.1213 46.275 43.1204 46.4664 41.1464C46.7833 37.8941 47.0935 34.6419 47.4103 31.3897C47.5951 29.4893 47.9187 27.542 47.9121 25.6281C47.9054 23.3931 47.186 21.1246 46.2024 19.1371C45.2188 17.1497 43.7534 15.3094 41.7137 14.406C40.5188 13.8774 39.2184 13.8707 38.0104 14.3525C37.4229 14.5867 37.6804 15.557 38.2745 15.3228C40.8291 14.2989 43.1593 16.1325 44.5323 18.207C45.6215 19.8397 46.374 21.8004 46.7503 23.7343C47.1463 25.7888 46.7568 27.977 46.5588 30.038C46.0373 35.4048 45.5158 40.7783 45.001 46.1451C44.9482 46.7005 45.067 47.2894 44.4003 47.45C43.925 47.5638 43.2847 47.45 42.7962 47.45H36.0896C35.7 47.45 34.9409 47.6039 34.7165 47.1355C34.5515 46.7875 34.6175 46.1117 34.5779 45.7369L34.2478 42.3374C33.9574 39.3396 33.6669 36.3417 33.3765 33.3438C33.1719 31.2492 32.9738 29.1614 32.7692 27.0669C32.4392 23.6808 33.5746 19.8397 35.8123 17.2433C36.5384 16.4002 37.3966 15.7444 38.3999 15.2759C38.9808 15.0083 38.4791 14.145 37.8982 14.406H37.8916Z" fill="#444444"/>
<path d="M30.2935 37.3922C28.3858 39.3328 26.861 41.8489 25.9104 44.3985C25.521 45.4357 25.2438 46.5131 25.0985 47.6172C25.0391 48.0522 24.8939 48.6344 25.1316 49.0359C25.3692 49.4374 25.851 49.5578 26.2735 49.3973C27.1647 49.056 28.0294 48.514 28.8809 48.079C29.8975 47.5637 30.9074 47.0484 31.924 46.5399C32.4917 46.2521 31.9901 45.3822 31.4223 45.67C29.6797 46.5533 27.9304 47.4365 26.1877 48.3266C26.0821 48.3801 25.9764 48.4404 25.8708 48.4872C25.7652 48.534 26.016 48.5206 26.0029 48.5407C26.1151 48.3934 26.0623 47.8314 26.0886 47.644C26.2273 46.6537 26.4913 45.6766 26.8346 44.7398C27.4353 43.1069 28.3001 41.5679 29.31 40.156C29.8249 39.4332 30.3728 38.7239 30.9933 38.0948C31.4422 37.6398 30.7424 36.9238 30.2935 37.3856V37.3922Z" fill="#444444"/>
<path d="M48.902 38.1016C50.5259 39.7544 51.8395 41.8423 52.7504 43.9702C53.1399 44.887 53.4501 45.8372 53.6547 46.8143C53.7075 47.0619 53.7537 47.3162 53.7933 47.5638C53.833 47.8113 53.8066 48.1325 53.8858 48.3735V48.4604C53.8726 48.5808 53.9253 48.601 54.064 48.5072C54.064 48.5072 54.0508 48.5072 54.0442 48.5006C54.0112 48.4739 53.9584 48.4671 53.9253 48.4404C53.6151 48.1994 53.1596 48.0522 52.8164 47.8782L51.1199 47.0217C50.2354 46.5733 49.3575 46.125 48.4729 45.6833C47.9052 45.3956 47.4035 46.2589 47.9713 46.5533C49.8129 47.4902 51.6348 48.5006 53.5161 49.3638C54.2158 49.685 54.8957 49.2634 54.8825 48.4671C54.8627 47.3696 54.5789 46.2254 54.2554 45.1814C53.6547 43.281 52.7174 41.4876 51.582 39.8615C50.9813 39.005 50.341 38.1484 49.6083 37.3989C49.1594 36.9439 48.4597 37.6532 48.9086 38.1082L48.902 38.1016Z" fill="#444444"/>
<path d="M42.1687 51.8132C41.8453 52.4824 41.1983 53.2653 40.6636 53.8542C40.195 54.3628 39.4029 54.3628 38.9341 53.8542C38.3995 53.272 37.7592 52.4958 37.4357 51.8266C37.1122 51.1574 36.0957 51.2846 35.9571 52.0274C35.9438 52.1143 35.9307 52.2014 35.9307 52.3017C35.9307 52.3017 35.9307 60.7869 38.175 64.3068C38.9341 65.4979 40.6703 65.4979 41.4227 64.3068C43.6672 60.7802 43.6672 52.3017 43.6672 52.3017C43.6672 52.1478 43.6473 52.014 43.6077 51.8935C43.4031 51.2377 42.4658 51.1976 42.1687 51.8132Z" fill="#F05023"/>
<path d="M42.545 29.1276C42.5319 30.2184 41.8718 31.2289 40.8486 31.6036C39.8254 31.9783 38.6174 31.6571 37.9177 30.7805C37.218 29.9039 37.1652 28.706 37.7131 27.7759C38.261 26.8457 39.3501 26.3371 40.4063 26.5312C41.6407 26.7654 42.5253 27.8629 42.545 29.1276C42.5516 29.7701 43.5418 29.7768 43.5352 29.1276C43.5154 27.6019 42.5912 26.2568 41.1852 25.7148C39.7792 25.1728 38.1355 25.6278 37.1916 26.7989C36.2476 27.9699 36.0826 29.6697 36.8615 30.9879C37.6405 32.3062 39.1521 32.9687 40.6308 32.701C42.314 32.3933 43.5154 30.8341 43.5352 29.1276C43.5418 28.4785 42.5516 28.4785 42.545 29.1276Z" fill="#444444"/>
</svg>
