<svg width="32" height="33" viewBox="0 0 32 33" fill="none" xmlns="http://www.w3.org/2000/svg">
<path d="M2.66699 3.1665H29.3337M12.0003 14.4998L13.7243 12.7758C14.1683 12.3318 14.391 12.1092 14.667 12.1092C14.943 12.1092 15.1657 12.3318 15.6097 12.7758L16.391 13.5572C16.835 14.0012 17.0577 14.2238 17.3337 14.2238C17.6097 14.2238 17.8323 14.0012 18.2763 13.5572L20.0003 11.8332M16.0003 28.4998V23.1665M16.0003 28.4998L13.3337 29.8332M16.0003 28.4998L18.667 29.8332" stroke="#372B47" stroke-width="2" stroke-linecap="round"/>
<path d="M26.6673 3.1665V14.4998C26.6673 18.5852 26.6673 20.6278 25.3287 21.8972C23.99 23.1665 21.8353 23.1665 17.5247 23.1665H14.4767C10.1673 23.1665 8.01132 23.1665 6.67265 21.8972C5.33398 20.6278 5.33398 18.5852 5.33398 14.4998V3.1665" stroke="#372B47" stroke-width="2"/>
</svg>
