<svg width="24" height="24" viewBox="0 0 24 24" fill="none" xmlns="http://www.w3.org/2000/svg">
<path d="M12 18C10.724 17.9995 9.48143 17.5921 8.45272 16.8372C7.42401 16.0823 6.66276 15.019 6.27954 13.8019C5.89633 12.5849 5.91111 11.2773 6.32173 10.0692C6.73236 8.86103 7.51745 7.81528 8.56296 7.08379C9.60847 6.3523 10.86 5.97317 12.1356 6.00148C13.4113 6.02978 14.6448 6.46404 15.6568 7.24118C16.6689 8.01832 17.4068 9.09786 17.7634 10.323C18.1201 11.5482 18.0769 12.8551 17.64 14.054C17.5522 14.2838 17.4106 14.4892 17.227 14.653L17.147 14.727C16.9132 14.9427 16.6216 15.0856 16.3078 15.1383C15.9941 15.1909 15.6718 15.1509 15.3804 15.0233C15.0889 14.8957 14.841 14.6859 14.6669 14.4197C14.4928 14.1534 14.4001 13.8421 14.4 13.524V12M14.4 12C14.4 12.6365 14.1472 13.247 13.6971 13.6971C13.247 14.1471 12.6366 14.4 12 14.4C11.3635 14.4 10.7531 14.1471 10.303 13.6971C9.85289 13.247 9.60004 12.6365 9.60004 12C9.60004 11.3635 9.85289 10.753 10.303 10.3029C10.7531 9.85286 11.3635 9.6 12 9.6C12.6366 9.6 13.247 9.85286 13.6971 10.3029C14.1472 10.753 14.4 11.3635 14.4 12Z" stroke="#B8A2D6" stroke-width="1.5" stroke-linecap="round"/>
<path opacity="0.5" d="M2 12C2 6.477 6.477 2 12 2C17.523 2 22 6.477 22 12C22 17.523 17.523 22 12 22C6.477 22 2 17.523 2 12Z" stroke="#B8A2D6" stroke-width="1.5"/>
</svg>
