<svg width="56" height="56" viewBox="0 0 56 56" fill="none" xmlns="http://www.w3.org/2000/svg">
<path opacity="0.5" d="M51.3334 32.6667V27.5287C51.3334 21.3874 51.3334 18.3144 49.5368 16.3194C49.372 16.1353 49.1975 15.96 49.0141 15.7944C47.0191 14.0001 43.9461 14.0001 37.8047 14.0001H36.9321C34.2418 14.0001 32.8954 14.0001 31.6401 13.6431C30.9512 13.4462 30.2873 13.1706 29.6614 12.8217C28.5227 12.1894 27.5707 11.2351 25.6667 9.33342L24.3834 8.05008C23.7441 7.41075 23.4267 7.09342 23.0907 6.81342C21.6456 5.61557 19.8729 4.88128 18.0041 4.70641C17.5701 4.66675 17.1174 4.66675 16.2167 4.66675C14.1564 4.66675 13.1274 4.66675 12.2687 4.83008C10.425 5.17827 8.72908 6.07407 7.40213 7.4006C6.07518 8.72714 5.17885 10.4228 4.83008 12.2664C4.66675 13.1274 4.66675 14.1587 4.66675 16.2167V32.6667C4.66675 41.4658 4.66675 45.8664 7.40141 48.5987C10.1337 51.3334 14.5344 51.3334 23.3334 51.3334H32.6667C41.4658 51.3334 45.8664 51.3334 48.5987 48.5987C51.3334 45.8664 51.3334 41.4658 51.3334 32.6667Z" fill="#5820E7"/>
<path d="M33.8287 26.6933C34.1752 27.0014 34.3854 27.4344 34.4129 27.8972C34.4405 28.3601 34.2832 28.815 33.9757 29.162L27.7527 36.162C27.5885 36.3467 27.3871 36.4945 27.1617 36.5957C26.9363 36.6969 26.692 36.7492 26.4449 36.7492C26.1978 36.7492 25.9535 36.6969 25.7281 36.5957C25.5026 36.4945 25.3012 36.3467 25.137 36.162L22.0244 32.662C21.7162 32.3148 21.5585 31.8594 21.5861 31.396C21.6137 30.9326 21.8242 30.4992 22.1714 30.191C22.5185 29.8828 22.9739 29.7252 23.4373 29.7527C23.9007 29.7803 24.3342 29.9908 24.6424 30.338L26.4437 32.368L31.36 26.838C31.6684 26.4918 32.1016 26.2821 32.5644 26.255C33.0273 26.2278 33.482 26.3855 33.8287 26.6933Z" fill="#5820E7"/>
</svg>
