<svg width="56" height="56" viewBox="0 0 56 56" fill="none" xmlns="http://www.w3.org/2000/svg">
<path opacity="0.5" d="M4.66675 27.9998C4.66675 17.0005 4.66675 11.5008 8.08275 8.0825C11.5034 4.6665 17.0007 4.6665 28.0001 4.6665C38.9994 4.6665 44.4991 4.6665 47.9151 8.0825C51.3334 11.5032 51.3334 17.0005 51.3334 27.9998C51.3334 38.9992 51.3334 44.4988 47.9151 47.9148C44.5014 51.3332 38.9994 51.3332 28.0001 51.3332C17.0007 51.3332 11.5011 51.3332 8.08275 47.9148C4.66675 44.5012 4.66675 38.9992 4.66675 27.9998Z" fill="#5820E7"/>
<path d="M33.8333 25.0835C33.3692 25.0835 32.9241 24.8991 32.5959 24.5709C32.2677 24.2427 32.0833 23.7976 32.0833 23.3335C32.0833 22.8694 32.2677 22.4242 32.5959 22.0961C32.9241 21.7679 33.3692 21.5835 33.8333 21.5835H39.6666C40.1308 21.5835 40.5759 21.7679 40.9041 22.0961C41.2323 22.4242 41.4166 22.8694 41.4166 23.3335V29.1668C41.4166 29.631 41.2323 30.0761 40.9041 30.4043C40.5759 30.7325 40.1308 30.9168 39.6666 30.9168C39.2025 30.9168 38.7574 30.7325 38.4292 30.4043C38.101 30.0761 37.9166 29.631 37.9166 29.1668V27.5568L33.2196 32.2538C32.4539 33.019 31.4158 33.4488 30.3333 33.4488C29.2508 33.4488 28.2127 33.019 27.447 32.2538L23.7463 28.5532C23.6921 28.4988 23.6277 28.4557 23.5569 28.4263C23.486 28.3969 23.41 28.3818 23.3333 28.3818C23.2566 28.3818 23.1806 28.3969 23.1097 28.4263C23.0389 28.4557 22.9745 28.4988 22.9203 28.5532L17.57 33.9035C17.2382 34.2126 16.7995 34.3809 16.3461 34.3729C15.8927 34.3649 15.4601 34.1812 15.1395 33.8606C14.8189 33.54 14.6352 33.1074 14.6272 32.654C14.6192 32.2007 14.7875 31.7619 15.0966 31.4302L20.447 26.0798C21.2127 25.3147 22.2508 24.8849 23.3333 24.8849C24.4158 24.8849 25.4539 25.3147 26.2196 26.0798L29.9203 29.7805C29.9745 29.8348 30.0389 29.8779 30.1097 29.9073C30.1806 29.9367 30.2566 29.9519 30.3333 29.9519C30.41 29.9519 30.486 29.9367 30.5569 29.9073C30.6277 29.8779 30.6921 29.8348 30.7463 29.7805L35.441 25.0835H33.8333Z" fill="#5820E7"/>
</svg>
