<svg width="92" height="93" viewBox="0 0 92 93" fill="none" xmlns="http://www.w3.org/2000/svg">
<path opacity="0.5" d="M72.5529 87.2781C80.8147 87.2781 87.5122 80.5805 87.5122 72.3187C87.5122 64.0569 80.8147 57.3594 72.5529 57.3594C64.291 57.3594 57.5935 64.0569 57.5935 72.3187C57.5935 80.5805 64.291 87.2781 72.5529 87.2781Z" stroke="#5820E7" stroke-width="4"/>
<path d="M72.5527 66.335V72.3187L76.2926 76.0585" stroke="#5820E7" stroke-width="4" stroke-linecap="round" stroke-linejoin="round"/>
<path d="M21.9553 6.49756C23.4274 6.49756 24.6177 7.58928 24.6177 8.93456V13.8579C26.9772 13.8156 29.6255 13.8156 32.6049 13.8156H46.8043C49.7836 13.8156 52.4284 13.8156 54.7915 13.8579V8.93456C54.7915 7.58928 55.9818 6.49756 57.4539 6.49756C58.9259 6.49756 60.1162 7.58928 60.1162 8.93456V14.0692C65.2227 14.4425 68.5788 15.3651 71.044 17.619C73.5092 19.8764 74.5129 22.9473 74.9214 27.6276V31.1493H4.48779V27.6276C4.89631 22.9473 5.89999 19.8799 8.36516 17.619C10.8303 15.3651 14.183 14.4425 19.2929 14.0692V8.93456C19.2929 7.58928 20.4868 6.49756 21.9553 6.49756Z" fill="#5820E7"/>
<path opacity="0.5" fill-rule="evenodd" clip-rule="evenodd" d="M74.9213 41.7142V48.7576C74.9213 50.5441 74.9213 52.2105 74.9113 53.7667C74.1388 53.6695 73.3516 53.6194 72.5528 53.6194C62.2255 53.6194 53.8536 61.9913 53.8536 72.3186C53.8536 73.8958 54.0488 75.4274 54.4165 76.8905C52.1424 76.931 49.6044 76.931 46.762 76.931H32.6753C19.3985 76.931 12.7602 76.931 8.62924 72.8036C4.50887 68.6797 4.50887 62.0378 4.50887 48.7576V41.7142C4.50887 40.7853 4.50435 39.6278 4.49957 38.4044C4.48914 35.7363 4.47748 32.7549 4.50887 31.1492H74.8298C74.8756 33.4911 74.9213 38.7595 74.9213 41.7142Z" fill="#5820E7"/>
</svg>
