<svg width="32" height="33" viewBox="0 0 32 33" fill="none" xmlns="http://www.w3.org/2000/svg">
<path d="M26.1961 21.2146H5.80408M26.1961 21.2146V11.1666C26.1961 8.65192 26.1961 7.39592 25.4147 6.61459C24.6347 5.83325 23.3774 5.83325 20.8627 5.83325H11.1374C8.62275 5.83325 7.36675 5.83325 6.58541 6.61459C5.80408 7.39592 5.80408 8.65192 5.80408 11.1666V21.2146M26.1961 21.2146L28.5214 23.6146L28.6387 23.7373C29.0664 24.2071 29.3123 24.8142 29.3321 25.4493L29.3334 25.6186C29.3334 25.8186 29.3334 25.9173 29.3281 26.0013C29.2872 26.6491 29.0114 27.2598 28.5523 27.7188C28.0933 28.1779 27.4826 28.4537 26.8347 28.4946C26.7073 28.5 26.5797 28.5018 26.4521 28.4999H5.54808C5.34808 28.4999 5.24941 28.4999 5.16541 28.4946C4.51755 28.4537 3.90685 28.1779 3.44783 27.7188C2.98881 27.2598 2.71299 26.6491 2.67208 26.0013C2.66675 25.9173 2.66675 25.8173 2.66675 25.6199L2.66808 25.4506C2.68787 24.8155 2.93374 24.2084 3.36141 23.7386L3.47875 23.6159L5.80408 21.2146M12.6667 25.1666H19.3334" stroke="white" stroke-width="2" stroke-linecap="round"/>
<path d="M17 9.5C17 9.76522 16.8946 10.0196 16.7071 10.2071C16.5196 10.3946 16.2652 10.5 16 10.5C15.7348 10.5 15.4804 10.3946 15.2929 10.2071C15.1054 10.0196 15 9.76522 15 9.5C15 9.23478 15.1054 8.98043 15.2929 8.79289C15.4804 8.60536 15.7348 8.5 16 8.5C16.2652 8.5 16.5196 8.60536 16.7071 8.79289C16.8946 8.98043 17 9.23478 17 9.5Z" fill="white"/>
</svg>
