<svg width="31" height="30" viewBox="0 0 31 30" fill="none" xmlns="http://www.w3.org/2000/svg">
<path d="M6.12501 11.8751C6.12516 10.3114 6.51644 8.77255 7.26322 7.39869C8.01001 6.02484 9.08858 4.85961 10.4007 4.00908C11.7129 3.15855 13.217 2.64974 14.776 2.52898C16.335 2.40822 17.8995 2.67934 19.327 3.31766C20.7545 3.95598 21.9996 4.94122 22.9491 6.18368C23.8985 7.42614 24.5221 8.88636 24.763 10.4314C25.004 11.9764 24.8546 13.5572 24.3286 15.0297C23.8026 16.5023 22.9166 17.8199 21.7513 18.8626C20.3513 20.1163 19.6513 20.7438 19.4613 20.9751C18.8525 21.7263 18.8263 21.7876 18.6738 22.7413C18.625 23.0376 18.625 23.4826 18.625 24.3751C18.625 25.5438 18.625 26.1276 18.3738 26.5626C18.2092 26.8476 17.9725 27.0843 17.6875 27.2488C17.2525 27.5001 16.6688 27.5001 15.5 27.5001C14.3313 27.5001 13.7475 27.5001 13.3125 27.2488C13.0275 27.0843 12.7908 26.8476 12.6263 26.5626C12.375 26.1276 12.375 25.5438 12.375 24.3751C12.375 23.4838 12.375 23.0376 12.3275 22.7413C12.1738 21.7876 12.1475 21.7263 11.5388 20.9763C11.35 20.7438 10.6488 20.1163 9.24876 18.8613C8.2649 17.9829 7.47796 16.9064 6.9396 15.7023C6.40124 14.4983 6.12363 13.194 6.12501 11.8751Z" stroke="white" stroke-width="1.5"/>
<path opacity="0.5" d="M18.625 24.375H12.375" stroke="white" stroke-width="1.5"/>
<path opacity="0.5" d="M16.4825 10.625L13.8038 14.375H17.5538L14.875 18.125" stroke="white" stroke-width="1.5" stroke-linecap="round" stroke-linejoin="round"/>
</svg>
