<svg width="56" height="56" viewBox="0 0 56 56" fill="none" xmlns="http://www.w3.org/2000/svg">
<path opacity="0.5" d="M9.33335 22.5725C9.33335 12.6838 17.1687 4.6665 26.8333 4.6665C36.498 4.6665 44.3333 12.6838 44.3333 22.5725C44.3418 25.0802 43.8277 27.5621 42.8237 29.8601C41.8198 32.158 40.3481 34.2216 38.5023 35.9192C37.3123 37.0088 36.428 37.8185 35.8027 38.4065C35.4859 38.704 35.1748 39.0074 34.8693 39.3165L34.811 39.3795L34.7993 39.3935L34.7923 39.4005C34.2393 40.1005 34.1203 40.2778 34.0503 40.4412C33.9803 40.6045 33.9267 40.8145 33.7867 41.7012C33.733 42.0512 33.726 42.6485 33.726 44.2795V44.3495C33.726 45.3038 33.726 46.1275 33.6677 46.8018C33.6047 47.5158 33.4647 48.2252 33.089 48.8902C32.6731 49.6301 32.0695 50.2474 31.339 50.6798C30.6903 51.0648 29.9973 51.2072 29.2997 51.2725C28.6393 51.3332 27.8343 51.3332 26.901 51.3332H26.7657C25.8323 51.3332 25.0273 51.3332 24.367 51.2725C23.667 51.2072 22.9763 51.0625 22.3253 50.6798C21.5957 50.2471 20.993 49.6298 20.5777 48.8902C20.2043 48.2252 20.0643 47.5182 19.999 46.8018C19.9383 46.1252 19.9383 45.3038 19.9383 44.3495V44.2795C19.9383 42.6485 19.9337 42.0512 19.8777 41.7012C19.7377 40.8145 19.6887 40.6045 19.6163 40.4412C19.5463 40.2778 19.4273 40.0982 18.8743 39.4005L18.8673 39.3935L18.8557 39.3795C18.5316 39.0486 18.201 38.7242 17.864 38.4065C17.2387 37.8185 16.3543 37.0088 15.1643 35.9168C13.3189 34.2195 11.8474 32.1563 10.8434 29.8588C9.83948 27.5613 9.3252 25.0798 9.33335 22.5725Z" fill="#5820E7"/>
<path d="M24.0286 31.7918C23.9146 31.5912 23.7619 31.4151 23.5795 31.2737C23.3971 31.1323 23.1886 31.0283 22.9658 30.9679C22.7431 30.9074 22.5106 30.8916 22.2818 30.9213C22.0529 30.9511 21.8322 31.0258 21.6323 31.1412C21.4324 31.2566 21.2574 31.4104 21.1172 31.5937C20.977 31.7771 20.8744 31.9863 20.8155 32.2094C20.7565 32.4326 20.7422 32.6651 20.7735 32.8938C20.8047 33.1225 20.8809 33.3427 20.9976 33.5418C21.8339 34.9871 23.1995 36.0506 24.8056 36.5075V39.6668C24.8056 40.1309 24.99 40.576 25.3182 40.9042C25.6464 41.2324 26.0915 41.4168 26.5556 41.4168C27.0198 41.4168 27.4649 41.2324 27.7931 40.9042C28.1213 40.576 28.3056 40.1309 28.3056 39.6668V36.5098C29.9118 36.0529 31.2773 34.9894 32.1136 33.5441C32.346 33.1422 32.4092 32.6644 32.2893 32.2159C32.1694 31.7674 31.8762 31.3848 31.4743 31.1525C31.0724 30.9201 30.5946 30.8569 30.1461 30.9768C29.6975 31.0967 29.315 31.3899 29.0826 31.7918C28.8273 32.2363 28.4592 32.6056 28.0155 32.8624C27.5718 33.1191 27.0683 33.2544 26.5556 33.2544C26.043 33.2544 25.5394 33.1191 25.0958 32.8624C24.6521 32.6056 24.284 32.2363 24.0286 31.7918ZM23.1326 45.9085H30.5293C30.5243 46.1094 30.5134 46.3102 30.4966 46.5105C30.4546 46.9981 30.38 47.1755 30.331 47.2641C30.1921 47.5102 29.9909 47.7154 29.7476 47.8591C29.6613 47.9105 29.4886 47.9851 29.0103 48.0295C28.511 48.0761 27.853 48.0761 26.831 48.0761C25.8113 48.0761 25.151 48.0761 24.6516 48.0295C24.1756 47.9851 24.0006 47.9128 23.9143 47.8591C23.6709 47.7155 23.4697 47.5103 23.331 47.2641C23.2843 47.1755 23.2096 46.9981 23.1676 46.5105C23.1502 46.3094 23.1385 46.1102 23.1326 45.9085Z" fill="#5820E7"/>
</svg>
