<svg width="20" height="21" viewBox="0 0 20 21" fill="none" xmlns="http://www.w3.org/2000/svg">
<path d="M17.7778 0.175293C18.3671 0.175293 18.9324 0.409419 19.3491 0.826167C19.7659 1.24291 20 1.80815 20 2.39752V17.9531C20 18.5424 19.7659 19.1077 19.3491 19.5244C18.9324 19.9412 18.3671 20.1753 17.7778 20.1753H2.22222C1.63285 20.1753 1.06762 19.9412 0.650874 19.5244C0.234126 19.1077 0 18.5424 0 17.9531V2.39752C0 1.80815 0.234126 1.24291 0.650874 0.826167C1.06762 0.409419 1.63285 0.175293 2.22222 0.175293H17.7778ZM17.2222 17.3975V11.5086C17.2222 10.548 16.8406 9.62663 16.1613 8.94733C15.482 8.26803 14.5607 7.8864 13.6 7.8864C12.6556 7.8864 11.5556 8.46418 11.0222 9.33085V8.09752H7.92222V17.3975H11.0222V11.9197C11.0222 11.0642 11.7111 10.3642 12.5667 10.3642C12.9792 10.3642 13.3749 10.5281 13.6666 10.8198C13.9583 11.1115 14.1222 11.5072 14.1222 11.9197V17.3975H17.2222ZM4.31111 6.35307C4.80618 6.35307 5.28098 6.15641 5.63104 5.80634C5.98111 5.45627 6.17778 4.98148 6.17778 4.4864C6.17778 3.45307 5.34444 2.60863 4.31111 2.60863C3.81309 2.60863 3.33547 2.80646 2.98332 3.15861C2.63117 3.51077 2.43333 3.98839 2.43333 4.4864C2.43333 5.51974 3.27778 6.35307 4.31111 6.35307ZM5.85556 17.3975V8.09752H2.77778V17.3975H5.85556Z" fill="white"/>
</svg>
