<svg width="177" height="64" viewBox="0 0 177 64" fill="none" xmlns="http://www.w3.org/2000/svg">
<path d="M59.4024 52.6157C58.2802 51.1526 56.4846 49.9146 55.0818 48.9579C52.0516 46.9321 49.2459 45.4689 46.2157 44.3435L31.8507 4.6707C31.7946 4.38934 31.4579 3.43268 30.7284 2.41976C29.5501 0.844102 27.9789 0 26.2394 0C24.4437 0 22.8725 0.844102 21.7502 2.41976C21.0208 3.43268 20.6841 4.38934 20.628 4.6707L0.0903956 61.0568C-0.190172 61.8446 0.202623 62.7449 0.98821 63.0263C1.15655 63.0826 1.32489 63.1388 1.49324 63.1388C1.99825 63.1388 2.44717 62.9138 2.72774 62.5198C2.78385 62.4636 2.83997 62.4073 2.83997 62.3511C5.8701 57.1739 10.2469 52.8408 15.4094 49.802C20.7402 46.707 26.8566 45.0188 33.0852 45.0188C35.8908 45.0188 38.6966 45.3564 41.39 46.0317C42.2317 46.2568 43.0173 46.4819 43.8029 46.7632L46.4403 54.0226C46.4403 54.0788 47.5064 56.8362 48.2358 58.7495C49.1337 61.0005 50.761 62.4636 52.8372 62.97C53.2861 63.0826 53.735 63.1388 54.1278 63.1388C55.8112 63.1388 57.4947 62.4636 58.7291 61.2819C60.0197 60.0438 60.7492 58.5245 60.7492 56.7799C60.8054 55.2606 60.3003 53.7412 59.4024 52.6157ZM13.9505 47.1572C11.1448 48.7891 8.56355 50.8149 6.2629 53.0659L23.4336 5.57107C23.4336 5.57107 23.7142 4.83952 24.1631 4.16423C24.6682 3.43268 25.2854 3.03877 26.1832 3.03877C27.0811 3.03877 27.6983 3.43268 28.2033 4.16423C28.7084 4.83952 28.9328 5.5148 28.9328 5.57107L42.5123 43.1055C39.4821 42.3177 36.3398 41.9237 33.1414 41.9237C26.3516 41.9801 19.7301 43.7808 13.9505 47.1572ZM56.709 59.0309C55.8112 59.875 54.5767 60.2689 53.5106 59.9875C52.4444 59.7624 51.6027 58.9183 51.0976 57.624C50.3682 55.767 49.3582 53.1222 49.302 52.9534L47.6187 48.2264C49.5265 49.1268 51.4344 50.196 53.3983 51.4903C54.6329 52.3344 56.1479 53.4036 56.9896 54.4728C57.7752 55.4856 58.3363 57.4553 56.709 59.0309Z" fill="url(#paint0_linear_399_1197)"/>
<path d="M33.1408 41.9805C26.4072 41.9805 19.7296 43.7812 13.9499 47.1576C11.1442 48.7896 8.56298 50.8154 6.26233 53.0664L5.81341 54.3043L2.89551 62.2952C5.92564 57.118 10.3025 52.7849 15.465 49.8024C20.7958 46.7074 26.9121 45.0192 33.1408 45.0192C35.9464 45.0192 38.7522 45.3568 41.4456 46.0322C42.2873 46.2572 43.0728 46.4823 43.8585 46.7637L42.5678 43.1622C39.4816 42.3743 36.3392 41.9805 33.1408 41.9805Z" fill="url(#paint1_linear_399_1197)"/>
<path d="M59.402 52.616C58.2798 51.1529 56.4842 49.9149 55.0813 48.9582C52.0512 46.9324 49.2455 45.4693 46.2153 44.3438L47.6182 48.2267C49.526 49.127 51.4339 50.1962 53.3979 51.4905C54.6324 52.3346 56.1475 53.4038 56.9891 54.473C57.3819 54.9795 57.7186 55.8236 57.7186 56.6677H60.7488C60.8049 55.2609 60.2999 53.7415 59.402 52.616Z" fill="url(#paint2_linear_399_1197)"/>
<path d="M61.3665 24.0848H59.7393L58.1681 20.5396H50.8734L49.3022 24.0848H47.731L53.7912 10.5791H55.1941L61.3665 24.0848ZM54.5768 12.3799L51.5467 19.189H57.607L54.5768 12.3799Z" fill="#333333"/>
<path d="M73.1501 18.4014C73.1501 19.3581 73.0379 20.2584 72.7574 20.99C72.4768 21.7216 72.0839 22.3406 71.635 22.847C71.13 23.3535 70.5689 23.6911 69.8956 23.9725C69.2221 24.1976 68.4366 24.3664 67.5949 24.3664C66.7532 24.3664 66.0237 24.2538 65.3503 23.9725C64.677 23.7474 64.0597 23.3535 63.6108 22.847C63.1058 22.3406 62.7691 21.7216 62.4885 21.0462C62.2079 20.371 62.0957 19.4706 62.0957 18.514V10.6919H63.6108V18.4014C63.6108 19.8645 63.9475 20.99 64.677 21.7216C65.4064 22.5093 66.4165 22.9033 67.7071 22.9033C68.9416 22.9033 69.8956 22.5093 70.625 21.7778C71.3544 21.0462 71.6912 19.9208 71.6912 18.4577V10.6919H73.2062V18.4014H73.1501Z" fill="#333333"/>
<path d="M80.6131 24.085H79.098V12.0988H74.6089V10.6919H85.1022V12.0988H80.6131V24.085Z" fill="#333333"/>
<path d="M98.4578 20.0333C98.1215 20.8774 97.6726 21.609 97.0554 22.228C96.4382 22.847 95.7648 23.3534 94.923 23.7474C94.0813 24.1412 93.1274 24.3101 92.1174 24.3101C91.1073 24.3101 90.1535 24.1412 89.3678 23.7474C88.5823 23.3534 87.7966 22.9033 87.2355 22.228C86.6744 21.5527 86.1693 20.8774 85.8327 20.0333C85.496 19.1892 85.3276 18.2889 85.3276 17.3884C85.3276 16.4318 85.496 15.5877 85.8327 14.7436C86.1693 13.8995 86.6182 13.168 87.2355 12.549C87.8528 11.9299 88.5261 11.4234 89.3678 11.0296C90.2095 10.6357 91.1635 10.4668 92.1735 10.4668C93.1836 10.4668 94.1375 10.6357 94.923 11.0296C95.7648 11.4234 96.4942 11.8736 97.0554 12.549C97.6726 13.168 98.1215 13.8995 98.4578 14.7436C98.7945 15.5877 98.9634 16.4881 98.9634 17.3884C98.9634 18.3451 98.7945 19.1892 98.4578 20.0333ZM96.9993 15.2501C96.7187 14.5748 96.382 14.012 95.877 13.5056C95.4281 12.9991 94.867 12.6052 94.1936 12.3239C93.5202 12.0425 92.8469 11.8736 92.0612 11.8736C91.2757 11.8736 90.6024 12.0425 89.9289 12.3239C89.3118 12.6052 88.7505 12.9991 88.3017 13.5056C87.8528 14.012 87.4599 14.5748 87.2355 15.2501C86.9549 15.9253 86.8427 16.6569 86.8427 17.3884C86.8427 18.12 86.9549 18.8516 87.2355 19.5268C87.5161 20.2022 87.8528 20.7649 88.3578 21.2714C88.8067 21.7778 89.3678 22.1717 90.0412 22.4531C90.6584 22.7344 91.3879 22.9033 92.1735 22.9033C92.9591 22.9033 93.6324 22.7344 94.3059 22.4531C94.923 22.1717 95.4843 21.7778 95.9331 21.2714C96.382 20.7649 96.7749 20.2022 96.9993 19.5268C97.2237 18.8516 97.3921 18.12 97.3921 17.3884C97.3921 16.6569 97.2799 15.9253 96.9993 15.2501Z" fill="#333333"/>
<path d="M107.547 20.4273H107.491L102.61 13.2805V24.085H101.151V10.6919H102.666L107.547 18.0075L112.43 10.6919H113.945V24.085H112.373V13.2805L107.547 20.4273Z" fill="#333333"/>
<path d="M128.984 24.0848H127.356L125.785 20.5396H118.49L116.919 24.0848H115.348L121.408 10.5791H122.811L128.984 24.0848ZM122.193 12.3799L119.108 19.2453H125.167L122.193 12.3799Z" fill="#333333"/>
<path d="M133.697 24.085H132.182V12.0988H127.692V10.6919H138.186V12.0988H133.697V24.085Z" fill="#333333"/>
<path d="M141.328 10.6919V24.085H139.813V10.6919H141.328Z" fill="#333333"/>
<path d="M156.703 20.0333C156.366 20.8774 155.918 21.609 155.301 22.228C154.684 22.847 154.01 23.3534 153.169 23.7474C152.326 24.1412 151.373 24.3101 150.363 24.3101C149.352 24.3101 148.399 24.1412 147.613 23.7474C146.827 23.3534 146.042 22.9033 145.481 22.228C144.919 21.5527 144.415 20.8774 144.078 20.0333C143.741 19.1892 143.573 18.2889 143.573 17.3884C143.573 16.4318 143.741 15.5877 144.078 14.7436C144.415 13.8995 144.863 13.168 145.481 12.549C146.098 11.9299 146.771 11.4234 147.613 11.0296C148.455 10.6357 149.408 10.4668 150.418 10.4668C151.429 10.4668 152.383 10.6357 153.169 11.0296C154.01 11.4234 154.739 11.8736 155.301 12.549C155.918 13.168 156.366 13.8995 156.703 14.7436C157.04 15.5877 157.209 16.4881 157.209 17.3884C157.209 18.3451 157.04 19.1892 156.703 20.0333ZM155.244 15.2501C154.964 14.5748 154.628 14.012 154.122 13.5056C153.673 12.9991 153.113 12.6052 152.439 12.3239C151.766 12.0425 151.092 11.8736 150.307 11.8736C149.521 11.8736 148.848 12.0425 148.174 12.3239C147.556 12.6052 146.996 12.9991 146.547 13.5056C146.098 14.012 145.705 14.5748 145.481 15.2501C145.2 15.9253 145.088 16.6569 145.088 17.3884C145.088 18.12 145.2 18.8516 145.481 19.5268C145.762 20.2022 146.097 20.7649 146.603 21.2714C147.052 21.7778 147.613 22.1717 148.286 22.4531C148.904 22.7344 149.633 22.9033 150.418 22.9033C151.204 22.9033 151.877 22.7344 152.551 22.4531C153.169 22.1717 153.729 21.7778 154.178 21.2714C154.628 20.7649 155.02 20.2022 155.244 19.5268C155.469 18.8516 155.637 18.12 155.637 17.3884C155.637 16.6569 155.525 15.9253 155.244 15.2501Z" fill="#333333"/>
<path d="M169.16 10.6919H170.619V24.085H169.441L160.799 13.1117V24.085H159.34V10.6919H160.743L169.16 21.4402V10.6919Z" fill="#333333"/>
<path d="M65.6308 30.8945H68.3243L74.0479 44.4002H70.9616L69.7271 41.4177H64.1157L62.8813 44.4002H59.9072L65.6308 30.8945ZM68.7171 38.7728L66.9214 34.4397L65.1258 38.7728H68.7171Z" fill="#333333"/>
<path d="M75.0015 30.9502H77.695L83.9797 39.2224V30.9502H86.8976V44.3433H84.3724L77.9194 35.846V44.3433H75.0015V30.9502Z" fill="#333333"/>
<path d="M92.8465 39.1099L87.6841 30.9502H91.107L94.3055 36.3525L97.5601 30.9502H100.871L95.7644 39.0536V44.3995H92.8465V39.1099Z" fill="#333333"/>
<path d="M101.208 30.9509H104.35L107.1 40.0109L110.074 30.8945H112.599L115.573 40.0109L118.322 30.9509H121.409L116.864 44.4564H114.282L111.365 35.6778L108.334 44.4564H105.753L101.208 30.9509Z" fill="#333333"/>
<path d="M122.474 30.9502H125.392V36.2399H130.835V30.9502H133.753V44.3433H130.835V38.941H125.392V44.3433H122.474V30.9502Z" fill="#333333"/>
<path d="M136.11 30.9502H146.154V33.5951H138.972V36.2963H145.256V38.941H138.972V41.7548H146.21V44.3995H136.054V30.9502H136.11Z" fill="#333333"/>
<path d="M148.062 30.9502H154.179C155.863 30.9502 157.153 31.4005 158.051 32.3008C158.836 33.0886 159.173 34.1016 159.173 35.3396V35.3958C159.173 36.465 158.892 37.3655 158.388 38.0407C157.882 38.716 157.153 39.2224 156.311 39.5601L159.566 44.3433H156.142L153.281 40.0666H153.224H150.98V44.3433H148.062V30.9502ZM153.954 37.478C154.683 37.478 155.245 37.3091 155.638 36.9715C156.03 36.6339 156.199 36.1836 156.199 35.6209V35.5647C156.199 34.9457 155.974 34.4392 155.582 34.1016C155.189 33.7639 154.627 33.5951 153.898 33.5951H150.98V37.4217H153.954V37.478Z" fill="#333333"/>
<path d="M160.912 30.9502H170.956V33.5951H163.774V36.2963H170.059V38.941H163.774V41.7548H171.013V44.3995H160.856V30.9502H160.912Z" fill="#333333"/>
<defs>
<linearGradient id="paint0_linear_399_1197" x1="-0.00297742" y1="31.5557" x2="60.7883" y2="31.5557" gradientUnits="userSpaceOnUse">
<stop stop-color="#FCDA00"/>
<stop offset="0.0412963" stop-color="#FACE0C"/>
<stop offset="0.1529" stop-color="#F6AF1C"/>
<stop offset="0.27" stop-color="#F39521"/>
<stop offset="0.3913" stop-color="#F08023"/>
<stop offset="0.5183" stop-color="#EF6F24"/>
<stop offset="0.6533" stop-color="#EE6225"/>
<stop offset="0.8021" stop-color="#ED5925"/>
<stop offset="0.991" stop-color="#ED5625"/>
<stop offset="1" stop-color="#ED5625"/>
</linearGradient>
<linearGradient id="paint1_linear_399_1197" x1="2.89051" y1="52.1328" x2="43.812" y2="52.1328" gradientUnits="userSpaceOnUse">
<stop offset="0.2768" stop-color="white" stop-opacity="0"/>
<stop offset="0.3255" stop-color="#ECEBEB" stop-opacity="0.0113339"/>
<stop offset="0.4001" stop-color="#CCC9C9" stop-opacity="0.0287315"/>
<stop offset="0.4915" stop-color="#9F9B9B" stop-opacity="0.0500372"/>
<stop offset="0.5961" stop-color="#696565" stop-opacity="0.0744124"/>
<stop offset="0.7103" stop-color="#353232" stop-opacity="0.101"/>
<stop offset="0.7917" stop-color="#0A0608" stop-opacity="0.12"/>
<stop offset="0.905" stop-color="#0A0608" stop-opacity="0.23"/>
</linearGradient>
<linearGradient id="paint2_linear_399_1197" x1="46.1828" y1="50.514" x2="60.7872" y2="50.514" gradientUnits="userSpaceOnUse">
<stop offset="0.1078" stop-color="#0A0608" stop-opacity="0.23"/>
<stop offset="0.2389" stop-color="#0A0608" stop-opacity="0.2"/>
<stop offset="0.307" stop-color="#1A1718" stop-opacity="0.1787"/>
<stop offset="0.439" stop-color="#3B3737" stop-opacity="0.1373"/>
<stop offset="0.6216" stop-color="#757070" stop-opacity="0.0800656"/>
<stop offset="0.8459" stop-color="#E4E2E2" stop-opacity="0.01"/>
<stop offset="0.8771" stop-color="white" stop-opacity="0"/>
</linearGradient>
</defs>
</svg>
