<svg width="24" height="24" viewBox="0 0 24 24" fill="none" xmlns="http://www.w3.org/2000/svg">
<path opacity="0.5" d="M17 12C18.0873 11.9998 19.145 11.6452 20.0126 10.9899C20.8803 10.3345 21.5107 9.41425 21.8082 8.36843C22.1058 7.32262 22.0544 6.20831 21.6617 5.19436C21.2691 4.18041 20.5566 3.32209 19.6322 2.74949C18.7079 2.17688 17.6221 1.9212 16.5394 2.02119C15.4566 2.12118 14.436 2.57139 13.6322 3.30358C12.8283 4.03578 12.2851 5.01006 12.0848 6.07878C11.8844 7.14749 12.0379 8.25238 12.522 9.22601C12.6135 9.40279 12.6373 9.6069 12.589 9.80001L12.291 10.913C12.2615 11.0232 12.2615 11.1392 12.291 11.2494C12.3206 11.3596 12.3786 11.4601 12.4593 11.5407C12.5399 11.6214 12.6404 11.6794 12.7506 11.709C12.8608 11.7385 12.9768 11.7385 13.087 11.709L14.2 11.411C14.3931 11.3627 14.5972 11.3865 14.774 11.478C15.4655 11.8223 16.2276 12.001 17 12Z" stroke="#B8A2D6" stroke-width="1.5"/>
<path d="M8.03803 7.31622L8.68703 8.47922C9.27203 9.52922 9.03703 10.9052 8.11503 11.8282C8.11503 11.8282 6.99503 12.9472 9.02503 14.9762C11.052 17.0032 12.172 15.8862 12.172 15.8862C13.095 14.9632 14.472 14.7282 15.521 15.3132L16.684 15.9632C18.269 16.8472 18.456 19.0692 17.063 20.4632C16.226 21.2992 15.2 21.9512 14.067 21.9932C12.159 22.0662 8.91803 21.5832 5.66703 18.3332C2.41703 15.0822 1.93403 11.8412 2.00703 9.93322C2.05003 8.80022 2.70103 7.77422 3.53703 6.93722C4.93103 5.54422 7.15303 5.73122 8.03703 7.31722L8.03803 7.31622Z" stroke="#B8A2D6" stroke-width="1.5" stroke-linecap="round"/>
</svg>
