<svg width="92" height="93" viewBox="0 0 92 93" fill="none" xmlns="http://www.w3.org/2000/svg">
<path d="M12.6232 36.1371C11.5 37.2603 11.5 39.0657 11.5 42.6806V65.6806C11.5 69.2954 11.5 71.1009 12.6232 72.2241C13.7463 73.3473 15.5518 73.3472 19.1667 73.3472C22.7815 73.3472 24.587 73.3473 25.7102 72.2241C26.8333 71.1009 26.8333 69.2954 26.8333 65.6806V42.6806C26.8333 39.0657 26.8333 37.2603 25.7102 36.1371C24.587 35.0139 22.7815 35.0139 19.1667 35.0139C15.5518 35.0139 13.7463 35.0139 12.6232 36.1371Z" fill="#5820E7"/>
<path opacity="0.4" d="M66.2899 9.30383C65.1667 10.427 65.1667 12.2325 65.1667 15.8473V65.6807C65.1667 69.2955 65.1667 71.101 66.2899 72.2242C67.4131 73.3473 69.2186 73.3473 72.8334 73.3473C76.4482 73.3473 78.2538 73.3473 79.3769 72.2242C80.5001 71.101 80.5001 69.2955 80.5001 65.6807V15.8473C80.5001 12.2325 80.5001 10.427 79.3769 9.30383C78.2538 8.18066 76.4482 8.18066 72.8334 8.18066C69.2186 8.18066 67.4131 8.18066 66.2899 9.30383Z" fill="#5820E7"/>
<path opacity="0.7" d="M38.3333 27.3473C38.3333 23.7325 38.3333 21.927 39.4564 20.8038C40.5796 19.6807 42.3851 19.6807 45.9999 19.6807C49.6148 19.6807 51.4203 19.6807 52.5434 20.8038C53.6666 21.927 53.6666 23.7325 53.6666 27.3473V65.6807C53.6666 69.2955 53.6666 71.101 52.5434 72.2242C51.4203 73.3473 49.6148 73.3473 45.9999 73.3473C42.3851 73.3473 40.5796 73.3473 39.4564 72.2242C38.3333 71.101 38.3333 69.2955 38.3333 65.6807V27.3473Z" fill="#5820E7"/>
<path d="M11.5 81.9722C10.7375 81.9722 10.0062 82.2751 9.46707 82.8142C8.9279 83.3534 8.625 84.0847 8.625 84.8472C8.625 85.6097 8.9279 86.3409 9.46707 86.8801C10.0062 87.4193 10.7375 87.7222 11.5 87.7222H80.5C81.2625 87.7222 81.9938 87.4193 82.5329 86.8801C83.0721 86.3409 83.375 85.6097 83.375 84.8472C83.375 84.0847 83.0721 83.3534 82.5329 82.8142C81.9938 82.2751 81.2625 81.9722 80.5 81.9722H11.5Z" fill="#5820E7"/>
</svg>
