<svg width="41" height="40" viewBox="0 0 41 40" fill="none" xmlns="http://www.w3.org/2000/svg">
<path d="M20.3517 11.2115C22.0417 8.1815 22.885 6.6665 24.15 6.6665C25.4117 6.6665 26.2567 8.1815 27.945 11.2115L28.3817 11.9948C28.8617 12.8565 29.1017 13.2865 29.4767 13.5698C29.85 13.8532 30.3167 13.9598 31.2484 14.1698L32.0984 14.3632C35.3767 15.1048 37.015 15.4748 37.4067 16.7298C37.7967 17.9848 36.6784 19.2915 34.4434 21.9065L33.865 22.5832C33.23 23.3248 32.9117 23.6965 32.7684 24.1565C32.625 24.6165 32.6734 25.1115 32.7684 26.1032L32.8567 27.0048C33.195 30.4948 33.365 32.2382 32.3434 33.0132C31.3217 33.7882 29.7867 33.0815 26.715 31.6682L25.9217 31.3015C25.0484 30.9015 24.6117 30.6998 24.15 30.6998C23.6867 30.6998 23.2501 30.8998 22.3784 31.3015L21.5834 31.6682C18.5134 33.0815 16.9784 33.7882 15.9567 33.0132C14.935 32.2382 15.105 30.4948 15.4417 27.0048L15.5301 26.1032C15.6251 25.1115 15.6734 24.6165 15.5301 24.1565C15.3884 23.6965 15.07 23.3265 14.435 22.5832L13.8567 21.9065C11.6167 19.2915 10.5001 17.9832 10.8917 16.7298C11.2817 15.4748 12.9217 15.1048 16.2 14.3632L17.05 14.1698C17.9817 13.9598 18.4467 13.8532 18.8217 13.5698C19.195 13.2865 19.435 12.8565 19.915 11.9948L20.3517 11.2115Z" fill="#5820E7"/>
<path opacity="0.5" fill-rule="evenodd" clip-rule="evenodd" d="M15.2417 8.6702C11.94 7.7202 8.3967 8.22187 4.97836 10.2235L4.6317 10.4269C4.34616 10.5861 4.00958 10.6272 3.69413 10.5412C3.37867 10.4553 3.10946 10.2491 2.9442 9.96702C2.77894 9.68491 2.73079 9.34927 2.81009 9.03207C2.88938 8.71487 3.08979 8.44137 3.36836 8.2702L3.71503 8.06687C7.65003 5.76187 11.895 5.1052 15.935 6.26687L16.2817 6.36687C16.5959 6.46247 16.8598 6.67789 17.0165 6.96654C17.1731 7.2552 17.2098 7.5939 17.1188 7.90943C17.0277 8.22496 16.8161 8.49197 16.5297 8.65273C16.2433 8.81349 15.9052 8.85509 15.5884 8.76854L15.2417 8.6702ZM8.7267 16.5602C8.75487 16.8904 8.65079 17.2182 8.43733 17.4717C8.22388 17.7251 7.91851 17.8835 7.58836 17.9119C7.3317 17.9352 7.13836 17.9452 6.9717 17.9569C6.72349 17.9665 6.47623 17.9932 6.2317 18.0369C5.90503 18.1002 5.47836 18.2319 4.7067 18.6185C4.55968 18.6934 4.3993 18.7384 4.23481 18.7509C4.07032 18.7635 3.90497 18.7433 3.74829 18.6917C3.59161 18.64 3.44671 18.5579 3.32194 18.45C3.19717 18.342 3.09499 18.2105 3.0213 18.0629C2.94761 17.9153 2.90387 17.7546 2.89259 17.59C2.88132 17.4254 2.90273 17.2602 2.9556 17.1039C3.00847 16.9477 3.09175 16.8034 3.20064 16.6795C3.30952 16.5556 3.44186 16.4544 3.59003 16.3819C4.48503 15.9352 5.13336 15.7019 5.76003 15.5819C6.1717 15.5019 6.5967 15.4752 6.97836 15.4485L7.37503 15.4219C7.7052 15.3937 8.03304 15.4978 8.2865 15.7112C8.53996 15.9247 8.6983 16.2301 8.7267 16.5602ZM10.53 26.4269C9.56336 26.1981 8.55769 26.1891 7.58708 26.4006C6.61647 26.612 5.70565 27.0385 4.9217 27.6485C4.79324 27.7545 4.64491 27.8337 4.48542 27.8815C4.32592 27.9294 4.15848 27.9449 3.99292 27.9271C3.82736 27.9093 3.66702 27.8586 3.52131 27.778C3.3756 27.6974 3.24747 27.5885 3.14443 27.4577C3.04139 27.3269 2.96552 27.1769 2.92127 27.0164C2.87703 26.8558 2.8653 26.6881 2.88679 26.523C2.90827 26.3578 2.96252 26.1987 3.04637 26.0548C3.13021 25.9109 3.24195 25.7853 3.37503 25.6852C4.45389 24.8429 5.70811 24.2536 7.04514 23.9608C8.38218 23.668 9.76789 23.6792 11.1 23.9935C11.4155 24.0759 11.6863 24.2783 11.8547 24.5575C12.0231 24.8367 12.0757 25.1706 12.0013 25.4881C11.927 25.8055 11.7315 26.0814 11.4566 26.2568C11.1818 26.4321 10.8493 26.4932 10.53 26.4269Z" fill="#5820E7"/>
</svg>
