<svg width="81" height="80" viewBox="0 0 81 80" fill="none" xmlns="http://www.w3.org/2000/svg">
<path d="M65.2945 20.2219C64.767 19.1222 63.6498 19.1999 62.6234 19.1999H17.4125C16.3803 19.1999 15.3255 19.4832 15.1157 20.6606C15.025 21.1606 15.0873 21.7049 15.0873 22.2102V49.0588C15.0873 50.1585 15.6034 51.1526 16.8794 51.2082C18.0704 51.2638 19.2726 51.2082 20.4636 51.2082H60.3209C61.4778 51.2082 62.7027 51.3193 63.854 51.1971C65.1186 51.0638 65.459 49.9863 65.459 48.9422V22.0326C65.459 21.4605 65.544 20.7551 65.2945 20.2274V20.2219ZM64.6082 22.4324V48.9199C64.6082 49.6031 64.5515 50.3196 63.6215 50.3751C63.2131 50.3974 62.7935 50.3751 62.3851 50.3751H18.0194C17.6507 50.3751 17.265 50.4084 16.9021 50.3751C15.8983 50.2807 15.9437 49.4865 15.9437 48.77V22.2102C15.9437 21.7493 15.8473 21.1661 15.9777 20.7106C16.2158 19.872 17.231 20.033 17.9059 20.033H62.3682C63.2075 20.033 64.4949 19.8109 64.6082 20.9606C64.6536 21.4438 64.6082 21.9492 64.6082 22.4324Z" fill="#414042"/>
<path d="M52.6534 60.7669H49.4605C49.0408 58.7841 48.6155 56.8068 48.1958 54.824C48.1334 54.5297 48.0711 54.2298 48.0087 53.9354C47.8952 53.4133 47.0786 53.6354 47.1863 54.1575C47.6287 56.2403 48.0711 58.3231 48.5191 60.4059C48.5474 60.5281 48.5701 60.6502 48.5984 60.7669H31.9535C32.3618 58.8618 32.7644 56.9513 33.1727 55.0462C33.2351 54.7518 33.2975 54.4519 33.3599 54.1575C33.4733 53.6354 32.651 53.4133 32.5376 53.9354C32.0952 56.0182 31.6529 58.101 31.2048 60.1838C31.1651 60.3782 31.1198 60.5725 31.0801 60.7669H27.8872C27.3371 60.7669 27.3371 61.6 27.8872 61.6H52.6477C53.1978 61.6 53.1978 60.7669 52.6477 60.7669H52.6534Z" fill="#414042"/>
<path d="M46.4434 41.2557C40.6474 39.0618 39.6493 38.1288 39.4281 37.4512C39.411 37.4012 39.3998 37.3457 39.3998 37.2901V36.357C39.3998 36.2126 39.4565 36.0793 39.5586 35.9737C40.1313 35.4017 40.5737 34.6075 40.8402 33.6689C40.8742 33.5466 40.9536 33.4411 41.0557 33.3689C41.311 33.1912 41.4697 32.8968 41.4697 32.5802C41.4697 32.3025 41.345 32.0914 41.2429 31.9693C41.1634 31.8749 41.1181 31.7526 41.1181 31.6249V29.5365C41.1181 27.4927 39.9498 26.4541 37.653 26.4541C35.3562 26.4541 34.1822 27.5205 34.1822 29.5365V31.6249C34.1822 31.7526 34.1369 31.8693 34.0574 31.9693C33.9554 32.0914 33.8306 32.3025 33.8306 32.5802C33.8306 32.8968 33.9838 33.1912 34.239 33.3689C34.341 33.4411 34.4204 33.5466 34.4544 33.6689C34.721 34.6075 35.1634 35.4017 35.7362 35.9737C35.8382 36.0737 35.895 36.2126 35.895 36.357V37.2901C35.895 37.3457 35.8836 37.4012 35.8722 37.4512C35.6567 38.1288 34.6586 39.0618 28.857 41.2557C28.8116 41.2724 28.7832 41.3168 28.7832 41.3668V43.6995C28.7832 43.7661 28.8342 43.8161 28.8966 43.8161H46.398C46.4604 43.8161 46.5114 43.7606 46.5114 43.6995V41.3668C46.5114 41.3168 46.483 41.2724 46.4377 41.2557H46.4434Z" fill="#F05023"/>
<path d="M46.5568 40.8557C44.8101 40.1948 43.0406 39.5227 41.4017 38.623C40.8912 38.3397 40.1029 37.9454 39.8704 37.4177C39.8193 37.2955 39.7569 36.6568 39.8307 36.4069C39.9385 36.0292 40.4262 35.6126 40.6304 35.2627C40.9196 34.7684 41.033 34.1242 41.3619 33.6631C41.5888 33.3521 41.8269 33.1799 41.878 32.769C41.9347 32.3135 41.7136 32.0858 41.5774 31.6914C41.43 31.2582 41.5434 30.6417 41.5434 30.1918C41.5434 28.9977 41.4867 27.7425 40.4942 26.8982C39.3317 25.9041 37.3241 25.8207 35.9233 26.2984C34.5225 26.7761 33.8022 28.0202 33.7569 29.4587C33.7398 29.9474 33.7569 30.4362 33.7569 30.925C33.7569 31.125 33.7965 31.3638 33.7569 31.5637C33.7001 31.8525 33.4733 32.0802 33.4279 32.3913C33.3769 32.7522 33.462 33.1133 33.6888 33.4077C34.0404 33.8798 34.2105 34.3463 34.4657 34.8739C34.6699 35.3072 34.9421 35.6682 35.2313 36.0458C35.4979 36.3902 35.4809 36.5957 35.4752 37.0122C35.4696 37.551 35.2087 37.7898 34.6926 38.1509C33.53 38.9506 32.1633 39.495 30.8645 40.0337C30.3314 40.2503 29.7984 40.4614 29.2653 40.6669C28.8853 40.8113 28.4713 40.8834 28.3749 41.3222C28.2841 41.7166 28.3692 42.2109 28.3692 42.6108C28.3692 43.2384 28.1537 44.1715 29.0101 44.2437C29.5658 44.2882 30.15 44.2437 30.7057 44.2437H44.8213C45.3205 44.2437 45.8535 44.2993 46.3526 44.2437C47.226 44.1438 46.9424 42.8885 46.9424 42.2775C46.9424 41.8888 47.0331 41.4 46.812 41.0557C46.517 40.6058 45.7798 41.0223 46.0747 41.4778C46.0577 41.45 46.069 41.3334 46.0917 41.4944C46.103 41.5722 46.0917 41.661 46.0917 41.7444V43.3939C46.0917 44.0215 46.2449 43.244 46.398 43.4106C46.2902 43.2995 45.4112 43.4106 45.2581 43.4106H29.5488C29.4297 43.4106 29.1008 43.3495 28.993 43.4106C28.976 43.4217 28.9137 43.3939 28.9023 43.4106C28.9704 43.3328 29.0894 43.7994 29.2142 43.6217C29.2482 43.5772 29.2142 43.3995 29.2142 43.3439V41.6944C29.2142 41.6222 29.1858 41.5055 29.2142 41.4445C29.2142 41.4334 29.2085 41.4 29.2142 41.3945C29.0781 41.5666 29.3503 41.5278 29.3617 41.5278C29.5601 41.55 30.0025 41.2778 30.2124 41.2001C30.4676 41.1001 30.7285 40.9946 30.9837 40.889C32.2993 40.3503 33.6434 39.806 34.8514 39.0562C35.3448 38.7507 35.8779 38.3842 36.1614 37.8676C36.3202 37.5788 36.3259 37.2844 36.3259 36.9623C36.3259 36.7679 36.3429 36.5679 36.3259 36.3735C36.2862 35.9014 35.9743 35.6738 35.7077 35.3127C35.3901 34.8906 35.1577 34.413 34.9818 33.9186C34.9194 33.7409 34.8797 33.5576 34.789 33.391C34.6585 33.1578 34.4261 33.0411 34.3353 32.7856C34.1878 32.3746 34.5792 32.0636 34.6132 31.647C34.6245 31.497 34.6132 31.336 34.6132 31.186C34.6132 30.1196 34.409 28.7422 35.1066 27.8369C36.031 26.6428 38.4073 26.5983 39.6322 27.3204C40.8572 28.0424 40.6984 29.3754 40.6984 30.5362C40.6984 30.9694 40.6077 31.5193 40.7437 31.9414C40.9082 32.4357 41.1805 32.5968 40.7608 33.0966C40.4092 33.5132 40.3354 33.9798 40.1029 34.4685C39.774 35.1572 39.0254 35.6848 38.9801 36.4569C38.9573 36.8346 38.929 37.2955 39.0481 37.6566C39.2182 38.162 39.6889 38.5341 40.1143 38.834C41.1237 39.5394 42.292 40.0337 43.4262 40.5169C44.3847 40.9223 45.3545 41.3056 46.3299 41.6777C46.8403 41.8721 47.0615 41.0668 46.5568 40.8724V40.8557Z" fill="#F05023"/>
<path d="M48.3094 44.2325H51.179C51.8142 44.2325 53.0845 44.5158 53.1695 43.6438C53.2206 43.1329 53.1752 42.5885 53.1695 42.0776C53.1583 41.3389 52.5627 41.2777 51.9276 41.0278C50.5948 40.5057 49.0693 39.9837 47.9237 39.1061C47.7479 38.9673 47.5664 38.8284 47.4927 38.6396C47.5097 38.684 47.4814 38.4174 47.4814 38.3397C47.4757 37.9009 47.5381 37.8176 47.8103 37.4565C48.0711 37.1177 48.2696 36.7401 48.4284 36.3457C48.5419 36.0625 48.6383 35.8625 48.8198 35.6293C48.9388 35.4737 49.0466 35.3182 49.0976 35.1238C49.2054 34.7184 49.0126 34.4795 48.8991 34.1297C48.8424 33.9464 48.8595 33.752 48.8595 33.552C48.8595 32.4301 48.9786 31.1582 48.0882 30.3029C47.056 29.3142 45.0257 29.2642 43.8064 29.9085C42.434 30.6361 42.4623 32.0969 42.4623 33.4242C42.4623 33.6631 42.4907 33.9075 42.4227 34.1297C42.2865 34.5517 42.088 34.835 42.2865 35.296C42.3546 35.457 42.468 35.557 42.5701 35.6903C42.7515 35.9347 42.831 36.218 42.9557 36.5013C43.0635 36.7456 43.1826 36.9845 43.3357 37.2066C43.4888 37.4288 43.8121 37.7065 43.8575 37.9564C43.9652 38.4841 44.7819 38.2619 44.6798 37.7342C44.606 37.3677 44.3395 37.1733 44.1297 36.8733C43.8347 36.4568 43.71 35.9958 43.5059 35.5348C43.4491 35.4071 43.3697 35.3293 43.3017 35.2127C43.1032 34.8905 43.0522 34.8017 43.2053 34.4795C43.2903 34.3018 43.3187 34.1407 43.3243 33.9464C43.3697 32.9966 43.0748 31.7136 43.8007 30.9471C44.6855 30.0141 47.1014 30.0529 47.7706 31.236C48.2413 32.0746 47.9351 33.141 48.0201 34.0463C48.0428 34.3073 48.2583 34.5017 48.2867 34.7295C48.3207 34.9738 48.0201 35.1627 47.9237 35.346C47.8273 35.5293 47.7819 35.7181 47.7082 35.9069C47.5324 36.3846 47.2829 36.7734 46.9653 37.1677C46.7838 37.3954 46.6703 37.5676 46.6477 37.862C46.6023 38.4841 46.6477 39.0173 47.1014 39.4727C47.6969 40.0781 48.5646 40.4613 49.3245 40.8112C50.0844 41.1611 50.8387 41.4721 51.6043 41.7721C51.8028 41.8498 52.1204 42.0497 52.3303 42.0553C52.3416 42.0553 52.3303 41.7221 52.3303 41.9442C52.3303 42.1664 52.3303 42.4108 52.3303 42.6385C52.3303 42.8996 52.2735 43.2273 52.3303 43.4827C52.3359 43.5161 52.3075 43.6716 52.3303 43.6938C52.2792 43.6549 52.7159 43.4938 52.5911 43.3828C52.4267 43.2439 51.4682 43.3828 51.2584 43.3828H48.3207C47.7706 43.3828 47.7706 44.2159 48.3207 44.2159L48.3094 44.2325Z" fill="#F05023"/>
</svg>
