<svg width="56" height="56" viewBox="0 0 56 56" fill="none" xmlns="http://www.w3.org/2000/svg">
<path opacity="0.5" d="M4.66675 28.0001C4.66675 17.0007 4.66675 11.5011 8.08275 8.08275C11.5034 4.66675 17.0007 4.66675 28.0001 4.66675C38.9994 4.66675 44.4991 4.66675 47.9151 8.08275C51.3334 11.5034 51.3334 17.0007 51.3334 28.0001C51.3334 38.9994 51.3334 44.4991 47.9151 47.9151C44.5014 51.3334 38.9994 51.3334 28.0001 51.3334C17.0007 51.3334 11.5011 51.3334 8.08275 47.9151C4.66675 44.5014 4.66675 38.9994 4.66675 28.0001Z" fill="#5820E7"/>
<path d="M24.6004 17.5398C24.7657 17.3748 24.8963 17.1783 24.9845 16.9621C25.0727 16.7458 25.1167 16.5141 25.1139 16.2806C25.1112 16.047 25.0617 15.8164 24.9684 15.6023C24.8751 15.3882 24.7399 15.1949 24.5708 15.0339C24.4016 14.8728 24.2019 14.7473 23.9835 14.6646C23.7651 14.5819 23.5323 14.5438 23.2989 14.5525C23.0656 14.5612 22.8363 14.6165 22.6246 14.7152C22.4129 14.8139 22.2231 14.9539 22.0664 15.1271L16.6671 20.7971L15.2671 19.3271C15.1104 19.1539 14.9206 19.0139 14.7089 18.9152C14.4973 18.8165 14.268 18.7612 14.0346 18.7525C13.8012 18.7438 13.5684 18.7819 13.35 18.8646C13.1316 18.9473 12.9319 19.0728 12.7628 19.2339C12.5936 19.3949 12.4584 19.5882 12.3651 19.8023C12.2719 20.0164 12.2224 20.247 12.2196 20.4806C12.2168 20.7141 12.2608 20.9458 12.349 21.1621C12.4372 21.3783 12.5678 21.5748 12.7331 21.7398L15.4001 24.5398C15.5635 24.7113 15.7601 24.8479 15.9779 24.9412C16.1957 25.0345 16.4302 25.0826 16.6671 25.0826C16.904 25.0826 17.1385 25.0345 17.3563 24.9412C17.5741 24.8479 17.7707 24.7113 17.9341 24.5398L24.6004 17.5398ZM30.3334 19.2501C29.8693 19.2501 29.4242 19.4345 29.096 19.7627C28.7678 20.0908 28.5834 20.536 28.5834 21.0001C28.5834 21.4642 28.7678 21.9093 29.096 22.2375C29.4242 22.5657 29.8693 22.7501 30.3334 22.7501H42.0001C42.4642 22.7501 42.9093 22.5657 43.2375 22.2375C43.5657 21.9093 43.7501 21.4642 43.7501 21.0001C43.7501 20.536 43.5657 20.0908 43.2375 19.7627C42.9093 19.4345 42.4642 19.2501 42.0001 19.2501H30.3334ZM24.6004 33.8731C24.7657 33.7081 24.8963 33.5117 24.9845 33.2954C25.0727 33.0791 25.1167 32.8474 25.1139 32.6139C25.1112 32.3804 25.0617 32.1497 24.9684 31.9356C24.8751 31.7215 24.7399 31.5282 24.5708 31.3672C24.4016 31.2062 24.2019 31.0806 23.9835 30.9979C23.7651 30.9152 23.5323 30.8771 23.2989 30.8858C23.0656 30.8945 22.8363 30.9498 22.6246 31.0485C22.4129 31.1472 22.2231 31.2872 22.0664 31.4604L16.6671 37.1304L15.2671 35.6604C15.1104 35.4872 14.9206 35.3472 14.7089 35.2485C14.4973 35.1498 14.268 35.0945 14.0346 35.0858C13.8012 35.0771 13.5684 35.1152 13.35 35.1979C13.1316 35.2806 12.9319 35.4061 12.7628 35.5672C12.5936 35.7282 12.4584 35.9215 12.3651 36.1356C12.2719 36.3497 12.2224 36.5804 12.2196 36.8139C12.2168 37.0474 12.2608 37.2791 12.349 37.4954C12.4372 37.7117 12.5678 37.9081 12.7331 38.0731L15.4001 40.8731C15.5635 41.0446 15.7601 41.1812 15.9779 41.2745C16.1957 41.3678 16.4302 41.4159 16.6671 41.4159C16.904 41.4159 17.1385 41.3678 17.3563 41.2745C17.5741 41.1812 17.7707 41.0446 17.9341 40.8731L24.6004 33.8731ZM30.3334 35.5834C29.8693 35.5834 29.4242 35.7678 29.096 36.096C28.7678 36.4242 28.5834 36.8693 28.5834 37.3334C28.5834 37.7976 28.7678 38.2427 29.096 38.5709C29.4242 38.899 29.8693 39.0834 30.3334 39.0834H42.0001C42.4642 39.0834 42.9093 38.899 43.2375 38.5709C43.5657 38.2427 43.7501 37.7976 43.7501 37.3334C43.7501 36.8693 43.5657 36.4242 43.2375 36.096C42.9093 35.7678 42.4642 35.5834 42.0001 35.5834H30.3334Z" fill="#5820E7"/>
</svg>
