<svg width="41" height="40" viewBox="0 0 41 40" fill="none" xmlns="http://www.w3.org/2000/svg">
<path fill-rule="evenodd" clip-rule="evenodd" d="M24.4116 27.2952L34.1566 17.5785C35.56 16.1802 36.2616 15.4802 36.63 14.5918C37 13.7002 37 12.7118 37 10.7335V9.7885C37 6.74516 37 5.2235 36.0516 4.2785C35.1033 3.3335 33.5783 3.3335 30.5266 3.3335H29.5766C27.5933 3.3335 26.6016 3.3335 25.71 3.70183C24.8166 4.07016 24.115 4.77016 22.71 6.1685L12.9666 15.8852C11.3266 17.5185 10.31 18.5335 9.91665 19.5118C9.794 19.8089 9.73059 20.1271 9.72998 20.4485C9.72998 21.7852 10.8083 22.8618 12.9666 25.0135L13.2566 25.3018L16.6533 21.8535C16.7685 21.7365 16.9057 21.6434 17.0569 21.5794C17.2082 21.5154 17.3705 21.4818 17.5347 21.4806C17.6989 21.4794 17.8618 21.5105 18.0139 21.5722C18.1661 21.6339 18.3047 21.7249 18.4216 21.8402C18.5386 21.9554 18.6318 22.0925 18.6958 22.2438C18.7597 22.395 18.7933 22.5574 18.7945 22.7216C18.7958 22.8858 18.7647 23.0486 18.703 23.2008C18.6413 23.353 18.5502 23.4915 18.435 23.6085L15.0266 27.0668L15.255 27.2952C17.4133 29.4452 18.4933 30.5218 19.8333 30.5218C20.13 30.5218 20.4133 30.4702 20.6983 30.3652C21.7033 29.9952 22.73 28.9718 24.4116 27.2952ZM28.99 15.8852C28.3821 16.4908 27.5589 16.8309 26.7008 16.8309C25.8427 16.8309 25.0195 16.4908 24.4116 15.8852C24.1112 15.586 23.8728 15.2304 23.7101 14.8389C23.5475 14.4473 23.4637 14.0275 23.4637 13.6035C23.4637 13.1795 23.5475 12.7597 23.7101 12.3681C23.8728 11.9766 24.1112 11.621 24.4116 11.3218C25.0195 10.7162 25.8427 10.3761 26.7008 10.3761C27.5589 10.3761 28.3821 10.7162 28.99 11.3218C29.2904 11.621 29.5288 11.9766 29.6915 12.3681C29.8542 12.7597 29.9379 13.1795 29.9379 13.6035C29.9379 14.0275 29.8542 14.4473 29.6915 14.8389C29.5288 15.2304 29.2904 15.586 28.99 15.8852Z" fill="#5820E7"/>
<path opacity="0.5" d="M15.3901 9.93845L11.1518 14.1668C10.3734 14.9434 9.65842 15.6551 9.09342 16.3001C8.71159 16.7257 8.36647 17.1829 8.06176 17.6668L8.02176 17.6251L7.86342 17.4684C7.12614 16.7538 6.25963 16.1859 5.31009 15.7951L5.10509 15.7118L4.47342 15.4618C4.27671 15.3842 4.1024 15.2589 3.96624 15.0971C3.83008 14.9353 3.73635 14.7422 3.69352 14.5351C3.65068 14.3281 3.66009 14.1136 3.72088 13.9111C3.78168 13.7085 3.89196 13.5244 4.04176 13.3751C5.90842 11.5118 8.15009 9.27678 9.23342 8.82845C10.1739 8.43381 11.2039 8.3019 12.2134 8.44678C13.1234 8.58178 13.9834 9.05012 15.3901 9.93845ZM22.6284 32.1884C22.9701 32.5351 23.1951 32.7801 23.4018 33.0418C23.6718 33.3868 23.9134 33.7535 24.1251 34.1385C24.3618 34.5718 24.5468 35.0335 24.9151 35.9585C24.9877 36.1331 25.1022 36.2872 25.2485 36.407C25.3948 36.5269 25.5683 36.609 25.7538 36.6459C25.9393 36.6828 26.131 36.6734 26.3121 36.6186C26.4931 36.5639 26.6578 36.4653 26.7918 36.3318L26.9318 36.1934C28.7984 34.3318 31.0401 32.0968 31.4901 31.0185C31.8854 30.0817 32.0173 29.0547 31.8718 28.0485C31.7368 27.1401 31.2684 26.2818 30.3768 24.8785L26.1234 29.1185C25.3268 29.9135 24.5968 30.6418 23.9351 31.2118C23.5401 31.5551 23.1068 31.8951 22.6284 32.1884Z" fill="#5820E7"/>
</svg>
