<?xml version="1.0" standalone="no"?>
<!DOCTYPE svg PUBLIC "-//W3C//DTD SVG 20010904//EN"
 "http://www.w3.org/TR/2001/REC-SVG-20010904/DTD/svg10.dtd">
<svg version="1.0" xmlns="http://www.w3.org/2000/svg"
 width="263.000000pt" height="190.000000pt" viewBox="0 0 263.000000 190.000000"
 preserveAspectRatio="xMidYMid meet">

<g transform="translate(0.000000,190.000000) scale(0.100000,-0.100000)"
fill="#000000" stroke="none">
<path d="M1290 1691 c-50 -42 -30 -50 24 -10 25 18 46 34 46 36 0 13 -41 -3
-70 -26z"/>
<path d="M1352 1680 c-29 -21 -52 -42 -50 -47 2 -4 7 -7 11 -5 13 4 117 82
117 87 0 14 -31 0 -78 -35z"/>
<path d="M1395 1658 l-60 -43 53 -3 52 -3 0 -75 c0 -70 -1 -74 -22 -74 -39 0
-125 -47 -176 -94 -53 -50 -90 -116 -107 -190 l-11 -48 -27 41 c-15 23 -29 41
-32 41 -3 0 -5 -34 -5 -75 l0 -75 209 0 c177 0 212 2 225 16 9 8 16 20 16 25
0 6 -23 53 -52 106 -29 54 -45 94 -37 91 8 -2 30 -33 49 -68 l35 -63 3 247 c2
253 -2 286 -36 286 -9 0 -44 -19 -77 -42z m85 2 c0 -5 -5 -10 -11 -10 -5 0 -7
5 -4 10 3 6 8 10 11 10 2 0 4 -4 4 -10z"/>
<path d="M1350 1561 c0 -23 -6 -31 -32 -42 -48 -19 -108 -61 -155 -110 -47
-48 -97 -139 -91 -166 2 -12 14 5 34 48 39 83 114 158 199 200 61 30 65 34 65
65 0 19 -4 34 -10 34 -5 0 -10 -13 -10 -29z"/>
<path d="M1400 1545 c0 -31 -4 -45 -13 -45 -32 0 -137 -63 -183 -110 -57 -58
-111 -158 -100 -187 6 -14 11 -9 23 26 21 62 53 109 107 159 47 44 136 92 169
92 14 0 17 9 17 55 0 30 -4 55 -10 55 -5 0 -10 -20 -10 -45z"/>
<path d="M970 1188 c0 -51 5 -100 10 -108 7 -10 10 19 10 93 0 65 -4 107 -10
107 -6 0 -10 -37 -10 -92z"/>
<path d="M1020 1156 c0 -57 4 -96 10 -96 6 0 10 36 10 89 0 50 -4 93 -10 96
-6 4 -10 -28 -10 -89z"/>
<path d="M352 1133 c108 -2 288 -2 400 0 112 1 23 2 -197 2 -220 0 -311 -1
-203 -2z"/>
<path d="M1722 1133 c108 -2 288 -2 400 0 112 1 23 2 -197 2 -220 0 -311 -1
-203 -2z"/>
<path d="M782 1038 c-7 -7 -12 -31 -12 -54 0 -33 -4 -43 -20 -47 -14 -3 -20
-14 -20 -31 0 -19 5 -26 20 -26 18 0 20 -7 20 -80 l0 -80 35 0 35 0 0 76 c0
67 2 76 20 81 14 4 20 14 20 34 0 22 -5 29 -20 29 -11 0 -20 4 -20 9 0 23 14
41 31 41 14 0 19 7 19 30 0 29 -1 30 -48 30 -26 0 -53 -5 -60 -12z"/>
<path d="M2140 885 l0 -105 -46 0 -45 0 3 48 c3 45 4 47 36 50 28 3 32 7 32
33 0 28 -1 29 -53 29 -76 0 -87 -15 -87 -116 0 -49 5 -85 12 -92 8 -8 47 -12
110 -12 l98 0 0 135 0 135 -30 0 -30 0 0 -105z"/>
<path d="M58 929 c-14 -8 -18 -23 -18 -64 0 -30 5 -57 11 -60 5 -4 31 -10 57
-15 l47 -8 -57 -1 c-57 -1 -58 -1 -58 -31 l0 -30 78 0 c47 0 83 5 90 12 16 16
16 100 0 116 -7 7 -31 12 -55 12 -24 0 -43 5 -43 10 0 6 25 10 55 10 54 0 55
0 55 30 l0 30 -72 0 c-40 0 -81 -5 -90 -11z"/>
<path d="M257 922 c-13 -14 -17 -38 -17 -95 0 -96 10 -107 91 -107 59 0 59 0
59 30 0 28 -3 30 -35 30 l-35 0 0 51 0 50 38 -3 37 -3 3 -77 3 -78 29 0 30 0
0 110 0 110 -93 0 c-78 0 -97 -3 -110 -18z"/>
<path d="M490 830 l0 -110 35 0 34 0 3 78 c3 75 4 77 28 77 24 0 25 -2 28 -77
l3 -78 34 0 35 0 0 94 c0 122 -3 126 -116 126 l-84 0 0 -110z"/>
<path d="M906 918 c-19 -26 -22 -148 -6 -179 9 -16 22 -19 95 -19 l85 0 0 30
c0 30 0 30 -62 31 -62 2 -63 2 -17 8 65 9 79 24 79 82 0 59 -14 69 -99 69 -51
0 -62 -3 -75 -22z m104 -48 c0 -5 -11 -10 -25 -10 -14 0 -25 5 -25 10 0 6 11
10 25 10 14 0 25 -4 25 -10z"/>
<path d="M1107 933 c-4 -3 -7 -53 -7 -110 l0 -103 40 0 40 0 0 82 c0 81 15
101 22 28 3 -32 6 -35 33 -35 30 0 30 1 33 60 3 47 0 62 -14 72 -18 13 -135
18 -147 6z"/>
<path d="M1290 830 l0 -110 40 0 40 0 0 80 c0 79 0 80 25 80 25 0 25 -1 25
-80 l0 -80 35 0 35 0 0 100 c0 119 -1 120 -119 120 l-81 0 0 -110z"/>
<path d="M1532 924 c-20 -13 -22 -24 -22 -94 0 -99 9 -110 91 -110 59 0 59 0
59 30 0 28 -3 30 -35 30 l-35 0 0 51 0 50 38 -3 37 -3 3 -77 3 -78 29 0 30 0
0 110 0 110 -88 0 c-63 0 -94 -4 -110 -16z"/>
<path d="M1760 830 l0 -110 35 0 35 0 0 81 0 80 28 -3 c27 -3 27 -4 30 -80 l3
-78 34 0 35 0 0 94 c0 122 -3 126 -116 126 l-84 0 0 -110z"/>
<path d="M2236 924 c-20 -19 -23 -173 -4 -192 16 -16 180 -16 196 0 7 7 12 44
12 94 0 108 -6 114 -110 114 -58 0 -83 -4 -94 -16z m132 -96 l3 -48 -40 0 -41
0 0 43 c0 52 5 59 45 55 28 -3 30 -6 33 -50z"/>
<path d="M693 583 c302 -2 792 -2 1090 0 298 1 52 2 -548 2 -600 0 -843 -1
-542 -2z"/>
<path d="M563 408 c-41 -70 -66 -158 -45 -158 4 0 24 4 45 9 20 5 39 5 42 1 3
-5 26 -8 50 -6 46 2 74 24 74 56 0 9 -7 4 -20 -13 -22 -28 -45 -28 -31 1 27
55 -19 84 -57 36 -11 -15 -21 -32 -21 -39 0 -6 -13 -12 -30 -12 -16 0 -30 4
-30 9 0 5 14 38 30 75 34 74 33 73 21 73 -5 0 -18 -15 -28 -32z m107 -71 c0
-13 -33 -67 -41 -67 -12 0 -12 27 1 51 9 15 40 28 40 16z"/>
<path d="M808 393 c-40 -75 -53 -124 -37 -134 29 -18 59 -9 78 22 l19 32 4
-29 3 -29 90 0 c50 0 95 -4 102 -8 8 -5 18 6 30 30 18 38 18 38 21 11 2 -21 9
-28 25 -29 119 -7 117 -7 137 19 21 26 25 42 12 42 -5 0 -14 -11 -20 -25 -19
-41 -32 -30 -25 20 6 44 5 45 -21 45 -24 0 -54 -32 -70 -75 -2 -5 -7 -6 -12
-2 -5 5 -1 21 8 38 18 30 10 36 -22 19 -16 -8 -18 -8 -14 5 13 33 -17 13 -36
-25 -13 -25 -29 -42 -46 -46 -38 -10 -40 2 -5 31 31 27 39 49 21 60 -17 11
-49 -15 -70 -55 -11 -22 -25 -40 -30 -40 -13 0 -12 10 5 40 17 30 18 40 5 40
-5 0 -19 -18 -30 -40 -11 -22 -25 -40 -30 -40 -15 0 -12 33 6 58 21 31 7 43
-16 15 -17 -22 -18 -22 -23 -3 -3 12 -14 20 -26 20 l-21 0 20 40 c30 60 0 53
-32 -7z m217 -73 c-10 -11 -20 -18 -23 -15 -3 3 3 14 13 25 10 11 20 18 23 15
3 -3 -3 -14 -13 -25z m-181 -2 c-9 -31 -24 -48 -40 -48 -18 0 -18 20 2 48 21
30 48 30 38 0z m386 9 c0 -19 -30 -58 -40 -52 -15 9 12 65 31 65 5 0 9 -6 9
-13z"/>
<path d="M1388 418 c-45 -70 -54 -97 -65 -198 -4 -45 -2 -59 11 -70 15 -11 20
-11 38 8 11 11 24 38 27 58 6 37 8 38 46 38 22 0 50 -3 61 -7 17 -6 24 -2 34
23 17 42 27 45 22 7 l-4 -32 26 30 c20 24 24 26 20 9 -6 -24 19 -49 38 -38 7
5 21 7 31 6 10 -2 25 2 33 8 8 8 14 8 14 2 0 -6 41 -10 106 -9 100 0 106 2
125 25 27 35 23 53 -4 20 -13 -16 -25 -28 -29 -28 -3 0 -3 21 0 46 5 45 4 46
-23 42 -20 -2 -33 -14 -49 -42 -29 -53 -53 -62 -32 -12 19 46 9 46 -27 1 -15
-19 -32 -35 -37 -35 -18 0 -10 26 14 49 32 30 58 85 50 105 -16 41 -62 -3 -89
-84 -16 -48 -55 -99 -43 -55 3 11 9 28 13 38 14 33 -13 17 -29 -18 -9 -19 -24
-35 -32 -35 -14 0 -13 5 5 35 25 43 10 57 -26 24 l-26 -24 12 23 c15 28 -3 30
-32 5 -19 -17 -20 -17 -8 5 6 12 8 22 3 22 -13 0 -28 -20 -39 -54 -16 -50 -34
-44 -26 9 l6 47 -29 -4 c-21 -2 -34 -13 -49 -40 l-20 -36 -12 25 c-11 22 -10
26 7 30 11 3 20 10 20 15 0 6 -9 8 -20 5 -26 -7 -25 3 5 47 17 25 20 36 11 36
-8 0 -20 -10 -28 -22z m386 -55 c-30 -52 -45 -44 -18 9 23 46 37 63 42 49 2
-6 -9 -32 -24 -58z m-294 -36 c0 -19 -30 -58 -40 -52 -15 9 12 65 31 65 5 0 9
-6 9 -13z m415 -16 c-18 -36 -35 -48 -35 -26 0 25 19 55 36 55 13 0 13 -3 -1
-29z m-509 -26 c9 -35 -15 -115 -34 -115 -12 0 -14 10 -8 54 10 87 29 114 42
61z"/>
<path d="M1686 364 c-4 -10 -1 -14 6 -12 15 5 23 28 10 28 -5 0 -13 -7 -16
-16z"/>
<path d="M1815 369 c-10 -15 3 -25 16 -12 7 7 7 13 1 17 -6 3 -14 1 -17 -5z"/>
</g>
</svg>
