<svg version="1.0" xmlns="http://www.w3.org/2000/svg" width="350.667" height="253.333" viewBox="0 0 263 190">
  <path d="M129 20.9c-5 4.2-3 5 2.4 1 2.5-1.8 4.6-3.4 4.6-3.6 0-1.3-4.1.3-7 2.6zm6.2 1.1c-2.9 2.1-5.2 4.2-5 4.7.2.4.7.7 1.1.5 1.3-.4 11.7-8.2 11.7-8.7 0-1.4-3.1 0-7.8 3.5zm4.3 2.2-6 4.3 5.3.3 5.2.3v7.5c0 7-.1 7.4-2.2 7.4-3.9 0-12.5 4.7-17.6 9.4-5.3 5-9 11.6-10.7 19l-1.1 4.8-2.7-4.1c-1.5-2.3-2.9-4.1-3.2-4.1-.3 0-.5 3.4-.5 7.5V84h20.9c17.7 0 21.2-.2 22.5-1.6.9-.8 1.6-2 1.6-2.5 0-.6-2.3-5.3-5.2-10.6-2.9-5.4-4.5-9.4-3.7-9.1.8.2 3 3.3 4.9 6.8l3.5 6.3.3-24.7c.2-25.3-.2-28.6-3.6-28.6-.9 0-4.4 1.9-7.7 4.2zm8.5-.2c0 .5-.5 1-1.1 1-.5 0-.7-.5-.4-1 .3-.6.8-1 1.1-1 .2 0 .4.4.4 1z"/>
  <path d="M135 33.9c0 2.3-.6 3.1-3.2 4.2-4.8 1.9-10.8 6.1-15.5 11-4.7 4.8-9.7 13.9-9.1 16.6.2 1.2 1.4-.5 3.4-4.8 3.9-8.3 11.4-15.8 19.9-20 6.1-3 6.5-3.4 6.5-6.5 0-1.9-.4-3.4-1-3.4-.5 0-1 1.3-1 2.9z"/>
  <path d="M140 35.5c0 3.1-.4 4.5-1.3 4.5-3.2 0-13.7 6.3-18.3 11-5.7 5.8-11.1 15.8-10 18.7.6 1.4 1.1.9 2.3-2.6 2.1-6.2 5.3-10.9 10.7-15.9 4.7-4.4 13.6-9.2 16.9-9.2 1.4 0 1.7-.9 1.7-5.5 0-3-.4-5.5-1-5.5-.5 0-1 2-1 4.5zM97 71.2c0 5.1.5 10 1 10.8.7 1 1-1.9 1-9.3 0-6.5-.4-10.7-1-10.7s-1 3.7-1 9.2zm5 3.2c0 5.7.4 9.6 1 9.6s1-3.6 1-8.9c0-5-.4-9.3-1-9.6-.6-.4-1 2.8-1 8.9zm-66.8 2.3c10.8.2 28.8.2 40 0 11.2-.1 2.3-.2-19.7-.2s-31.1.1-20.3.2zm137 0c10.8.2 28.8.2 40 0 11.2-.1 2.3-.2-19.7-.2s-31.1.1-20.3.2zm-94 9.5c-.7.7-1.2 3.1-1.2 5.4 0 3.3-.4 4.3-2 4.7-1.4.3-2 1.4-2 3.1 0 1.9.5 2.6 2 2.6 1.8 0 2 .7 2 8v8h7v-7.6c0-6.7.2-7.6 2-8.1 1.4-.4 2-1.4 2-3.4 0-2.2-.5-2.9-2-2.9-1.1 0-2-.4-2-.9 0-2.3 1.4-4.1 3.1-4.1 1.4 0 1.9-.7 1.9-3 0-2.9-.1-3-4.8-3-2.6 0-5.3.5-6 1.2zM214 101.5V112h-9.1l.3-4.8c.3-4.5.4-4.7 3.6-5 2.8-.3 3.2-.7 3.2-3.3 0-2.8-.1-2.9-5.3-2.9-7.6 0-8.7 1.5-8.7 11.6 0 4.9.5 8.5 1.2 9.2.8.8 4.7 1.2 11 1.2h9.8V91h-6v10.5zM5.8 97.1c-1.4.8-1.8 2.3-1.8 6.4 0 3 .5 5.7 1.1 6 .5.4 3.1 1 5.7 1.5l4.7.8-5.7.1C4.1 112 4 112 4 115v3h7.8c4.7 0 8.3-.5 9-1.2 1.6-1.6 1.6-10 0-11.6-.7-.7-3.1-1.2-5.5-1.2s-4.3-.5-4.3-1c0-.6 2.5-1 5.5-1 5.4 0 5.5 0 5.5-3v-3h-7.2c-4 0-8.1.5-9 1.1zm19.9.7c-1.3 1.4-1.7 3.8-1.7 9.5 0 9.6 1 10.7 9.1 10.7 5.9 0 5.9 0 5.9-3 0-2.8-.3-3-3.5-3H32v-10.1l3.8.3 3.7.3.3 7.7.3 7.8H46V96h-9.3c-7.8 0-9.7.3-11 1.8zM49 107v11h6.9l.3-7.8c.3-7.5.4-7.7 2.8-7.7s2.5.2 2.8 7.7l.3 7.8H69v-9.4C69 96.4 68.7 96 57.4 96H49v11zm41.6-8.8c-1.9 2.6-2.2 14.8-.6 17.9.9 1.6 2.2 1.9 9.5 1.9h8.5v-3c0-3 0-3-6.2-3.1-6.2-.2-6.3-.2-1.7-.8 6.5-.9 7.9-2.4 7.9-8.2 0-5.9-1.4-6.9-9.9-6.9-5.1 0-6.2.3-7.5 2.2zM101 103c0 .5-1.1 1-2.5 1s-2.5-.5-2.5-1c0-.6 1.1-1 2.5-1s2.5.4 2.5 1zm9.7-6.3c-.4.3-.7 5.3-.7 11V118h8v-8.2c0-8.1 1.5-10.1 2.2-2.8.3 3.2.6 3.5 3.3 3.5 3 0 3-.1 3.3-6 .3-4.7 0-6.2-1.4-7.2-1.8-1.3-13.5-1.8-14.7-.6zM129 107v11h8v-8c0-7.9 0-8 2.5-8s2.5.1 2.5 8v8h7v-10c0-11.9-.1-12-11.9-12H129v11zm24.2-9.4c-2 1.3-2.2 2.4-2.2 9.4 0 9.9.9 11 9.1 11 5.9 0 5.9 0 5.9-3 0-2.8-.3-3-3.5-3H159v-10.1l3.8.3 3.7.3.3 7.7.3 7.8h5.9V96h-8.8c-6.3 0-9.4.4-11 1.6zM176 107v11h7v-16.1l2.8.3c2.7.3 2.7.4 3 8l.3 7.8h6.9v-9.4c0-12.2-.3-12.6-11.6-12.6H176v11zm47.6-9.4c-2 1.9-2.3 17.3-.4 19.2 1.6 1.6 18 1.6 19.6 0 .7-.7 1.2-4.4 1.2-9.4 0-10.8-.6-11.4-11-11.4-5.8 0-8.3.4-9.4 1.6zm13.2 9.6.3 4.8H229v-4.3c0-5.2.5-5.9 4.5-5.5 2.8.3 3 .6 3.3 5zM69.3 131.7c30.2.2 79.2.2 109 0 29.8-.1 5.2-.2-54.8-.2s-84.3.1-54.2.2zm-13 17.5c-4.1 7-6.6 15.8-4.5 15.8.4 0 2.4-.4 4.5-.9 2-.5 3.9-.5 4.2-.1.3.5 2.6.8 5 .6 4.6-.2 7.4-2.4 7.4-5.6 0-.9-.7-.4-2 1.3-2.2 2.8-4.5 2.8-3.1-.1 2.7-5.5-1.9-8.4-5.7-3.6-1.1 1.5-2.1 3.2-2.1 3.9 0 .6-1.3 1.2-3 1.2-1.6 0-3-.4-3-.9s1.4-3.8 3-7.5c3.4-7.4 3.3-7.3 2.1-7.3-.5 0-1.8 1.5-2.8 3.2zm10.7 7.1c0 1.3-3.3 6.7-4.1 6.7-1.2 0-1.2-2.7.1-5.1.9-1.5 4-2.8 4-1.6zm13.8-5.6c-4 7.5-5.3 12.4-3.7 13.4 2.9 1.8 5.9.9 7.8-2.2l1.9-3.2.4 2.9.3 2.9h9c5 0 9.5.4 10.2.8.8.5 1.8-.6 3-3 1.8-3.8 1.8-3.8 2.1-1.1.2 2.1.9 2.8 2.5 2.9 11.9.7 11.7.7 13.7-1.9 2.1-2.6 2.5-4.2 1.2-4.2-.5 0-1.4 1.1-2 2.5-1.9 4.1-3.2 3-2.5-2 .6-4.4.5-4.5-2.1-4.5-2.4 0-5.4 3.2-7 7.5-.2.5-.7.6-1.2.2-.5-.5-.1-2.1.8-3.8 1.8-3 1-3.6-2.2-1.9-1.6.8-1.8.8-1.4-.5 1.3-3.3-1.7-1.3-3.6 2.5-1.3 2.5-2.9 4.2-4.6 4.6-3.8 1-4-.2-.5-3.1 3.1-2.7 3.9-4.9 2.1-6-1.7-1.1-4.9 1.5-7 5.5-1.1 2.2-2.5 4-3 4-1.3 0-1.2-1 .5-4s1.8-4 .5-4c-.5 0-1.9 1.8-3 4s-2.5 4-3 4c-1.5 0-1.2-3.3.6-5.8 2.1-3.1.7-4.3-1.6-1.5-1.7 2.2-1.8 2.2-2.3.3-.3-1.2-1.4-2-2.6-2H82l2-4c3-6 0-5.3-3.2.7zm21.7 7.3c-1 1.1-2 1.8-2.3 1.5-.3-.3.3-1.4 1.3-2.5s2-1.8 2.3-1.5c.3.3-.3 1.4-1.3 2.5zm-18.1.2c-.9 3.1-2.4 4.8-4 4.8-1.8 0-1.8-2 .2-4.8 2.1-3 4.8-3 3.8 0zm38.6-.9c0 1.9-3 5.8-4 5.2-1.5-.9 1.2-6.5 3.1-6.5.5 0 .9.6.9 1.3zm15.8-9.1c-4.5 7-5.4 9.7-6.5 19.8-.4 4.5-.2 5.9 1.1 7 1.5 1.1 2 1.1 3.8-.8 1.1-1.1 2.4-3.8 2.7-5.8.6-3.7.8-3.8 4.6-3.8 2.2 0 5 .3 6.1.7 1.7.6 2.4.2 3.4-2.3 1.7-4.2 2.7-4.5 2.2-.7l-.4 3.2 2.6-3c2-2.4 2.4-2.6 2-.9-.6 2.4 1.9 4.9 3.8 3.8.7-.5 2.1-.7 3.1-.6 1 .2 2.5-.2 3.3-.8.8-.8 1.4-.8 1.4-.2 0 .6 4.1 1 10.6.9 10 0 10.6-.2 12.5-2.5 2.7-3.5 2.3-5.3-.4-2-1.3 1.6-2.5 2.8-2.9 2.8-.3 0-.3-2.1 0-4.6.5-4.5.4-4.6-2.3-4.2-2 .2-3.3 1.4-4.9 4.2-2.9 5.3-5.3 6.2-3.2 1.2 1.9-4.6.9-4.6-2.7-.1-1.5 1.9-3.2 3.5-3.7 3.5-1.8 0-1-2.6 1.4-4.9 3.2-3 5.8-8.5 5-10.5-1.6-4.1-6.2.3-8.9 8.4-1.6 4.8-5.5 9.9-4.3 5.5.3-1.1.9-2.8 1.3-3.8 1.4-3.3-1.3-1.7-2.9 1.8-.9 1.9-2.4 3.5-3.2 3.5-1.4 0-1.3-.5.5-3.5 2.5-4.3 1-5.7-2.6-2.4l-2.6 2.4 1.2-2.3c1.5-2.8-.3-3-3.2-.5-1.9 1.7-2 1.7-.8-.5.6-1.2.8-2.2.3-2.2-1.3 0-2.8 2-3.9 5.4-1.6 5-3.4 4.4-2.6-.9l.6-4.7-2.9.4c-2.1.2-3.4 1.3-4.9 4l-2 3.6-1.2-2.5c-1.1-2.2-1-2.6.7-3 1.1-.3 2-1 2-1.5 0-.6-.9-.8-2-.5-2.6.7-2.5-.3.5-4.7 1.7-2.5 2-3.6 1.1-3.6-.8 0-2 1-2.8 2.2zm38.6 5.5c-3 5.2-4.5 4.4-1.8-.9 2.3-4.6 3.7-6.3 4.2-4.9.2.6-.9 3.2-2.4 5.8zm-29.4 3.6c0 1.9-3 5.8-4 5.2-1.5-.9 1.2-6.5 3.1-6.5.5 0 .9.6.9 1.3zm41.5 1.6c-1.8 3.6-3.5 4.8-3.5 2.6 0-2.5 1.9-5.5 3.6-5.5 1.3 0 1.3.3-.1 2.9zm-50.9 2.6c.9 3.5-1.5 11.5-3.4 11.5-1.2 0-1.4-1-.8-5.4 1-8.7 2.9-11.4 4.2-6.1z"/>
  <path d="M168.6 153.6c-.4 1-.1 1.4.6 1.2 1.5-.5 2.3-2.8 1-2.8-.5 0-1.3.7-1.6 1.6zm12.9-.5c-1 1.5.3 2.5 1.6 1.2.7-.7.7-1.3.1-1.7-.6-.3-1.4-.1-1.7.5z"/>
</svg>
