<svg width="30" height="30" viewBox="0 0 30 30" fill="none" xmlns="http://www.w3.org/2000/svg">
<path d="M11.25 20C12.3125 20.7875 13.6062 21.25 15 21.25C16.3938 21.25 17.6875 20.7875 18.75 20" stroke="white" stroke-width="1.5" stroke-linecap="round"/>
<path d="M18.75 15C19.4404 15 20 14.1605 20 13.125C20 12.0895 19.4404 11.25 18.75 11.25C18.0596 11.25 17.5 12.0895 17.5 13.125C17.5 14.1605 18.0596 15 18.75 15Z" fill="white"/>
<path d="M11.25 15C11.9404 15 12.5 14.1605 12.5 13.125C12.5 12.0895 11.9404 11.25 11.25 11.25C10.5596 11.25 10 12.0895 10 13.125C10 14.1605 10.5596 15 11.25 15Z" fill="white"/>
<path opacity="0.5" d="M2.5 15C2.5 9.1075 2.5 6.16125 4.33 4.33C6.1625 2.5 9.1075 2.5 15 2.5C20.8925 2.5 23.8388 2.5 25.6688 4.33C27.5 6.1625 27.5 9.1075 27.5 15C27.5 20.8925 27.5 23.8388 25.6688 25.6688C23.84 27.5 20.8925 27.5 15 27.5C9.1075 27.5 6.16125 27.5 4.33 25.6688C2.5 23.84 2.5 20.8925 2.5 15Z" stroke="white" stroke-width="1.5"/>
</svg>
