<svg width="72" height="72" viewBox="0 0 72 72" fill="none" xmlns="http://www.w3.org/2000/svg">
<mask id="mask0_65_353" style="mask-type:luminance" maskUnits="userSpaceOnUse" x="10" y="14" width="53" height="40">
<path d="M62.6402 14.4H10.0802V53.28H62.6402V14.4Z" fill="white"/>
</mask>
<g mask="url(#mask0_65_353)">
<path d="M40.7609 37.5716C40.2598 37.5301 39.7527 37.5539 39.2457 37.5183C38.3201 37.4532 37.4003 37.3229 36.4983 37.1037C35.9441 36.9675 35.7083 37.8263 36.2624 37.9626C36.9759 38.1343 37.6952 38.2528 38.4203 38.3357C38.8448 38.3831 39.2752 38.4128 39.6996 38.4364C39.9237 38.4482 40.1536 38.4542 40.3777 38.4601C40.5545 38.4601 40.7491 38.4305 40.9082 38.5253C41.1913 38.6911 41.1264 39.0643 41.1264 39.3426V40.782C41.1264 40.9597 41.1264 41.1374 41.1264 41.3151C41.1264 41.6172 40.8847 41.7889 40.6666 41.9667C40.4779 42.1147 40.5074 42.4405 40.6666 42.5945C40.8493 42.7781 41.1028 42.7485 41.2915 42.5945C41.6747 42.2806 41.9813 41.9193 42.0049 41.4039C42.0107 41.2914 42.0049 41.173 42.0049 41.0604V39.5145C42.0049 39.0702 42.0521 38.6023 41.8045 38.2054C41.5745 37.8323 41.1795 37.6072 40.7432 37.5716H40.7609Z" fill="#414042"/>
<path d="M62.2451 48.5534C60.5649 47.4102 58.7431 46.4447 57.0039 45.3963C56.6325 45.1712 56.267 44.9106 55.8601 44.7625C55.0936 44.4841 54.3096 44.265 53.5431 43.9925C52.3521 43.5719 51.1553 43.1277 50.0234 42.5531C49.6107 42.3458 49.1744 42.1267 48.8206 41.8246C48.52 41.564 48.5082 41.3863 48.5082 41.0012C48.5082 40.3912 48.4728 39.7692 48.5082 39.1591C48.5259 38.8156 48.5082 38.5609 48.9563 38.4542C49.5163 38.3181 50.2238 38.4246 50.8076 38.3713C52.3581 38.2351 53.8968 37.9271 55.3295 37.2933C55.5417 37.1986 55.6066 36.8668 55.4886 36.6832C54.5277 35.2084 54.1091 33.3899 53.7671 31.6781C53.4724 30.2092 53.2719 28.7224 53.1422 27.2298C52.9653 25.2514 52.7295 23.4626 51.5975 21.7686C50.4125 19.9976 48.8619 18.8366 46.8044 18.2976C44.4166 17.6697 41.4806 18.2028 39.6647 19.9561C39.252 20.3529 39.8769 20.9808 40.2896 20.5839C41.9463 18.9788 44.6878 18.5878 46.8338 19.2275C47.9187 19.5533 48.803 19.9679 49.593 20.7794C50.2828 21.4843 50.8901 22.201 51.3441 23.0894C52.1105 24.6058 52.1459 26.1814 52.3168 27.828C52.4701 29.297 52.6764 30.76 52.9771 32.1993C53.2955 33.7216 53.6905 35.3149 54.4628 36.6832C53.3721 37.1038 52.2048 37.3348 51.0492 37.4533C49.8583 37.5717 47.7359 37.1571 47.6298 38.8986C47.5826 39.6685 47.5944 40.48 47.6298 41.2559C47.6651 42.02 48.1014 42.4229 48.7087 42.8197C50.436 43.951 52.5527 44.6026 54.4982 45.2482C54.8048 45.3489 55.1173 45.4496 55.4297 45.5503C55.5359 45.5858 55.7422 45.6687 55.7245 45.651C56.261 45.9294 56.7739 46.2848 57.2928 46.5928C58.7785 47.4872 60.2642 48.3816 61.75 49.282V52.3916H51.1377C50.5658 52.3916 50.5658 53.2801 51.1377 53.2801H62.1921C62.4338 53.2801 62.6343 53.0787 62.6343 52.8359V50.1526C62.6343 49.5484 62.7994 48.9206 62.2629 48.5593L62.2451 48.5534Z" fill="#414042"/>
<path d="M11.0294 52.4743C11.0824 52.3973 11.0294 52.0656 11.0294 51.9708V52.4743Z" fill="white"/>
<path d="M47.9184 48.3751V52.0179C47.9184 52.1068 47.8653 52.4029 47.9184 52.474C47.9891 52.5747 48.1188 52.3911 48.1129 52.3733C48.0775 52.3141 47.4408 52.3733 47.376 52.3733H32.4835" fill="white"/>
<path d="M48.3192 46.7998C44.6521 45.3723 40.9437 43.9152 37.4889 42.0138C36.2626 41.3386 34.6825 40.5093 33.9338 39.3128C33.6154 38.8034 33.6449 38.3 33.6449 37.6069C33.6449 36.748 33.6036 36.3157 34.2109 35.6108C34.8712 34.8467 35.4195 33.9819 35.8499 33.0638C36.0739 32.5899 36.2685 32.1043 36.4394 31.6067C36.5337 31.3343 36.5868 31.0262 36.6989 30.7656C36.8521 30.4221 37.1293 30.2799 37.3768 30.0133C38.0018 29.3381 38.2082 28.3253 37.9133 27.4545C37.7247 26.8919 37.3179 26.5186 37.3002 25.9086C37.2825 25.34 37.3002 24.7654 37.3002 24.1909C37.3002 21.6853 37.536 18.931 35.8675 16.852C33.8159 14.305 29.7596 14.0444 26.8 14.7196C25.3497 15.0513 23.9759 15.7621 23.0444 16.9527C22.1129 18.1432 21.7061 19.707 21.6472 21.2352C21.6118 22.2658 21.6412 23.3082 21.6412 24.3389C21.6412 24.872 21.6708 25.411 21.6412 25.9441C21.6059 26.6016 21.1283 27.028 20.9692 27.6677C20.7451 28.574 21.0576 29.5395 21.7238 30.1674C22.225 30.6412 22.3193 31.0795 22.5433 31.7193C22.7319 32.2464 22.9443 32.7677 23.1977 33.2711C23.6399 34.1714 24.2 35.0185 24.8722 35.7648C25.4204 36.3689 25.2966 36.9969 25.2966 37.7491C25.2966 38.4244 25.3084 38.8508 24.9841 39.3484C24.7129 39.7689 24.2708 40.1658 23.8462 40.4974C21.83 42.0671 19.3714 43.1274 17.0544 44.1521C16.0521 44.5963 15.044 45.0228 14.0299 45.4374C13.4639 45.6685 12.9039 45.8994 12.3378 46.1245C11.7719 46.3496 11.0291 46.5155 10.5162 46.8413C9.8381 47.2796 10.1388 48.8374 10.1388 49.5067C10.1388 50.4899 10.0091 51.5798 10.1388 52.5572C10.2155 53.1317 10.6105 53.2619 11.088 53.2679C12.2907 53.2798 13.4934 53.2679 14.6961 53.2679H44.1981C45.4127 53.2679 46.6271 53.2857 47.8417 53.2679C48.3252 53.2619 48.726 53.1435 48.8086 52.5572C48.9382 51.6035 48.8086 50.5373 48.8086 49.5777V47.8778C48.8086 47.5106 48.8381 47.1788 48.5256 46.9182" fill="#F05023"/>
</g>
</svg>
