<svg width="40" height="40" viewBox="0 0 40 40" fill="none" xmlns="http://www.w3.org/2000/svg">
<path opacity="0.5" d="M29.96 4.33671C30.7316 3.90337 31.2366 3.62337 31.6383 3.46337C32.015 3.31337 32.18 3.32171 32.2933 3.35004C32.4033 3.38004 32.5483 3.45004 32.795 3.76171C33.06 4.09337 33.3516 4.57837 33.7966 5.32837L35.6366 8.42171C36.0833 9.17171 36.37 9.65837 36.535 10.045C36.6883 10.4084 36.6766 10.5584 36.6516 10.655C36.6233 10.7534 36.555 10.8917 36.23 11.1334C35.8883 11.39 35.3866 11.6734 34.6133 12.1067L28.06 15.7767C27.33 16.1867 26.8566 16.45 26.4816 16.5984C26.1316 16.7384 25.9883 16.7267 25.8983 16.7017C25.8066 16.6784 25.6766 16.6184 25.4433 16.3234C25.1933 16.01 24.9183 15.5484 24.4933 14.8334L22.5266 11.5317C22.09 10.7967 21.81 10.32 21.6483 9.94337C21.4983 9.58837 21.51 9.44337 21.535 9.35337C21.5583 9.26337 21.6216 9.13171 21.9316 8.90004C22.2616 8.65004 22.7466 8.37837 23.4983 7.95671L29.96 4.33671ZM11.045 16.9934L5.38664 20.1634C4.61331 20.5967 4.11164 20.88 3.76997 21.135C3.44497 21.3784 3.37664 21.5167 3.34997 21.6134C3.32331 21.71 3.31164 21.86 3.46497 22.2234C3.62831 22.61 3.91664 23.0984 4.36331 23.8484C4.80997 24.5984 5.09997 25.0834 5.36331 25.415C5.61164 25.7267 5.75664 25.7984 5.86664 25.8267C5.97997 25.8567 6.14497 25.8634 6.52331 25.7134C6.92331 25.5534 7.42831 25.2734 8.19997 24.84L13.8283 21.6867C13.565 21.3134 13.2933 20.8534 12.9866 20.3417L11.8833 18.4867C11.55 17.9267 11.2566 17.4317 11.045 16.9934Z" fill="#5820E7"/>
<path d="M14.3966 14.0836L20.145 10.8652C20.3566 11.3036 20.6516 11.7986 20.985 12.3586L23.0083 15.7586C23.3133 16.2719 23.5866 16.7302 23.8483 17.1052L21.27 18.5486L28.23 34.8652C28.2965 35.0227 28.3312 35.1918 28.332 35.3628C28.3328 35.5338 28.2997 35.7032 28.2346 35.8613C28.1695 36.0194 28.0737 36.163 27.9528 36.2838C27.8318 36.4046 27.6881 36.5003 27.53 36.5652C27.2091 36.7001 26.8479 36.7029 26.525 36.5731C26.202 36.4433 25.9433 36.1913 25.805 35.8719L20 22.2636L14.195 35.8719C14.0567 36.1909 13.7982 36.4426 13.4756 36.5724C13.1531 36.7022 12.7923 36.6996 12.4716 36.5652C12.3135 36.5003 12.1698 36.4046 12.0488 36.2838C11.9279 36.163 11.8321 36.0194 11.767 35.8613C11.7019 35.7032 11.6688 35.5338 11.6696 35.3628C11.6704 35.1918 11.7051 35.0227 11.7716 34.8652L17.9316 20.4186C17.2616 20.7936 16.8166 21.0386 16.46 21.1802C16.11 21.3202 15.9666 21.3086 15.8766 21.2836C15.785 21.2602 15.655 21.2002 15.4216 20.9052C15.1733 20.5919 14.8966 20.1302 14.4716 19.4152L13.4266 17.6586C12.9883 16.9252 12.7083 16.4486 12.5466 16.0702C12.3966 15.7152 12.4083 15.5702 12.4333 15.4819C12.4583 15.3902 12.52 15.2602 12.83 15.0269C13.16 14.7786 13.6466 14.5052 14.3966 14.0852" fill="#5820E7"/>
</svg>
