<svg width="40" height="40" viewBox="0 0 40 40" fill="none" xmlns="http://www.w3.org/2000/svg">
<path opacity="0.5" d="M20 36.6668C29.2048 36.6668 36.6667 29.2049 36.6667 20.0002C36.6667 10.7954 29.2048 3.3335 20 3.3335C10.7953 3.3335 3.33334 10.7954 3.33334 20.0002C3.33334 29.2049 10.7953 36.6668 20 36.6668Z" fill="#5820E7"/>
<path d="M14.2917 15.7452C13.98 12.2718 11.3017 9.03518 9.99999 7.85185L9.28333 7.23518C12.2827 4.70981 16.0791 3.32762 20 3.33351C23.69 3.33351 27.1 4.53351 29.86 6.56018C30.25 7.74518 29.5067 10.2202 28.7267 11.4035C28.4433 11.8318 27.8033 12.3652 27.1 12.8702C25.5167 14.0085 23.5167 14.5702 22.5 16.6668C22.2459 17.1947 22.1966 17.7981 22.3617 18.3602C22.4617 18.7268 22.5283 19.1252 22.5283 19.5135C22.5317 20.7718 21.2583 21.6802 20 21.6668C16.7267 21.6318 14.5833 18.9935 14.2917 15.7452ZM22.395 30.4602C24.0417 27.3568 29.53 27.3568 29.53 27.3568C35.25 27.2968 36.0233 23.8235 36.54 22.0685C36.0843 25.7037 34.4442 29.0878 31.8731 31.6977C29.302 34.3077 25.943 35.9984 22.315 36.5085C21.7767 35.3752 21.14 32.8252 22.395 30.4602Z" fill="#5820E7"/>
</svg>
