<svg width="32" height="32" viewBox="0 0 32 32" fill="none" xmlns="http://www.w3.org/2000/svg">
<path d="M4 13.8894C4 9.62541 4 7.49341 4.504 6.77608C5.00667 6.06008 7.01067 5.37341 11.02 4.00141L11.784 3.74008C13.8733 3.02408 14.9173 2.66675 16 2.66675C17.0813 2.66675 18.1267 3.02408 20.216 3.74008L20.98 4.00141C24.9893 5.37341 26.9933 6.06008 27.496 6.77608C28 7.49341 28 9.62675 28 13.8894V15.9881C28 23.5054 22.348 27.1547 18.8013 28.7027C17.84 29.1227 17.36 29.3334 16 29.3334C14.64 29.3334 14.16 29.1227 13.1987 28.7027C9.652 27.1534 4 23.5067 4 15.9881V13.8894Z" stroke="#372B47" stroke-width="2"/>
<path d="M12.6667 16.5335L14.5721 18.6668L19.3334 13.3335" stroke="#372B47" stroke-width="2" stroke-linecap="round" stroke-linejoin="round"/>
</svg>
