<svg width="38" height="39" viewBox="0 0 38 39" fill="none" xmlns="http://www.w3.org/2000/svg">
<path opacity="0.5" d="M15.1873 5.56666C14.9379 5.79159 14.6763 6.0025 14.4035 6.19841C13.9317 6.51508 13.4013 6.73358 12.8439 6.84441C12.6017 6.89191 12.3483 6.91249 11.8433 6.95208C10.575 7.05341 9.9401 7.10408 9.41126 7.29091C8.80659 7.5044 8.25738 7.85057 7.80394 8.304C7.3505 8.75744 7.00434 9.30665 6.79085 9.91132C6.60401 10.4402 6.55335 11.0751 6.45201 12.3433C6.43474 12.6786 6.3988 13.0127 6.34435 13.344C6.23351 13.9013 6.01501 14.4317 5.69835 14.9036C5.5606 15.1094 5.39593 15.3026 5.0666 15.6873C4.24168 16.6563 3.82843 17.1408 3.58618 17.6475C3.02726 18.8192 3.02726 20.1808 3.58618 21.3525C3.82843 21.8592 4.24168 22.3437 5.0666 23.3127C5.39593 23.6974 5.5606 23.8906 5.69835 24.0964C6.01501 24.5682 6.23351 25.0987 6.34435 25.656C6.39185 25.8982 6.41243 26.1516 6.45201 26.6567C6.55335 27.9249 6.60401 28.5598 6.79085 29.0887C7.00434 29.6933 7.3505 30.2425 7.80394 30.696C8.25738 31.1494 8.80659 31.4956 9.41126 31.7091C9.9401 31.8959 10.575 31.9466 11.8433 32.0479C12.3483 32.0875 12.6017 32.1081 12.8439 32.1556C13.4013 32.2664 13.9317 32.4865 14.4035 32.8016C14.6093 32.9393 14.8025 33.104 15.1873 33.4333C16.1563 34.2582 16.6408 34.6715 17.1474 34.9137C18.3191 35.4727 19.6808 35.4727 20.8524 34.9137C21.3591 34.6715 21.8436 34.2582 22.8126 33.4333C23.1973 33.104 23.3905 32.9393 23.5963 32.8016C24.0682 32.4849 24.5986 32.2664 25.1559 32.1556C25.3982 32.1081 25.6515 32.0875 26.1566 32.0479C27.4248 31.9466 28.0598 31.8959 28.5886 31.7091C29.1933 31.4956 29.7425 31.1494 30.1959 30.696C30.6494 30.2425 30.9955 29.6933 31.209 29.0887C31.3958 28.5598 31.4465 27.9249 31.5478 26.6567C31.5874 26.1516 31.608 25.8982 31.6555 25.656C31.7663 25.0987 31.9864 24.5682 32.3015 24.0964C32.4393 23.8906 32.6039 23.6974 32.9333 23.3127C33.7582 22.3437 34.1714 21.8592 34.4137 21.3525C34.9726 20.1808 34.9726 18.8192 34.4137 17.6475C34.1714 17.1408 33.7582 16.6563 32.9333 15.6873C32.7079 15.4383 32.497 15.1766 32.3015 14.9036C31.9851 14.4316 31.7656 13.9015 31.6555 13.344C31.6011 13.0127 31.5652 12.6786 31.5478 12.3433C31.4465 11.0751 31.3958 10.4402 31.209 9.91132C30.9955 9.30665 30.6494 8.75744 30.1959 8.304C29.7425 7.85057 29.1933 7.5044 28.5886 7.29091C28.0598 7.10408 27.4248 7.05341 26.1566 6.95208C25.8213 6.9348 25.4872 6.89886 25.1559 6.84441C24.5985 6.73435 24.0684 6.51478 23.5963 6.19841C23.3236 6.00249 23.062 5.79159 22.8126 5.56666C21.8436 4.74174 21.3591 4.32849 20.8524 4.08624C20.274 3.80976 19.641 3.66626 18.9999 3.66626C18.3588 3.66626 17.7259 3.80976 17.1474 4.08624C16.6408 4.32849 16.1563 4.74174 15.1873 5.56666Z" fill="#5820E7"/>
<path d="M25.9255 16.1165C26.1604 15.8735 26.2903 15.5479 26.2874 15.2099C26.2845 14.8719 26.149 14.5486 25.91 14.3096C25.671 14.0706 25.3477 13.9351 25.0097 13.9322C24.6717 13.9293 24.3461 14.0592 24.1031 14.2941L16.4239 21.9733L13.8985 19.4479C13.6554 19.213 13.3298 19.083 12.9919 19.0859C12.6539 19.0888 12.3306 19.2244 12.0916 19.4634C11.8526 19.7024 11.7171 20.0257 11.7142 20.3636C11.7113 20.7016 11.8412 21.0272 12.0761 21.2703L15.5119 24.7061C15.7535 24.9472 16.081 25.0827 16.4223 25.0827C16.7637 25.0827 17.0911 24.9472 17.3327 24.7061L25.9255 16.1165Z" fill="#5820E7"/>
</svg>
