<svg width="56" height="56" viewBox="0 0 56 56" fill="none" xmlns="http://www.w3.org/2000/svg">
<path opacity="0.5" d="M22.3813 7.4666C22.0139 7.79809 21.6283 8.1089 21.2263 8.3976C20.531 8.86427 19.7493 9.18627 18.928 9.3496C18.571 9.4196 18.1977 9.44994 17.4533 9.50827C15.5843 9.6576 14.6487 9.73227 13.8693 10.0076C12.9782 10.3222 12.1689 10.8324 11.5006 11.5006C10.8324 12.1688 10.3223 12.9782 10.0077 13.8693C9.73232 14.6486 9.65765 15.5843 9.50832 17.4533C9.48287 17.9474 9.4299 18.4397 9.34965 18.9279C9.18632 19.7493 8.86432 20.5309 8.39765 21.2263C8.19465 21.5296 7.95199 21.8143 7.46665 22.3813C6.25099 23.8093 5.64199 24.5233 5.28499 25.2699C4.46132 26.9966 4.46132 29.0033 5.28499 30.7299C5.64199 31.4766 6.25099 32.1906 7.46665 33.6186C7.95199 34.1856 8.19465 34.4703 8.39765 34.7736C8.86432 35.4689 9.18632 36.2506 9.34965 37.0719C9.41965 37.4289 9.44999 37.8023 9.50832 38.5466C9.65765 40.4156 9.73232 41.3513 10.0077 42.1306C10.3223 43.0217 10.8324 43.8311 11.5006 44.4993C12.1689 45.1675 12.9782 45.6777 13.8693 45.9923C14.6487 46.2676 15.5843 46.3423 17.4533 46.4916C18.1977 46.5499 18.571 46.5803 18.928 46.6503C19.7493 46.8136 20.531 47.1379 21.2263 47.6023C21.5297 47.8053 21.8143 48.0479 22.3813 48.5333C23.8093 49.7489 24.5233 50.3579 25.27 50.7149C26.9967 51.5386 29.0033 51.5386 30.73 50.7149C31.4767 50.3579 32.1907 49.7489 33.6187 48.5333C34.1857 48.0479 34.4703 47.8053 34.7737 47.6023C35.469 47.1356 36.2507 46.8136 37.072 46.6503C37.429 46.5803 37.8023 46.5499 38.5467 46.4916C40.4157 46.3423 41.3513 46.2676 42.1306 45.9923C43.0218 45.6777 43.8311 45.1675 44.4993 44.4993C45.1676 43.8311 45.6777 43.0217 45.9923 42.1306C46.2677 41.3513 46.3423 40.4156 46.4916 38.5466C46.55 37.8023 46.5803 37.4289 46.6503 37.0719C46.8137 36.2506 47.138 35.4689 47.6023 34.7736C47.8053 34.4703 48.048 34.1856 48.5333 33.6186C49.749 32.1906 50.358 31.4766 50.715 30.7299C51.5387 29.0033 51.5387 26.9966 50.715 25.2699C50.358 24.5233 49.749 23.8093 48.5333 22.3813C48.2013 22.0143 47.8904 21.6287 47.6023 21.2263C47.1361 20.5307 46.8125 19.7495 46.6503 18.9279C46.5701 18.4397 46.5172 17.9474 46.4916 17.4533C46.3423 15.5843 46.2677 14.6486 45.9923 13.8693C45.6777 12.9782 45.1676 12.1688 44.4993 11.5006C43.8311 10.8324 43.0218 10.3222 42.1306 10.0076C41.3513 9.73227 40.4157 9.6576 38.5467 9.50827C38.0525 9.48282 37.5602 9.42985 37.072 9.3496C36.2504 9.18741 35.4693 8.86383 34.7737 8.3976C34.3717 8.10889 33.9861 7.79807 33.6187 7.4666C32.1907 6.25094 31.4767 5.64194 30.73 5.28494C29.8776 4.87749 28.9448 4.66602 28 4.66602C27.0552 4.66602 26.1224 4.87749 25.27 5.28494C24.5233 5.64194 23.8093 6.25094 22.3813 7.4666Z" fill="#5820E7"/>
<path d="M38.206 23.0135C38.5521 22.6553 38.7437 22.1755 38.7394 21.6775C38.7351 21.1794 38.5354 20.7029 38.1832 20.3507C37.831 19.9985 37.3545 19.7988 36.8564 19.7945C36.3584 19.7902 35.8786 19.9818 35.5204 20.3279L24.2037 31.6445L20.482 27.9229C20.1238 27.5768 19.644 27.3852 19.146 27.3895C18.6479 27.3938 18.1714 27.5935 17.8192 27.9457C17.467 28.2979 17.2673 28.7744 17.263 29.2725C17.2587 29.7705 17.4503 30.2503 17.7964 30.6085L22.8597 35.6719C23.2158 36.0272 23.6983 36.2268 24.2014 36.2268C24.7044 36.2268 25.187 36.0272 25.543 35.6719L38.206 23.0135Z" fill="#5820E7"/>
</svg>
