<svg width="32" height="32" viewBox="0 0 32 32" fill="none" xmlns="http://www.w3.org/2000/svg">
<path d="M16 20C18.2091 20 20 18.2091 20 16C20 13.7909 18.2091 12 16 12C13.7909 12 12 13.7909 12 16C12 18.2091 13.7909 20 16 20Z" stroke="white" stroke-width="2"/>
<path d="M18.3534 2.86917C17.8641 2.6665 17.2428 2.6665 16.0001 2.6665C14.7574 2.6665 14.1361 2.6665 13.6468 2.86917C13.323 3.00319 13.0288 3.1997 12.7811 3.44747C12.5333 3.69524 12.3368 3.98941 12.2028 4.31317C12.0801 4.6105 12.0308 4.9585 12.0121 5.46384C12.0038 5.82916 11.9028 6.18637 11.7185 6.50193C11.5343 6.81749 11.2728 7.08104 10.9588 7.26784C10.64 7.44656 10.281 7.54131 9.91549 7.54317C9.55001 7.54504 9.19006 7.45396 8.86945 7.2785C8.42145 7.04117 8.09745 6.9105 7.77611 6.86784C7.0752 6.77566 6.36638 6.96558 5.80545 7.39584C5.38678 7.71984 5.07478 8.25717 4.45345 9.33317C3.83211 10.4092 3.52011 10.9465 3.45211 11.4732C3.40629 11.8204 3.42934 12.1733 3.51993 12.5117C3.61053 12.8501 3.7669 13.1673 3.98011 13.4452C4.17745 13.7012 4.45345 13.9158 4.88145 14.1852C5.51211 14.5812 5.91745 15.2558 5.91745 15.9998C5.91745 16.7438 5.51211 17.4185 4.88145 17.8132C4.45345 18.0838 4.17611 18.2985 3.98011 18.5545C3.7669 18.8324 3.61053 19.1496 3.51993 19.488C3.42934 19.8263 3.40629 20.1792 3.45211 20.5265C3.52145 21.0518 3.83211 21.5905 4.45211 22.6665C5.07478 23.7425 5.38545 24.2798 5.80545 24.6038C6.08336 24.817 6.40056 24.9734 6.73892 25.064C7.07728 25.1546 7.43018 25.1777 7.77745 25.1318C8.09745 25.0892 8.42145 24.9585 8.86945 24.7212C9.19006 24.5457 9.55001 24.4546 9.91549 24.4565C10.281 24.4584 10.64 24.5531 10.9588 24.7318C11.6028 25.1052 11.9854 25.7918 12.0121 26.5358C12.0308 27.0425 12.0788 27.3892 12.2028 27.6865C12.3368 28.0103 12.5333 28.3044 12.7811 28.5522C13.0288 28.8 13.323 28.9965 13.6468 29.1305C14.1361 29.3332 14.7574 29.3332 16.0001 29.3332C17.2428 29.3332 17.8641 29.3332 18.3534 29.1305C18.6772 28.9965 18.9714 28.8 19.2191 28.5522C19.4669 28.3044 19.6634 28.0103 19.7974 27.6865C19.9201 27.3892 19.9694 27.0425 19.9881 26.5358C20.0148 25.7918 20.3974 25.1038 21.0414 24.7318C21.3602 24.5531 21.7193 24.4584 22.0847 24.4565C22.4502 24.4546 22.8102 24.5457 23.1308 24.7212C23.5788 24.9585 23.9028 25.0892 24.2228 25.1318C24.57 25.1777 24.9229 25.1546 25.2613 25.064C25.5997 24.9734 25.9169 24.817 26.1948 24.6038C26.6148 24.2812 26.9254 23.7425 27.5468 22.6665C28.1681 21.5905 28.4801 21.0532 28.5481 20.5265C28.5939 20.1792 28.5709 19.8263 28.4803 19.488C28.3897 19.1496 28.2333 18.8324 28.0201 18.5545C27.8228 18.2985 27.5468 18.0838 27.1188 17.8145C26.8064 17.6247 26.5475 17.3585 26.3662 17.0411C26.185 16.7236 26.0875 16.3653 26.0828 15.9998C26.0828 15.2558 26.4881 14.5812 27.1188 14.1865C27.5468 13.9158 27.8241 13.7012 28.0201 13.4452C28.2333 13.1673 28.3897 12.8501 28.4803 12.5117C28.5709 12.1733 28.5939 11.8204 28.5481 11.4732C28.4788 10.9478 28.1681 10.4092 27.5481 9.33317C26.9254 8.25717 26.6148 7.71984 26.1948 7.39584C25.9169 7.18262 25.5997 7.02625 25.2613 6.93566C24.9229 6.84506 24.57 6.82202 24.2228 6.86784C23.9028 6.9105 23.5788 7.04117 23.1294 7.2785C22.809 7.45372 22.4493 7.54467 22.0841 7.5428C21.7188 7.54094 21.3601 7.44632 21.0414 7.26784C20.7274 7.08104 20.4659 6.81749 20.2817 6.50193C20.0974 6.18637 19.9964 5.82916 19.9881 5.46384C19.9694 4.95717 19.9214 4.6105 19.7974 4.31317C19.6634 3.98941 19.4669 3.69524 19.2191 3.44747C18.9714 3.1997 18.6772 3.00319 18.3534 2.86917Z" stroke="white" stroke-width="2"/>
</svg>
